<?xml version="1.0" encoding="UTF-8"?>
<svg id="Layer_1" xmlns="http://www.w3.org/2000/svg" width="2.56in" height="1.09in" version="1.1" viewBox="0 0 184.49 78.37">
  <!-- Generator: Adobe Illustrator 30.4.0, SVG Export Plug-In . SVG Version: 2.1.4 Build 226)  -->
  <defs>
    <style>
      .st0, .st1 {
        fill: #fafbee;
      }

      .st1 {
        stroke: #fafbee;
        stroke-miterlimit: 10;
        stroke-width: 2px;
      }
    </style>
  </defs>
  <g>
    <path class="st1" d="M16.62,51.1c-.12.12-.24.18-.24.3-.06,1.08-.54,2.16-.54,3.24,0,.06.06.06.06.12-.24.96-.42,1.86-.6,2.82-.12.66-.24,1.38-.24,2.04,0,1.14-.06,2.22-.06,3.36,0,.24-.06.48-.06.72-.06.48-.6.9-1.08.96-.12,0-.18.06-.3.06-.36,0-.72-.06-1.02-.24-.3-.3-.48-.72-.6-1.32.06-.42.24-.9.3-1.44.12-.84.06-1.62.12-2.46,0-.6,0-1.2.3-1.74.06-1.62.48-3.12.96-4.62.06-1.2.48-2.4.54-3.6.06-.9.42-1.74.48-2.64s.24-1.8.48-2.64c.24-.84.3-1.8.66-2.64.12-.36.18-.72.18-1.08.06-.66.06-1.38.06-2.04v-.42c0-.18,0-.36.06-.48.24-.66.24-1.32.24-1.98v-.72c0-.78.06-1.44.12-2.22.06-.36.12-.78.24-1.26,0-.12-.06-.36-.12-.54-.06-.24-.12-.42-.12-.6,0-.6.42-1.08,1.02-1.5.6.24,1.08.54,1.68.78h2.28c.18,0,.3,0,.42-.06.54-.24,1.14-.36,1.74-.36.36,0,.72.06,1.08.06h.3c.6,0,1.14-.06,1.74-.06.48,0,1.02,0,1.62.12.54.24,1.32.6,2.04.96.24.3.54.54.78.84.24.3.36.6.48.84.3,1.44.12,2.88.48,4.14-.36.78-.66,1.56-1.08,2.52-.06.06-.24.3-.42.54-.42.54-.84,1.14-1.32,1.56-.78.66-1.56,1.38-2.34,2.1-.48.42-1.08.84-1.62,1.2-1.2.78-2.22,1.8-3.48,2.46-.66.36-1.32.78-1.98,1.14-.24.12-.54.24-.78.42-.3.18-.48.48-.48.84,0,.12.06.3.12.48.18.24.36.48.6.78.54.54,1.02,1.08,1.44,1.74.12.18.24.36.42.54,1.2,1.08,2.04,2.4,3,3.66.48.6.96,1.14,1.62,1.56.84.54,1.44,1.32,2.1,2.04.48.54.78,1.14.78,1.86,0,.12-.06.3-.06.42-.06.6-.6,1.08-1.2,1.08-.12,0-.36,0-.48-.06-.3-.12-.54-.3-.66-.36l-.24-.24c-.24-.42-.48-.78-.78-1.32-.78-.84-1.74-1.92-2.64-2.88-.18-.24-.42-.42-.6-.66-1.02-1.44-2.1-2.7-3.24-4.02-.24-.3-.42-.66-.6-.96-.24-.42-.54-.72-.9-1.02-.12-.06-.3-.06-.42-.12h-.24ZM24.54,31.18c-1.02.6-2.16.36-3.3.54-.18.12-.42.24-.54.42-.12.12-.18.3-.18.42-.06.84-.36,1.56-.66,2.34-.3.72-.48,1.38-.72,2.1-.24.78-.6,1.56-.6,2.4-.36.66-.36,1.5-.42,2.22,0,.3-.18.54-.24.84-.18.66-.42,1.26-.54,1.92v.3c0,.36.18.66.6.84.96-.36,1.8-.84,2.58-1.56.96-.96,2.1-1.74,3.36-2.1,1.56-1.2,2.82-2.64,4.14-3.96.66-.66,1.2-1.32,1.5-2.22v-.42c0-.48-.06-.84-.18-1.32-.18-.54-.24-1.14-.36-1.68-.36-.48-.78-.9-1.38-1.08h-3.06Z"/>
    <path class="st1" d="M41.1,24.93c0-.6.06-1.14.36-1.92.36-.84.78-1.38,1.62-1.62h.06c.24,0,.3.36.42.66.06.36.12.66.12.96v.36c-.06.42-.36.6-.36,1.02,0,.6-.06,1.2-.3,1.8-.18.42-.06.9-.18,1.32-.36.96-.36,1.92-.36,2.94v2.04c0,.42,0,.84-.24,1.2-.36.66-.12,1.5-.48,2.22-.18.42-.24.84-.24,1.26v.78c0,1.14-.36,2.16-.6,3.24-.06.36-.24.72-.24,1.08-.06.54-.18,1.08-.36,1.56-.18.48-.06.96-.18,1.56-.12.9-.3,1.38-.42,2.34v.72c0,.6-.24,1.08-.3,1.8-.12,1.14-.06,1.8-.18,2.94v.3c0,.36.06.54.06,1.02v1.92c0,.12-.06.3-.06.42,0,.54.06,1.08.06,1.62,0,.6-.06,1.2-.06,1.74-.48.66-.42.66-1.02.84l-.54-.36c-.42-1.02-.48-2.04-.48-3.06,0-.36,0-.78.06-1.14.06-.42.06-.78.06-1.2v-1.26c0-.24.12-.54.12-.78,0-.66.06-1.26.06-1.92,0-.6,0-1.2.06-1.8,0-.3.06-.66.18-.9.24-.6.24-1.2.24-1.8s.06-1.14.3-1.74c.12-.24.12-.6.12-.9.06-.6.06-1.2.3-1.74.06-.12.12-.3.12-.42v-.3c0-1.2.48-2.28.6-3.48.06-.42.3-.9.36-1.32.06-.42.06-.84.3-1.26.06-.12.12-.36.12-.48.18-.96.24-1.74.36-2.88.12-1.02.12-1.8.18-2.7.06-.72,0-1.5.24-2.22.12-.36.12-.72.12-1.08v-1.38Z"/>
    <path class="st1" d="M51.7,54.22c-.3,0-.48.24-.78.36-.42-.18-.6-.48-.6-.9-.06-.72-.06-1.44-.06-2.16,0-1.26,0-2.4.06-3.66,0-.24,0-.48.12-.66.24-.48.24-1.02.24-1.56,0-1.2.06-2.4.12-3.6v-.6c0-.3,0-.54.12-.78.18-.36.18-.72.18-1.08,0-3,.06-6.06.06-9.06,0-.72,0-1.5-.24-2.22-.18-.48-.18-1.02-.18-1.56-.06-.78-.06-1.44-.12-2.22-.3-.6-.3-1.26-.3-1.92v-.3c0-.36,0-.78-.06-1.14v-.18c0-.24.06-.48.06-.66.3-.42.72-.6,1.2-.78.36.06.84.3,1.26.3,1.26.06,2.52.36,3.96.66,1.38.6,2.76,1.38,4.32,1.92,1.38.48,2.58,1.38,3.48,2.52.36.96,1.2,1.44,1.74,2.28.48,1.32,1.02,2.64,1.56,4.14,0,.24.06.66.06,1.02v1.02c0,.9-.06,1.38-.48,2.7-.6,1.86-1.2,3.72-2.16,5.46-.66,1.26-1.44,2.46-2.4,3.54-.9,1.02-1.68,2.1-2.52,3.18-.9,1.08-1.74,2.22-2.52,3.42-.72,1.08-1.5,2.04-2.1,3.18-.18.42-.48.72-.72,1.02-.24.06-.42.12-.6.12-.3,0-.54-.12-.78-.36-.3-.6-.66-1.14-.66-1.8-.42.12-.78.36-1.26.36ZM53.14,53.8c.3-.24.66-.48.84-.78.66-1.08,1.62-1.98,2.16-3.12.12-.18.24-.42.36-.6,1.38-1.86,2.76-3.72,4.2-5.52.6-.78,1.02-1.68,1.68-2.4.3-.3.42-.78.6-1.2.48-1.02,1.02-2.04,1.5-3.06.12-.18.18-.36.18-.6.12-1.08.66-1.98.9-3-.12-.48-.24-1.08-.36-1.56-.3-1.26-.6-2.4-1.5-3.42-.06-.06-.12-.18-.18-.24-.72-1.56-1.98-2.58-3.48-3.36-1.86-.96-3.78-1.8-5.88-2.28-.36.24-.84.3-1.08.72,0,.06-.06.18-.06.24v5.58c0,.54,0,1.08.18,1.56v.12c0,.12,0,.3-.06.36-.24.72-.24,1.44-.24,2.16v8.64c0,.54,0,1.02-.18,1.5-.06.18-.12.42-.12.66-.06,1.56-.18,3.18-.18,4.74,0,.66.06,1.38.06,2.04.06.96.24,1.86.54,2.82h.12Z"/>
    <path class="st1" d="M79.56,31.86c.42-.66.6-1.08.9-1.8.36-.78.54-1.38.84-2.1.24-.6,1.02-1.68,1.02-2.46v-.12c-.6-.78-4.2-.66-4.2-2.04,0-.66.48-1.08,1.02-1.14.24,0,.42-.06.66-.06,1.26,0,2.58.36,3,.42s.72.36,1.26.48c.42.12.72.18,1.02.54.3.36.48.36.48.72,0,.9-.3,1.8-.66,2.64-.42.96-.72,1.92-1.2,2.88s-.9,1.68-1.5,2.76c-.18.3-.24.48-.42.78-.9,1.32-1.38,2.34-2.34,3.3-.54.54-.84,1.08-1.44,1.74-.12.12-.18.18-.36.24l-.06.06c-.18,0-.3-.18-.42-.18h-.06c-.54.18-.78.54-1.32.66h-.06c-.12,0-.24-.18-.3-.3-.78-1.38-1.2-2.4-1.8-3.6-.12-.24-.24-.54-.3-.84-.06-.24,0-.48-.12-.66-.36-.72-.36-1.44-.36-2.22l-.06-.06c0-.3.06-.6.06-.84,0-.12,0-.24-.06-.36-.12-.36-.12-1.02-.12-1.44v-.48c0-.78,0-1.08.12-2.1.12-.96.18-1.68.18-2.52,0-.66.12-1.2.24-1.98.12-.96.06-1.62.36-2.4.3-.72.3-1.44.6-2.16.12-.3,0-.78.18-1.2.18-.42.48-.48.66-.9.36-.96.24-1.62.66-2.58.54-1.2,1.08-1.8,1.8-2.88.24-.36.36-.66.78-.84.36-.18.66-.3.96-.3.18,0,.36.06.54.12,1.56.72,2.4,1.26,3.54,2.52,1.14,1.32,1.56,2.28,2.22,3.9.12.24.12.48.12.66,0,.3-.06.6-.12.96,0,.18-.12.3-.24.42-.12.12-.18.3-.36.3-.66-.06-.96-.36-1.5-.72-.18-.12-.24-.18-.3-.36-.36-.96-.36-1.5-.84-2.52-.36-.78-.96-1.2-1.5-1.68-.24-.18-.54-.3-.84-.36h-.06c-.24,0-.66.12-.9.42-.66.84-.9,1.56-1.38,2.34-.48.84-.78,1.8-1.02,2.76-.12.6-.36,1.08-.48,1.68-.24.96-.42,1.74-.6,2.88-.18,1.14-.42,1.92-.42,2.88,0,.24.06.54.06.78v6.24c0,.42.06.9.24,1.32s.18.9.3,1.32c.06.3.24.54.48.72.06.06.24.12.36.12s.18-.06.24-.12c.24-.18.48-.36.66-.6.66-.84,1.44-1.56,2.16-2.64Z"/>
    <path class="st1" d="M97.54,30.88c.02.32.11.67.18.97l.21.86c.04.63-.07,1.03-.07,1.73,0,.64.03,1.01.07,1.64.03.58.14,1.04.05,1.54-.04.28.06.68.13.99.18.76.42,1.51.6,2.26.2.17.41.38.55.51.21,0,.34.08.44.05.56-.13.98-.18,1.48-.3.36-.09.75-.23,1.19-.39,1.17-.5,1.89-1.31,2.88-1.66.24-.11.42-.26.65-.42.09-.08.19-.1.29-.12.25-.06.49.04.77.3.06.04.09.14.1.19l.02.1c.07.3-.08.55-.3.77-.88.8-1.77,1.55-2.84,2.02-.43.21-.74.5-1.18.66s-.89.32-1.25.62c-.13.14-.33.19-.53.24-.51.12-.95.28-1.46.41-.3.07-.67.11-.99.13-.39-.07-.86,0-1.17-.41-.16-.23-.27-.47-.33-.72-.1-.4-.08-.78-.18-1.19-.12-.51-.26-1.06-.34-1.63-.06-.25,0-.48-.02-.75,0-.21.07-.39.02-.59-.17-.92-.09-1.69-.13-2.75-.06-.68.09-1.2-.05-1.75-.16-.66-.05-1.33-.15-1.94-.1-.62-.25-1.28-.2-1.93.05-.44-.05-.9-.16-1.35-.08-.57-.27-1.11-.15-1.73.05-.23-.02-.53-.08-.78-.12-.72-.28-1.38-.45-2.09-.11-.46-.16-.87-.11-1.36.02-.38-.03-.8-.12-1.15l-.79-3.29c-.2-.81-.39-1.62-.64-2.42-.04-.15-.12-.29-.16-.44-.02-.1,0-.21.03-.33s.05-.23.03-.33c-.05-.2-.2-.38-.24-.53-.02-.1.01-.16.04-.28l-.02-.1c-.06-.25.28-.39.22-.64l-.05-.2c-.09-.35,0-.69.25-.97.22-.21.5-.39.71-.6.48-.22,1.04-.36,1.55-.48l.91-.22c.82-.15,1.69-.35,2.5-.55.71-.17,1.42-.34,2.14-.25.16.01.27-.01.42-.05l.71-.17c.32-.02.71-.17,1-.08.4.12.82.07,1.23-.03.3-.07.6-.2.89-.32s.51-.34.8-.46l.1-.02c.2-.05.43,0,.59.23.11.46,0,.86-.18,1.27-.18.36-.56.56-.88.8-.1.02-.25.06-.37.03-.62-.12-1.31.15-1.94-.01-.23-.05-.53.02-.79.08-.77.13-1.53.32-2.3.5-.3.07-.67.11-1,.08-.16-.01-.32.02-.47.06l-.44.16c-.32.24-.66.37-1.07.47-.71.17-1.41.39-2.02.54-.32.24-.59.46-.82.63-.12.19-.13.35-.08.55.02.1.06.25.14.34.1.19.24.32.34.51.1.4.26.85.36,1.25.11.46.17.92.08,1.43-.01.16.03.37.08.57.21,1.07.42,2.2.68,3.26.07.3.21.65.28.95.09.35.13.77.06,1.16-.1.72.21,1.07.23,2.08,0,.21-.07.39-.02.59.07.3,0,.69.09,1.05.06.25.12.51.23.75.16.01.4.12.56.08l.1-.02.76-.4c1.02-.67,2.1-1.31,3.12-1.98.32-.24.67-.32,1.03-.41l.66-.16c.32-.02.66.27.74.62l.02.1c.03.37-.22.64-.58.73-.61.15-1.07.47-1.51.85l-1.11.75c-.78.56-1.61,1.14-2.56,1.42-.41.1-.71.39-1.07.9Z"/>
    <path class="st1" d="M116.34,41.89c-.66,0-1.26.06-1.86.06-.12,0-.3-.06-.42-.06-.06-.06-.12-.06-.18-.12-.48-.36-.72-.78-.48-1.32.36-.72.24-1.5.54-2.22.24-.66.18-1.32.24-1.98,0-.3,0-.66.12-.9.24-.6.3-1.14.3-1.74v-2.52c0-.24.06-.54.06-.78v-.36c0-.66,0-1.32.3-1.98.06-1.38.06-2.64.12-4.02v-1.86c0-.54.06-.96.24-1.5.18-.48.18-1.02.18-1.5,0-.42,0-.78-.06-1.2-.06-.3-.36-.54-.3-.84.12-.48.48-.78.84-1.02.54-.36,1.08-.3,1.56.3.06.06.06.12.12.24.06.36.12.72.12,1.08,0,.42-.06.9-.24,1.32-.18.36-.24.72-.24,1.08-.06,1.14.06,2.28-.36,3.36-.12.24,0,.6,0,.9-.06.78-.12,1.44-.18,2.22-.3.6-.3,1.26-.3,1.86v.54c0,.24-.06.42-.06.66.3.84.48,1.62.48,2.46,0,.6-.06,1.2-.24,1.8-.06.3-.18.54-.18.84-.06.6-.06,1.2-.12,1.8-.06.6-.24,1.2-.36,1.8v.18c.06.06.06.18.12.24.24.42.66.6,1.14.48.24-.06.42-.18.66-.24.42-.12.84-.12,1.44-.24.54-.24,1.2-.66,1.74-1.2.42-.42.96-.66,1.56-.84.42,0,.66.18.78.6-.24.18-.36.36-.6.54,0,.42-.12.78-.12,1.14-.18.48-.54.72-.84.96-.96.36-1.86.84-2.82,1.02-.9.18-1.68.6-2.7.96Z"/>
    <path class="st1" d="M130.92,49.42c-.12.06-.24.06-.36.06-.54,0-1.02-.3-1.08-.66-.06-.3-.12-.66-.12-.96,0-.42.12-.84.24-1.26.18-.54.24-1.02.24-1.56,0-1.2.48-2.34.66-3.54.06-.3.18-.42.18-.78,0-1.5.6-3,.6-4.5v-.48c.48-1.44.36-2.94.42-4.44,0-.6.06-1.2.24-1.8.12-.36.12-.72.12-1.08.06-2.04.12-4.02.12-6.06v-2.1c.06-1.56.12-2.52.18-4.08v-2.52c.24-.54.66-.78,1.2-.78h.3c.42.18.66.54.96.96.06.18.12.36.12.6v.66c-.18.36-.24.66-.24.96s-.06.66-.06,1.02c-.06.6,0,1.02-.06,1.5v1.2c0,.24-.12.42-.12.66v.54c0,.72-.18,1.44-.18,2.4,0,.18-.06.42-.06.66,0,.9-.3,1.56-.3,2.46v2.46c0,.54,0,.66-.06,1.26-.06.36-.12.9-.18,1.14-.18.54-.18,1.14-.18,1.68v.3c0,.48-.06.9-.06,1.38,0,.6-.24,1.2-.36,1.98-.06.6-.06.96-.12,1.56,0,.36,0,.72-.12,1.08-.24.6-.18,1.2-.24,1.8-.06.96-.3,1.74-.42,2.88-.06.72-.12,1.2-.12,1.8,0,.78,0,1.56-.06,2.28,0,.18-.42,1.14-1.08,1.32Z"/>
    <path class="st1" d="M156.35,33.22v-4.38c0-.78.06-1.38.06-2.04,0-.24-.06-.48-.06-.9v-1.32c0-.6.18-1.02.18-1.68,0-.48,0-.78-.06-1.2s-.06-.9-.06-1.32c0-.54.48-1.08,1.08-1.08h.18c.54,0,.96.12.96.72v2.58c0,.12.06.66.06.96v.18c-.06.24-.12.36-.12.48,0,.18.06.6.06,1.02,0,.72-.06,1.2-.06,1.86v4.02c0,.42.12.78.12,1.2,0,.18,0,.3-.06.48-.06.24-.12.48-.12.72,0,.3.06.6.06.96,0,.9,0,1.92-.06,2.82-.06.84,0,1.68-.3,2.52-.06.24-.12.48-.12.72v.36c-.06.84-.24,1.56-.42,2.52-.18,1.14-.36,1.92-.48,2.94-.12.9-.24,1.68-.42,2.76-.06.24-.12.36-.18.6-.3,1.32-.36,2.04-.66,3.36-.06.18-.06.24-.12.36-.24.36-.54.72-.9.96-.18.12-.36.12-.54.12h-.3c-.24-.12-.48-.3-.6-.6-.54-1.2-.6-2.16-.96-3.6v-.36c-.3-1.02-.54-1.62-.84-2.64v-.12c-.36-.9-.78-1.44-.96-2.22-.12-.54-.42-1.02-.66-1.56-.24-.54-.54-.96-.6-1.56-.06-.66-.42-1.2-.72-1.8-.24-.48-.3-1.02-.54-1.62-.12-.3-.12-.48-.24-.78-.36-1.02-.6-1.8-.9-2.64-.3-.84-.66-1.74-.84-2.64-.18-.78-.48-1.5-.54-2.28-.06-.66-1.02-2.52-1.02-2.52-.18.3-.24,1.56-.3,1.98-.06.48-.06.96-.06,1.38,0,.84.06,1.62.06,2.46,0,.3.06.66.06.96,0,.24,0,.48-.06.78v1.44c0,.72-.06,1.08-.06,1.8v.96c0,2.04.12,4.14.12,6.18,0,.48,0,1.02.18,1.5.12.3.12.66.12,1.02.06.72.06,1.44.12,2.16,0,.3.06.54.12.84.3,1.32.66,2.34,1.02,3.9.06.36.12.66.12.9,0,.72-.36,1.02-1.32,1.5-.12.06-.24.06-.36.06h-.24c-.24-.24-.36-.6-.54-.9-.06-.12-.06-.18-.06-.3v-.18c0-.84-.48-1.62-.48-2.46v-.24c0-.24,0-.42-.12-.6-.3-.54-.36-1.08-.36-1.68v-.84c-.06-.66-.06-1.26-.24-1.92-.12-.36-.12-.72-.12-1.08v-10.26c0-1.56,0-3.18.06-4.74,0-.3,0-.6.12-.84.12-.42.12-.84.12-1.26v-.54c0-.18,0-.36-.06-.54-.18-.72-.18-1.38-.18-2.1v-.3c0-.54,0-1.08.18-1.62.06-.24.12-.48.12-.78,0-.36-.06-.72-.18-1.08-.12-.24-.18-.54-.18-.78,0-.3.06-.6.18-.9.18-.54.24-1.14.36-1.62.18-.18.24-.3.36-.36.18-.12.36-.18.54-.18.36,0,.78.24.96.54.66,1.32,1.26,2.7,1.44,4.2,0,.3.06.6.18.84.36.9.6,1.68.96,2.82.48,1.56.84,2.7,1.2,4.08.18.78.36,1.5.6,2.28.18.66.36,1.14.54,1.92v.12c.3.78.48,1.2.84,1.98.06.06.06.12.12.18.6,1.32,1.02,2.16,1.44,3.3.24.6.48,1.2.78,1.8.24.54.48.96.6,1.56.06.48.48.96.54,1.38.24.06.36.06.48.06.36-.3.48-.66.66-1.14.06-.24,0-.36.06-.6.12-.72.24-1.2.36-1.92.06-.18.06-.24.06-.42v-.18c.18-1.38.48-2.4.48-3.6,0-.48.12-.84.24-1.26.06-.18.06-.36.06-.54s0-.36-.06-.54c-.12-.24-.18-.48-.18-.72,0-.18,0-.36.06-.54.18-.54.24-1.14.24-1.68Z"/>
    <path class="st1" d="M166.73,65.96h-2.69c-.93,0-1.68-.63-1.68-1.34,0-1.97.08-3.87.17-5.84,0-.28.08-.42.17-.7.08-.35.25-.7.34-1.06.17-.77,0-1.55.42-2.32.42-.7.34-1.55.67-2.32.25-.49.25-1.06.25-1.55,0-.42-.08-.85-.08-1.2-.34-.84-1.68-.77-1.77-1.55-.08-.49.17-.77.5-.99.5-.42,1.09-.77,1.77-1.2.25-.92.25-1.9.67-2.82.25-.49.17-.99.17-1.55.08-.63.08-1.2.34-1.83.25-.56.17-1.2.25-1.83.08-.84.08-1.76.51-2.6.17-.42.25-.85.25-1.27,0-.35-.08-.7-.08-1.06s-.25-.7-.42-.99c-.17-.21-.17-.49-.25-.77.84-.85,1.77-1.55,2.69-2.18.51-.14.93-.14,1.43-.14h1.77c1.09-.07,2.02-.49,3.11-.49.93,0,1.94-.07,2.78-.49,1.01-.07,2.02-.42,2.95-.56.76.28,1.09.7,1.18,1.27.08.49,0,.7-.5,1.2h-1.26c-.76,0-1.43.07-2.1.28-1.85.56-3.87.7-5.81,1.27-.59.14-1.26.07-1.85.14-.59.21-.93.56-1.18.99,0,.49-.08.99-.08,1.55,0,.42-.17.84-.42,1.27-.17.35-.25.7-.25,1.13,0,1.13-.67,2.11-.76,3.24,0,.28-.25.49-.42.77,0,.56,0,1.2-.08,1.83,0,.42-.08.85-.25,1.27-.25.49-.25.99-.25,1.48v.77c.25.7.76,1.13,1.43,1.41.59.21,1.26.21,1.85.21.42,0,.93.07,1.26-.07.76-.35,1.6-.35,2.44-.49.5-.07,1.01-.21,1.52-.35.59-.14,1.26-.28,1.85-.07.5.28.59.77.76,1.2-.17.14-.34.42-.59.56-.17.14-.42.14-.59.21-1.09.35-2.19.56-3.37.7-1.01.14-2.02.35-3.03.35h-.42c-.25,0-.42-.07-.67-.07-.76,0-1.35.07-2.02.07-.25.21-.42.28-.59.42-.17.14-.25.28-.42.49,0,.28-.08.63-.08.99,0,.7-.17,1.34-.42,2.04-.25.63-.08,1.48-.42,2.11-.51.92-.34,1.9-.51,3.1-.08.21-.34.56-.5.99-.08.21-.08.49-.08.7,0,.92.42,1.83.76,2.68.34.42.93.42,1.43.42.08,0,.08.07.17.07,1.35,0,2.61-.49,3.79-.85,1.09-.28,2.1-.77,3.28-.92,1.09-.14,2.19-.63,3.28-.92.76-.21,1.52.21,1.85.77.25.35,0,.92-.42,1.13-1.09.49-2.1,1.13-3.45,1.2-.17,0-.5,0-.67.07-.93.49-2.02.28-3.03.63-.59.21-1.18.28-2.1.42-.59.21-1.43.56-2.44.99Z"/>
  </g>
  <g>
    <path class="st0" d="M63.57,57.26c.02-.09,0-.21.05-.22-.05-.06-.1-.11-.15-.15.21.2.42.39.63.59.64.6,1.28,1.22,1.92,1.83.83-.68,1.72-1.41,2.64-2.25.04-.09.03-.14.03-.2.95-.74,1.95-1.53,2.96-2.32,1.76-1.57,3.52-3.14,5.27-4.71-.08,0-.13-.01.04-.18.71-.67,1.76-1.52,2.83-2.43.15-.14.3-.28.45-.42.1-.13.1-.19.1-.23.48-.41.91-.77,1.32-1.1.53-.49,1.05-.99,1.59-1.49l.41-.38c.06-.06.06-.07.1-.11l.19-.22.2.1.11.06s.01,0,.09.06l.21.15c.55.39,1.1.79,1.66,1.19,1.12.8,2.25,1.6,3.4,2.42,2.3,1.64,4.66,3.33,7.09,5.07,1.34.89,2.67,1.78,3.92,2.68,1.83,1.36,4.08,3.22,5.83,4.6.01-.57,4.44,2.58,3.87,1.55,1.16.92,2.91,2.3,3.09,2.27.51-.1,1.69.25,4.95,2.48,1.25.9,3.02,2.49,3.5,2.76.75.43-1.41-1.45-.66-1.02-8.96-7.15-17.78-13.8-26.89-20.89-.6-.42-1.82-1.32-3.44-2.54-1.95-1.49-4.38-3.35-7.05-5.39-3.43,3-7.29,6.39-10.85,9.51-1.6,1.39-3.13,2.72-4.5,3.92-.69.6-1.34,1.16-1.95,1.69-.12.11-.24.21-.36.3-.04.03-.07.06-.11.08l-.05-.05s-.06-.06.02.01l.08.07s.08.07,0,0c-.16-.14-.31-.28-.45-.41l-1.05-.93h0c-.29.07-.58.14-.88.21l-.45.11c-.14.04-.16.07-.29.12-.39.16-.89.36-1.6.62-.14.1-.3.17-.43.29l-.32.36-.37.41-.77.83c-.52.55-1.04,1.1-1.55,1.64-1.02,1.07-1.98,2.1-2.79,2.99-.93,1.08-1.9,2.2-2.86,3.31.53-.4,1.03-.78,1.48-1.13-1.07,1.03-2.14,2.05-2.49,2.51-2.14,2.33-.69,1.26.4.64.72-.51.02.46,1.1-.39-.72.68-1.07,1.02-1.79,1.71.01.17,2.15-2.17,1.8-1.53-.72.63-1.43,1.43-2.15,2.11.37-.11,2.51-2.33,2.53-2.1-.36.4-2.17,1.76-2.15,2.05,0,.06.72-.62,1.08-.97-2.15,2.16-3.22,3.47-1.05,1.72-.7.67-1.75,1.54-2.47,2.27h0c.38-.34,1.04-.94,1.39-1.25l-1.27,1.19c.09-.05.19-.1.28-.14.33-.28.66-.56.99-.88l-.84.79c.26-.15.55-.33.85-.53,1.09-.85,2.18-1.61,2.72-2.13,1.89-1.76,3.78-3.55,5.65-5.35l2.79-2.74,1.38-1.41.69-.72.32-.35h0s.02-.01.02-.01c0,0,.01,0,.01,0Z"/>
    <path class="st0" d="M115.1,51.09c-.03-.07-.24-.06,0-.23.4-.25.79-.4,1.19-.55.2-.08.4-.15.59-.24.1-.05.2-.09.3-.14.09-.05.24-.13.2-.12l-.05-.12s.08.02.1.05c.02.06.03.1.02.13,1.16.76,2.32,1.51,3.48,2.26,0-.06,0-.11.13-.04.5.3,1.14.79,1.82,1.27l.32.19c.09.03.14,0,.17,0,.3.22.57.42.83.6,3.52,2.07,7.14,4.21,11.04,6.5.86.44,1.71.88,2.5,1.35,1.15.73,2.54,1.78,3.63,2.54.09-.5,2.89,1.14,2.62.39.73.51,1.81,1.27,1.94,1.2.39-.21,1.21-.2,3.28.94.79.47,1.87,1.41,2.18,1.52.49.18-.83-.9-.34-.72-5.57-3.98-11.1-7.55-16.79-11.44-.83-.47-3.49-2.2-6.57-4.26-1.54-1.03-3.18-2.14-4.77-3.2-1.9-1.29-3.71-2.53-5.24-3.58-.99.51-1.89.97-2.68,1.38-.51.25-.94.47-1.29.64l-.32.18c-1.98,1-4.35,2.27-5.93,3.29-.68.49-1.42,1.01-2.14,1.53.39-.12.76-.22,1.09-.31-.79.4-1.58.8-1.85,1.03-1.58,1.04-.53.76.26.7.53-.12,0,.39.79.14-.53.27-.79.4-1.32.67,0,.15,1.58-.9,1.32-.52-.53.22-1.06.58-1.58.85.26.06,1.85-.88,1.84-.69-.26.18-1.58.55-1.58.8,0,.05.53-.22.79-.35-1.58.9-2.38,1.54-.79.99-.51.26-1.28.55-1.81.86h0c.27-.12.76-.35,1.01-.46l-.93.47h.2c.24-.1.48-.2.72-.32l-.62.31c.19-.02.39-.05.61-.09.79-.25,1.58-.43,1.98-.63,3.22-1.56,6.44-3.15,9.62-4.78Z"/>
    <path class="st0" d="M78.74,54.64c-.01-.08-.13-.14.02-.21.08-.06.08.01.1.06,0,.05,0,.08.02.05l.06-.12v.03s.12.09.12.09l.24.2c.16.13.33.27.49.4.87.47,1.74.94,2.63,1.43-.02-.07-.03-.12.1-.07.3.15.65.36,1.05.61.27-.2.57-.42.87-.64.1-.09.2-.17.29-.26.07-.09.07-.15.07-.18.3-.22.56-.41.83-.61.43-.43.87-.86,1.32-1.31.2-.21.5-.48.64-.64.06-.09.13-.2.22-.32.08-.12,1.5.16,2.58.34.54.03,1.08.07,1.58.16.22.05.59.16.94.27.59-.11,1.23-.23,1.74-.32-.21-.43,1.48-1.03,1.04-1.41.48-.1,1.2-.24,1.2-.37.03-.41.3-.93,1.51-1.44.48-.16,1.28-.17,1.44-.29.25-.18-.7-.13-.45-.31-1.17.21-2.32.45-3.47.71l-1.71.39-.86.2-.21.05-.11.03s0,0-.01,0h0s0,.01,0,.01l-.47-.13-.99-.28c-.66-.19-1.32-.38-1.99-.58-.07-.01-.15-.02-.24-.04-.05,0-.1-.02-.15-.03-.1-.02-.2-.05-.31-.08-.48-.13-1.06-.28-1.72-.46-.74.6-1.64,1.34-2.62,2.14-.35.28-.71.58-1.08.88l-.16.15-.17-.08c-.4-.23-.78-.45-1.14-.66-.96-.57-1.81-1.07-2.46-1.45-.46.09-.84.16-1.15.23l-.35.08c-1.2.23-2.64.57-3.62.95-.44.2-.88.43-1.33.66.23.03.45.06.64.1-.48.09-.96.18-1.13.3-.98.41-.35.51.1.74.31.08-.03.36.44.41-.32.06-.48.09-.8.15,0,.14.97-.27.79-.02-.32.02-.64.17-.96.23.15.15,1.12-.17,1.1.01-.16.08-.94-.04-.96.18,0,.05.32-.02.48-.05-.97.27-1.46.59-.52.63-.31.06-.77.06-1.09.16h0c.17-.02.46-.04.61-.07l-.56.11.12.07c.14,0,.29-.01.43-.04l-.37.07c.11.05.23.09.36.13.47.04.93.16,1.17.11,1.95-.31,3.9-.64,5.82-1.03Z"/>
    <path class="st0" d="M122.07,53.85c0,.06,0,.12-.01.16h0s-.04-.03-.03-.07c0-.02,0-.04,0-.05-.04-.04-.14-.1-.22-.13l-.07.07c-.21-.18-.47-.4-.7-.6-.5-.29-.97-.55-1.51-.85,0,.05,0,.08-.1.04-.26-.14-.58-.35-.93-.58-.19.04-.39.08-.58.12-.09.03-.18.06-.27.08-.07.04-.08.08-.09.1-.11.02-.21.04-.31.06l-.2.03c-.6.22-1.21.45-1.84.68-.31.12-.63.23-.95.35-.14.05-.37.13-.44.17l-.23.12c-.08-.01-.17-.04-.27-.06-.18-.07-.37-.15-.55-.22-.19-.06-.39-.12-.56-.17-.2-.07-.46-.18-.66-.27h-.02c-.18.03-.37.05-.56.07-.15.01-.31.02-.47.03-.31.02-.63.03-.89.05.11.34-1.18.63-.88.95-.36.03-.9.07-.91.17-.06.3-.3.66-1.23.93-.37.08-.95,0-1.08.08-.2.11.5.16.3.27.98-.05,1.95-.14,2.91-.23l1.44-.15c.43-.05,1.17-.12.96-.11h0s-.04-.03.08.04l.51.28c.51.29,1.02.57,1.53.86l.2-.05c.43-.12,1.21-.35,2.22-.63.43-.11.9-.24,1.39-.37.25-.06.5-.13.76-.19.17-.04.17-.04.18-.05l.05-.02.08.04c.18.11.36.22.54.33.35.22.69.43,1.01.62.82.52,1.51.95,1.94,1.22l.24.14.03.02c.39-.17.79-.35,1.2-.53.25-.12.5-.23.75-.35.43-.21.83-.44,1.15-.65.26-.21.56-.45.85-.68-.17.01-.34.02-.48.03.33-.14.66-.28.76-.39.64-.45.17-.43-.19-.52-.24,0-.04-.27-.38-.23.22-.09.33-.14.55-.23-.01-.1-.65.35-.57.13.23-.06.44-.22.66-.31-.13-.09-.78.29-.8.16.11-.08.69-.11.66-.28,0-.03-.23.06-.34.11.65-.35.96-.65.27-.54.22-.09.55-.16.76-.28h0c-.1.03-.33.11-.43.14l.39-.16-.09-.03c-.1.02-.21.05-.31.09l.26-.11c-.09-.02-.18-.03-.28-.04-.35.04-.7.03-.86.1-.69.27-1.36.54-2.03.8-.34.14-.67.28-1.01.41l-.25.11s-.01,0-.02,0h0Z"/>
  </g>
</svg>