<?xml version="1.0" encoding="UTF-8"?>
<svg xmlns="http://www.w3.org/2000/svg" width="10.36in" height="3.9in" version="1.1" viewBox="0 0 746.16 280.66">
  <!-- Generator: Adobe Illustrator 30.1.0, SVG Export Plug-In . SVG Version: 2.1.1 Build 136)  -->
  <defs>
    <style>
      .st0 {
        fill: none;
        stroke: #ee352a;
        stroke-miterlimit: 10;
        stroke-width: .5px;
      }

      .st1 {
        fill: #231f20;
      }
    </style>
  </defs>
  <g id="Layer_1">
    <g>
      <path class="st1" d="M65.36,138.81v11.13c0,4.17.1,6.89.29,8.18s.72,2.25,1.58,2.87,2.47.94,4.84.94h1.76v1.8h-24.26v-1.8h1.41c2.27,0,3.83-.29,4.71-.86.87-.57,1.43-1.46,1.66-2.68s.35-4.03.35-8.46v-25.98c0-4.22-.12-6.94-.35-8.16-.23-1.22-.76-2.07-1.56-2.54-.81-.47-2.55-.7-5.23-.7h-.98v-1.8l6.64-.23c5.31-.18,9.45-.27,12.42-.27,5.47,0,9.68.43,12.64,1.29,2.96.86,5.38,2.38,7.27,4.57,1.89,2.19,2.83,4.95,2.83,8.28,0,2.89-.64,5.44-1.93,7.66-1.29,2.21-3.14,3.89-5.55,5.04-2.41,1.15-6.65,1.72-12.71,1.72h-5.82ZM65.36,136.85h3.79c3.05,0,5.51-.31,7.38-.92,1.88-.61,3.44-1.89,4.69-3.85s1.88-4.36,1.88-7.23c0-4.38-1.07-7.58-3.22-9.63-2.15-2.04-5.63-3.07-10.45-3.07-1.77,0-3.12.05-4.06.16v24.53Z"/>
      <path class="st1" d="M120.24,142.56h-22.3c-.1,1.54-.16,2.68-.16,3.44,0,5.62.88,9.85,2.64,12.68,1.76,2.83,4.38,4.24,7.87,4.24,4.74,0,8.1-2.12,10.08-6.37h1.88c-.83,2.66-2.49,4.73-4.96,6.23-2.47,1.5-5.17,2.25-8.09,2.25-2.71,0-5.27-.68-7.68-2.05-2.41-1.37-4.38-3.3-5.92-5.8-1.54-2.5-2.3-5.53-2.3-9.1,0-5.05,1.48-9.25,4.45-12.6,2.97-3.35,6.68-5.02,11.13-5.02,4.19,0,7.43,1.28,9.73,3.83,2.29,2.55,3.5,5.31,3.63,8.28ZM113.41,140.99c.08-.6.12-1.13.12-1.6,0-2.29-.67-4.07-2.01-5.33-1.34-1.26-2.99-1.89-4.94-1.89-4.74,0-7.57,2.94-8.48,8.83h15.31Z"/>
      <path class="st1" d="M136.61,138.61c.88-2.32,2.32-4.26,4.32-5.82s3.94-2.34,5.84-2.34c1.72,0,3.07.53,4.06,1.6.99,1.07,1.48,2.16,1.48,3.28,0,.76-.25,1.41-.76,1.95s-1.13.82-1.86.82c-1.3,0-2.29-.96-2.97-2.89-.47-1.3-1.17-1.95-2.11-1.95-1.12,0-2.46.76-4.02,2.29s-2.57,3.11-3.01,4.75c-.44,1.64-.66,3.89-.66,6.76v5.7c0,3.41.04,5.56.14,6.45.09.89.46,1.56,1.11,2.03.65.47,1.81.7,3.48.7h1.09v1.8h-16.99v-1.8h.82c1.56,0,2.68-.21,3.34-.64s1.06-1.04,1.19-1.82c.13-.78.2-3.02.2-6.72v-9.02c0-3.44-.05-5.59-.14-6.46-.09-.87-.46-1.55-1.11-2.03-.65-.48-1.81-.72-3.48-.72h-.82v-1.76c2.45-.29,5.65-1.05,9.61-2.3.75,2.06,1.17,4.78,1.25,8.16Z"/>
      <path class="st1" d="M165.36,130.45v22.3c0,3.41.05,5.56.16,6.45.1.89.48,1.56,1.13,2.03.65.47,1.81.7,3.48.7h.82v1.8h-17.23v-1.8h1.33c1.85,0,3.05-.27,3.61-.8.56-.53.88-1.17.98-1.91.09-.74.14-2.9.14-6.46v-9.69c0-3.75-.18-6.04-.53-6.88-.35-.83-.82-1.35-1.41-1.56-.59-.21-1.61-.31-3.07-.31h-1.05v-1.8c4.63-.47,8.23-1.16,10.78-2.07h.86ZM157.82,114.12c0-1.12.4-2.08,1.19-2.89.79-.81,1.75-1.21,2.87-1.21s2.07.4,2.85,1.21c.78.81,1.17,1.77,1.17,2.89s-.39,2.12-1.17,2.93c-.78.81-1.73,1.21-2.85,1.21s-2.08-.4-2.87-1.21c-.79-.81-1.19-1.78-1.19-2.93Z"/>
      <path class="st1" d="M182.35,130.45h1.05c.44,1.46.66,3.22.66,5.27,1.67-1.77,3.46-3.09,5.37-3.96,1.91-.87,3.94-1.31,6.07-1.31,4.43,0,8.11,1.56,11.05,4.67,2.94,3.11,4.41,7.22,4.41,12.32s-1.48,9.18-4.43,12.54c-2.96,3.36-6.84,5.04-11.66,5.04-1.98,0-3.87-.4-5.68-1.19-1.81-.79-3.52-1.97-5.14-3.54v12.15c0,3.7.07,5.95.21,6.76.14.81.55,1.41,1.23,1.82.68.4,1.94.61,3.79.61v1.8h-16.72v-1.8h1.17c1.85,0,3.05-.27,3.61-.8.56-.53.88-1.17.98-1.91.09-.74.14-2.9.14-6.46v-29.06c0-3.41-.05-5.56-.14-6.45-.09-.88-.46-1.56-1.11-2.03-.65-.47-1.81-.7-3.48-.7h-1.17v-1.8c2.58-.26,5.83-.91,9.77-1.95ZM184.07,157.71c1.41,1.72,2.9,3.01,4.47,3.89,1.58.87,3.24,1.31,4.98,1.31,2.94,0,5.51-1.26,7.7-3.79,2.19-2.53,3.28-6.55,3.28-12.07,0-4.79-1.05-8.37-3.16-10.74-2.11-2.37-4.62-3.55-7.54-3.55-1.8,0-3.5.46-5.12,1.37-1.62.91-3.15,2.29-4.61,4.14v19.45Z"/>
      <path class="st1" d="M227.2,137.01c1.56-2.19,3.31-3.83,5.25-4.92,1.94-1.09,4.07-1.64,6.39-1.64,2.63,0,4.81.55,6.54,1.64,1.73,1.09,2.86,2.44,3.38,4.04.52,1.6.78,4.2.78,7.79v8.83c0,3.75.07,6.03.21,6.84.14.81.57,1.4,1.27,1.78.7.38,2,.57,3.91.57v1.8h-16.52v-1.8h.74c1.9,0,3.13-.27,3.69-.82.56-.55.88-1.19.98-1.93.09-.74.14-2.88.14-6.43v-9.61c0-2.66-.16-4.62-.47-5.9-.31-1.28-1.05-2.33-2.21-3.16-1.16-.83-2.61-1.25-4.36-1.25-2.03,0-3.85.59-5.47,1.78-1.62,1.19-3.03,2.96-4.26,5.33v12.81c0,3.59.06,5.81.18,6.64.12.83.51,1.46,1.19,1.89.68.43,1.91.64,3.71.64v1.8h-16.25v-1.8h.82c1.88,0,3.09-.27,3.65-.8.56-.53.88-1.17.98-1.91.09-.74.14-2.9.14-6.46v-31.88c0-3.23-.31-5.27-.92-6.13-.61-.86-2.08-1.29-4.39-1.29v-1.8c4.04,0,7.4-.55,10.08-1.64h.82v26.99Z"/>
      <path class="st1" d="M288.6,142.56h-22.3c-.1,1.54-.16,2.68-.16,3.44,0,5.62.88,9.85,2.64,12.68,1.76,2.83,4.38,4.24,7.87,4.24,4.74,0,8.1-2.12,10.08-6.37h1.88c-.83,2.66-2.49,4.73-4.96,6.23-2.47,1.5-5.17,2.25-8.09,2.25-2.71,0-5.27-.68-7.68-2.05-2.41-1.37-4.38-3.3-5.92-5.8-1.54-2.5-2.3-5.53-2.3-9.1,0-5.05,1.48-9.25,4.45-12.6,2.97-3.35,6.68-5.02,11.13-5.02,4.19,0,7.43,1.28,9.73,3.83,2.29,2.55,3.5,5.31,3.63,8.28ZM281.77,140.99c.08-.6.12-1.13.12-1.6,0-2.29-.67-4.07-2.01-5.33-1.34-1.26-2.99-1.89-4.94-1.89-4.74,0-7.57,2.94-8.48,8.83h15.31Z"/>
      <path class="st1" d="M304.97,138.61c.88-2.32,2.32-4.26,4.32-5.82s3.94-2.34,5.84-2.34c1.72,0,3.07.53,4.06,1.6.99,1.07,1.48,2.16,1.48,3.28,0,.76-.25,1.41-.76,1.95s-1.13.82-1.86.82c-1.3,0-2.29-.96-2.97-2.89-.47-1.3-1.17-1.95-2.11-1.95-1.12,0-2.46.76-4.02,2.29s-2.57,3.11-3.01,4.75c-.44,1.64-.66,3.89-.66,6.76v5.7c0,3.41.04,5.56.14,6.45.09.89.46,1.56,1.11,2.03.65.47,1.81.7,3.48.7h1.09v1.8h-16.99v-1.8h.82c1.56,0,2.68-.21,3.34-.64s1.06-1.04,1.19-1.82c.13-.78.2-3.02.2-6.72v-9.02c0-3.44-.05-5.59-.14-6.46-.09-.87-.46-1.55-1.11-2.03-.65-.48-1.81-.72-3.48-.72h-.82v-1.76c2.45-.29,5.65-1.05,9.61-2.3.75,2.06,1.17,4.78,1.25,8.16Z"/>
      <path class="st1" d="M342.35,157.67l7.42-17.77c1.07-2.6,1.6-4.05,1.6-4.34,0-1.3-1.45-1.98-4.34-2.03v-1.8h11.25v1.8c-1.75.08-3.02.54-3.83,1.39-.81.85-1.81,2.71-3.01,5.61l-14.26,34.41c-1.35,3.28-2.55,5.51-3.59,6.7-1.04,1.18-2.19,1.78-3.44,1.78-1.69,0-2.54-.77-2.54-2.3,0-1.77,1.35-3.27,4.06-4.49,1.59-.7,2.65-1.3,3.18-1.8.53-.5,1.06-1.39,1.58-2.7l3.05-7.62-12.03-25.78c-1.07-2.27-1.95-3.7-2.66-4.3-.7-.6-1.9-.9-3.59-.9v-1.8h14.69v1.8c-2.58.08-3.87.61-3.87,1.6,0,.39.51,1.67,1.52,3.83l8.79,18.71Z"/>
    </g>
    <g>
      <path class="st1" d="M397.98,114.13c0-2.64-1.6-4.4-4-4.4h-2.8c-.56,0-.8-.24-.8-1.04s.24-.96.8-.96h23.52c13.76,0,20.88,5.6,20.88,15.36,0,4.56-2.56,8.48-4.72,10.24-4,3.36-7.44,4-17.6,4h-6.48c-.72,0-.8.4-.8.96v19.84c0,2.24,1.52,3.6,4,3.6h3.2c.56,0,.8.24.8,1.04s-.24.96-.8.96h-23.52c-.56,0-.8-.32-.8-.96,0-.8.24-1.04.8-1.04h3.52c3.04,0,4.8-1.6,4.8-3.6v-44ZM405.98,133.65c0,1.04.24,1.28,1.04,1.28h5.44c10.72,0,15.28-4.8,15.28-11.28,0-8.56-4.8-13.92-14.64-13.92h-2.32c-3.04,0-4.8,1.76-4.8,4.4v19.52Z"/>
      <path class="st1" d="M443.9,142.21c-.88,0-1.12.24-1.28,1.36-.08.72-.08,1.44-.08,2.16,0,9.2,4.24,14.96,12.32,14.96,4.32,0,7.36-1.76,9.84-4.96.4-.56.56-.88.96-.88.32,0,.56.24.56.64,0,3.2-5.36,9.04-13.44,9.04-9.6,0-16-6.32-16-17.04,0-9.92,6.16-17.12,15.92-17.12,7.36,0,13.36,5.6,13.36,10.64,0,.88-.56,1.2-1.6,1.2h-20.56ZM443.9,138.45c-.08.32-.16.56-.16.8,0,.4.16.56.56.56h12.48c1.76,0,2.32-.24,2.32-1.6,0-2.72-2.48-6.24-7.04-6.24-3.44,0-6.48,2.64-8.16,6.48Z"/>
      <path class="st1" d="M477.42,139.09c0-1.6-.4-2.64-2.4-3.12-1.68-.4-2.48-.88-2.48-1.28,0-.56.32-.72,1.36-1.28l5.6-2.88c1.12-.56,1.52-.72,2.16-.72.56,0,.96.64.96,1.52v3.68c0,.56.16.72.32.72.24,0,.56-.32.8-.56,3.36-2.96,6.32-4.96,9.84-4.96,2.32,0,4.16,1.36,4.16,3.12,0,2-2.08,3.6-4.72,3.6-3.76,0-3.6-1.44-6.4-1.44-2.24,0-4,2.88-4,6.48v17.92c0,1.28.56,1.84,3.2,1.84h1.28c.56,0,.8.24.8,1.04s-.24.96-.8.96h-13.6c-.56,0-.8-.32-.8-.96,0-.8.24-1.04.8-1.04,2.96,0,3.92-.56,3.92-1.84v-20.8Z"/>
      <path class="st1" d="M507.9,139.09c0-2.16-.8-3.12-3.12-4.48-2.16-1.04-2.72-1.2-2.72-1.84,0-.56.64-1.04,1.76-1.28l5.76-1.28c1.2-.24,1.92-.4,2.56-.4.56,0,.96.4.96,1.28v28.8c0,1.28.56,1.84,3.2,1.84h2c.56,0,.8.24.8,1.04s-.24.96-.8.96h-16.72c-.56,0-.8-.32-.8-.96,0-.8.24-1.04.8-1.04h2.4c2.96,0,3.92-.56,3.92-1.84v-20.8ZM514.22,111.33c0,2.32-1.6,3.84-3.84,3.84-2.56,0-3.84-1.28-3.84-3.84,0-2.16,1.68-3.84,3.92-3.84,2.08,0,3.76,1.68,3.76,3.84Z"/>
      <path class="st1" d="M539.18,178.93c.56,0,.8.24.8,1.04s-.24.96-.8.96h-14.56c-.56,0-.8-.32-.8-.96,0-.8.24-1.04.8-1.04h1.28c2.96,0,3.92-.56,3.92-1.84v-38.32c0-1.2-.56-2.16-2-2.8-2.08-.88-2.56-.96-2.56-1.6s.56-.96,1.68-1.52l4.88-2.32c1.2-.56,1.92-1.2,2.56-1.2.4,0,1.04.32,1.04,1.2v3.28c.08.4.24.56.48.56s.56-.24.72-.4c3.36-2.4,5.44-3.44,9.68-3.44,7.76,0,14.08,7.12,14.08,15.84,0,9.6-7.52,17.36-16.8,17.36-3.04,0-5.12-.56-7.28-1.28-.16-.08-.32-.16-.56-.16-.32,0-.72.24-.72,1.04v13.76c0,1.28.56,1.84,3.2,1.84h.96ZM536.7,136.13c-.88.88-1.68,2.4-1.68,6.24v11.36c0,2,.48,3.6,1.68,4.8,2,2,4.88,2.96,7.6,2.96,6.48,0,9.44-6.48,9.44-13.76,0-8.48-4.64-14.32-11.52-14.32-1.92,0-3.84.96-5.52,2.72Z"/>
      <path class="st1" d="M593.66,143.33c0-5.36-3.76-9.76-8.32-9.76-2.24,0-4,.72-6.32,2.72-1.52,1.28-2.24,2.32-2.24,4.4v19.2c0,1.28.56,1.84,3.2,1.84h.64c.56,0,.8.24.8,1.04s-.24.96-.8.96h-13.76c-.56,0-.8-.32-.8-.96,0-.8.24-1.04.8-1.04h.8c2.96,0,3.92-.56,3.92-1.84v-43.28c0-3.6-.4-4-1.76-4.56-2.08-.88-2.72-1.2-2.72-1.84,0-.56.72-.88,1.76-1.28l4.48-1.68c1.12-.4,1.84-.72,2.48-.72.56,0,.96.4.96,1.28v26.4c0,.56.16.72.4.72s.56-.16.72-.32c3.52-2.72,7.12-4.08,10.72-4.08,5.68,0,10.24,5.52,10.24,12.4v16.96c0,1.28.56,1.84,3.2,1.84h.64c.56,0,.8.24.8,1.04s-.24.96-.8.96h-13.76c-.56,0-.8-.32-.8-.96,0-.8.24-1.04.8-1.04h.8c2.96,0,3.92-.56,3.92-1.84v-16.56Z"/>
      <path class="st1" d="M617.18,142.21c-.88,0-1.12.24-1.28,1.36-.08.72-.08,1.44-.08,2.16,0,9.2,4.24,14.96,12.32,14.96,4.32,0,7.36-1.76,9.84-4.96.4-.56.56-.88.96-.88.32,0,.56.24.56.64,0,3.2-5.36,9.04-13.44,9.04-9.6,0-16-6.32-16-17.04,0-9.92,6.16-17.12,15.92-17.12,7.36,0,13.36,5.6,13.36,10.64,0,.88-.56,1.2-1.6,1.2h-20.56ZM617.18,138.45c-.08.32-.16.56-.16.8,0,.4.16.56.56.56h12.48c1.76,0,2.32-.24,2.32-1.6,0-2.72-2.48-6.24-7.04-6.24-3.44,0-6.48,2.64-8.16,6.48Z"/>
      <path class="st1" d="M650.7,139.09c0-1.6-.4-2.64-2.4-3.12-1.68-.4-2.48-.88-2.48-1.28,0-.56.32-.72,1.36-1.28l5.6-2.88c1.12-.56,1.52-.72,2.16-.72.56,0,.96.64.96,1.52v3.68c0,.56.16.72.32.72.24,0,.56-.32.8-.56,3.36-2.96,6.32-4.96,9.84-4.96,2.32,0,4.16,1.36,4.16,3.12,0,2-2.08,3.6-4.72,3.6-3.76,0-3.6-1.44-6.4-1.44-2.24,0-4,2.88-4,6.48v17.92c0,1.28.56,1.84,3.2,1.84h1.28c.56,0,.8.24.8,1.04s-.24.96-.8.96h-13.6c-.56,0-.8-.32-.8-.96,0-.8.24-1.04.8-1.04,2.96,0,3.92-.56,3.92-1.84v-20.8Z"/>
      <path class="st1" d="M708.3,132.53c-1.68,0-3.2.72-4.48,4.16l-12.4,32.72c-2.72,7.12-6.8,11.92-12.32,11.92-1.92,0-3.2-.96-3.2-2.8,0-2.4,2.08-4.16,4.8-4.16,1.44,0,2.48.48,3.84.48,1.76,0,3.28-2.32,5.2-7.6.24-.64.4-1.36.4-2.08,0-1.04-.32-1.84-.56-2.4l-11.04-28.4c-.4-1.04-2.08-1.84-3.44-1.84h-.32c-.56,0-.8-.24-.8-1.04s.24-.96.8-.96h14.4c.56,0,.8.32.8.96,0,.8-.24,1.04-.8,1.04h-1.76c-1.6,0-2.48.48-2.48,1.6,0,.48.56,2.16,1.2,3.84l6.48,17.36c.24.72.4,1.2.8,1.2.48,0,.64-.64.88-1.12l5.84-15.6c.56-1.52,1.12-3.52,1.12-4.48,0-1.92-1.44-2.8-3.68-2.8h-1.76c-.56,0-.8-.24-.8-1.04s.24-.96.8-.96h13.92c.56,0,.8.32.8.96,0,.8-.24,1.04-.8,1.04h-1.44Z"/>
    </g>
  </g>
  <g id="lines">
    <line class="st0" x1="20.48" y1="131.74" x2="372.11" y2="131.74"/>
    <line class="st0" x1="377" y1="130.53" x2="725.68" y2="130.53"/>
    <line class="st0" x1="377" y1="107.67" x2="725.68" y2="107.67"/>
    <line class="st0" x1="377" y1="106.53" x2="725.68" y2="106.53"/>
    <line class="st0" x1="20.48" y1="110.02" x2="372.11" y2="110.02"/>
    <line class="st0" x1="20.48" y1="163.73" x2="372.11" y2="163.73"/>
    <line class="st0" x1="377" y1="163.73" x2="725.68" y2="163.73"/>
    <line class="st0" x1="22.26" y1="183.42" x2="373.89" y2="183.42"/>
    <line class="st0" x1="377" y1="181.33" x2="725.68" y2="181.33"/>
  </g>
</svg>