<?xml version="1.0" encoding="UTF-8"?>
<svg id="Layer_1" data-name="Layer 1" xmlns="http://www.w3.org/2000/svg" viewBox="0 0 142.55 143.78">
  <defs>
    <style>
      .cls-1, .cls-2 {
        fill: none;
      }

      .cls-3 {
        fill: #ee352a;
      }

      .cls-2 {
        stroke: #000;
        stroke-miterlimit: 10;
        stroke-width: .25px;
      }

      .cls-4 {
        fill: #86c6ed;
      }
    </style>
  </defs>
  <path class="cls-3" d="M85.55,92.96c-2.51-.61-4.62-1.69-6.33-3.23-1.73-1.59-2.6-3.06-2.6-4.39,0-.75.21-1.35.62-1.79s.88-.67,1.42-.67c1.17,0,1.95.86,2.32,2.57.68,2.81,2.2,4.71,4.57,5.7v-22.68c-5.65-2.53-8.47-6.39-8.47-11.57,0-2.58.76-4.84,2.29-6.79,1.52-1.9,3.59-3.26,6.19-4.08v-2.43h1.51v2.04c1.15-.21,2.37-.32,3.66-.32,1.01,0,2.11.11,3.3.32v-2.04h1.51v2.43c2.72.77,4.84,2.03,6.36,3.76,1.55,1.73,2.32,3.33,2.32,4.78,0,.75-.21,1.34-.63,1.78s-.88.65-1.37.65c-.7,0-1.24-.25-1.62-.74-.4-.54-.75-1.61-1.05-3.2-.49-2.6-1.83-4.34-4.01-5.2v19.41c6.49,2.67,9.74,6.91,9.74,12.73,0,2.72-.81,5.25-2.43,7.59-1.59,2.32-4.03,4-7.31,5.03v7.07h-1.51v-6.71c-1.52.33-2.95.49-4.29.49-.91,0-1.8-.07-2.67-.21v6.43h-1.51v-6.71ZM85.55,47.5c-3.52,1.66-5.27,4.31-5.27,7.95,0,3.26,1.76,5.77,5.27,7.52v-15.47ZM87.06,63.71l6.96,2.95v-19.48c-1.2-.3-2.44-.46-3.73-.46s-2.32.15-3.23.46v16.52ZM87.06,69.12v22.46c.91.23,1.93.35,3.06.35,1.41,0,2.71-.19,3.9-.56v-19.2l-6.96-3.06ZM95.54,90.67c4.12-1.8,6.19-4.9,6.19-9.28,0-3.89-2.06-6.74-6.19-8.54v17.82Z"/>
  <g>
    <line class="cls-2" x1="54.42" y1="36.23" x2="53.01" y2="41.69"/>
    <line class="cls-2" x1="51.66" y1="39.22" x2="53.01" y2="41.69"/>
    <line class="cls-2" x1="55.39" y1="40.35" x2="53.01" y2="41.69"/>
  </g>
  <g>
    <rect class="cls-1" x="30.55" y="40.89" width="38.58" height="66.66"/>
    <path class="cls-4" d="M47.33,93.23c0-.29-.22-.29-.29-.29-7.92-.58-13.97-5.26-13.97-10.95,0-2.95,1.58-5.26,3.67-5.26s3.89,1.87,3.89,4.25c0,1.8-.79,3.6-.79,4.25,0,2.95,3.1,5.54,7.2,5.98.29,0,.29-.14.29-.29v-20.02c0-.29-.29-.43-.43-.5-8.14-2.38-12.6-5.26-12.6-13.32,0-6.41,5.54-11.81,12.67-12.53.14,0,.36,0,.36-.29v-1.15c0-.58.29-.86,1.15-.86s1.01.29,1.01.86v1.08c0,.36.22.36.29.36,6.91.36,12.46,4.25,12.46,8.86,0,2.23-1.51,4.1-3.24,4.1-1.87,0-3.53-1.44-3.53-3.17,0-1.44.86-2.59.86-3.67,0-1.94-2.74-3.67-6.48-4.25-.14,0-.36,0-.36.36v17.14c0,.14.07.29.43.36,7.85,1.94,14.11,5.76,14.11,14.62,0,7.56-6.34,13.61-14.26,14.11-.07,0-.29.07-.29.36v5.26c0,.58-.36.86-1.01.86-.86,0-1.15-.29-1.15-.86v-5.4ZM47.11,63.49c.07,0,.22,0,.22-.14v-16.71c0-.36-.22-.36-.36-.36-4.82.22-8.57,3.53-8.57,7.49,0,5.47,1.8,7.63,8.71,9.72ZM49.99,71.49c-.29,0-.5,0-.5.36v19.01c0,.29.22.29.29.29,5.26-.5,9.43-4.1,9.43-8.35,0-5.62-2.52-8.71-9.22-11.3Z"/>
  </g>
  <circle class="cls-2" cx="78.77" cy="84.4" r="4.22"/>
  <circle class="cls-2" cx="36.85" cy="78.95" r="4.22"/>
  <g>
    <line class="cls-2" x1="96.58" y1="36.23" x2="95.18" y2="41.69"/>
    <line class="cls-2" x1="93.82" y1="39.22" x2="95.18" y2="41.69"/>
    <line class="cls-2" x1="97.55" y1="40.35" x2="95.18" y2="41.69"/>
  </g>
</svg>