<?xml version="1.0" encoding="UTF-8"?>
<svg id="Layer_1" xmlns="http://www.w3.org/2000/svg" width="2in" height="1.97in" version="1.1" viewBox="0 0 144 141.7">
  <!-- Generator: Adobe Illustrator 30.1.0, SVG Export Plug-In . SVG Version: 2.1.1 Build 136)  -->
  <defs>
    <style>
      .st0, .st1 {
        fill: none;
      }

      .st2 {
        fill: #ee352a;
      }

      .st3 {
        isolation: isolate;
      }

      .st4 {
        mix-blend-mode: multiply;
      }

      .st1 {
        stroke: #000;
        stroke-miterlimit: 10;
        stroke-width: .25px;
      }

      .st5 {
        fill: #86c6ed;
      }
    </style>
  </defs>
  <g class="st3">
    <g id="Layer_11" data-name="Layer_1">
      <g>
        <rect class="st0" x="22.11" y="26.23" width="54.93" height="66.87"/>
        <path class="st5" d="M25.35,69.07c-.42,0-.6-.12-.6-.72,0-.66.18-.78.6-.78h1.8c3,0,3.96-1.02,3.96-3.48v-32.04c0-2.46-1.08-3.48-4.08-3.48h-1.68c-.42,0-.6-.06-.6-.78,0-.6.18-.72.6-.72h19.68c14.58,0,24.48,8.58,24.48,20.16,0,12.42-9.24,21.84-26.82,21.84,0,0-17.34,0-17.34,0ZM43.35,28.27c-5.04,0-6.3,1.92-6.3,6v29.88c0,2.88.78,3.3,3.36,3.3,15.12,0,22.38-7.68,22.38-19.02,0-12.12-6.36-20.16-19.44-20.16Z"/>
      </g>
      <g class="st4">
        <rect class="st0" x="43.96" y="81.07" width="54.93" height="66.87"/>
        <path class="st5" d="M47.21,123.91c-.42,0-.6-.12-.6-.72,0-.66.18-.78.6-.78h1.8c3,0,3.96-1.02,3.96-3.48v-32.04c0-2.46-1.08-3.48-4.08-3.48h-1.68c-.42,0-.6-.06-.6-.78,0-.6.18-.72.6-.72h19.68c14.58,0,24.48,8.58,24.48,20.16,0,12.42-9.24,21.84-26.82,21.84h-17.34,0ZM65.2,83.11c-5.04,0-6.3,1.92-6.3,6v29.88c0,2.88.78,3.3,3.36,3.3,15.12,0,22.38-7.68,22.38-19.02,0-12.12-6.36-20.16-19.44-20.16Z"/>
      </g>
      <g>
        <rect class="st0" x="71.05" y="28.76" width="54.93" height="66.87"/>
        <path class="st2" d="M72.45,29.64l6.53-.32c5.45-.27,9.12-.41,11.02-.41,5.9,0,10.5.9,13.8,2.7,3.3,1.8,5.76,4.23,7.37,7.31s2.42,6.63,2.42,10.65c0,2.91-.44,5.57-1.32,7.98s-2.08,4.41-3.62,6.01-3.31,2.8-5.33,3.63-3.94,1.35-5.76,1.55-4.38.31-7.68.31h-17.61v-1.35h1.64c1.7,0,2.88-.21,3.53-.64s1.07-1.1,1.26-2.01.28-3.02.28-6.34v-19.16c0-3.16-.09-5.21-.28-6.14s-.58-1.56-1.17-1.9-1.9-.51-3.91-.51h-1.17v-1.35h0ZM84.7,30.46v26.54c0,3.93.07,6.46.22,7.59s.59,1.93,1.32,2.39,2.28.69,4.64.69c3.46,0,6.3-.47,8.53-1.42s4.09-2.81,5.58-5.6,2.24-6.33,2.24-10.65c0-3.36-.43-6.36-1.3-8.99s-2.11-4.78-3.74-6.43-3.42-2.77-5.39-3.37-4.5-.89-7.59-.89c-1.48,0-2.99.05-4.51.15h0Z"/>
      </g>
      <g class="st4">
        <rect class="st0" x="45.11" y="83.6" width="54.93" height="66.87"/>
        <path class="st2" d="M46.51,84.48l6.53-.32c5.45-.27,9.12-.41,11.02-.41,5.9,0,10.5.9,13.8,2.7s5.76,4.23,7.37,7.31,2.42,6.63,2.42,10.65c0,2.91-.44,5.57-1.32,7.98s-2.08,4.41-3.62,6.01-3.31,2.8-5.33,3.63-3.94,1.35-5.76,1.55-4.38.31-7.68.31h-17.61v-1.35h1.64c1.7,0,2.88-.21,3.53-.64s1.07-1.1,1.26-2.01.28-3.02.28-6.34v-19.16c0-3.16-.09-5.21-.28-6.14s-.58-1.56-1.17-1.9-1.9-.51-3.91-.51h-1.17v-1.35h0ZM58.76,85.3v26.54c0,3.93.07,6.46.22,7.59s.59,1.93,1.32,2.39,2.28.69,4.64.69c3.46,0,6.3-.47,8.53-1.42s4.09-2.81,5.58-5.6,2.24-6.33,2.24-10.65c0-3.36-.43-6.36-1.3-8.99s-2.11-4.78-3.74-6.43-3.42-2.77-5.39-3.37-4.5-.89-7.59-.89c-1.48,0-2.99.05-4.51.15h0Z"/>
      </g>
      <circle class="st1" cx="24.75" cy="28.41" r="2.85"/>
      <circle class="st1" cx="73.33" cy="30.36" r="2.85"/>
      <circle class="st1" cx="85.17" cy="31.23" r="1.95"/>
      <circle class="st1" cx="38.33" cy="29.98" r="1.95"/>
    </g>
  </g>
</svg>