<?xml version="1.0" encoding="UTF-8"?>
<svg id="Layer_1" xmlns="http://www.w3.org/2000/svg" width="1.48in" height="1.48in" version="1.1" viewBox="0 0 106.57 106.8">
  <!-- Generator: Adobe Illustrator 30.1.0, SVG Export Plug-In . SVG Version: 2.1.1 Build 136)  -->
  <defs>
    <style>
      .st0 {
        fill: #ee352a;
      }

      .st1 {
        fill: #231f20;
      }

      .st2 {
        isolation: isolate;
      }

      .st3 {
        fill: #86c6ed;
      }
    </style>
  </defs>
  <g id="Layer_11" data-name="Layer_1">
    <g class="st2">
      <g class="st2">
        <path class="st0" d="M51.88,71.02v-1.57c1.93-1.51,4.37-3.89,7.33-7.15,2.95-3.26,5.08-6.07,6.39-8.44,1.3-2.37,1.96-4.76,1.96-7.19,0-2.89-.66-5.02-1.98-6.39s-2.96-2.04-4.93-2.04-3.42.63-4.48,1.88c-1.06,1.25-1.59,2.59-1.59,4.01,0,1.62.69,2.91,2.06,3.86.51.36.76.63.76.81,0,.3-.29.72-.86,1.24-.58.52-1.05.79-1.42.79-.51,0-1.12-.51-1.84-1.54-.72-1.02-1.08-2.34-1.08-3.95,0-2.59,1.01-4.64,3.02-6.16,2.01-1.51,4.22-2.27,6.63-2.27,2.54,0,4.83.79,6.87,2.36,2.04,1.57,3.06,3.91,3.06,7.01,0,1.95-.46,3.8-1.37,5.55s-3.14,4.43-6.67,8.02c-3.53,3.6-6.37,6.3-8.52,8.11h16.15l-1.45,5.69h-1.19c0-.3.05-.61.15-.91.05-.17.08-.4.08-.69,0-.51-.11-.81-.33-.9-.22-.09-.81-.14-1.78-.14h-14.96Z"/>
      </g>
    </g>
    <path class="st1" d="M71.36,67.97l-1.45,5.69h-1.19c0-.3.05-.61.15-.91.05-.17.08-.4.08-.69,0-.51-.11-.81-.33-.9-.22-.09-.81-.14-1.78-.14,0,0,4.52-3.05,4.52-3.05Z"/>
  </g>
  <g id="Layer_2">
    <g class="st2">
      <g class="st2">
        <path class="st3" d="M25.24,47.06c-.36,0-.57-.26-.57-1.25,0-5.3,4.78-9.62,10.71-9.62,4.78,0,8.63,3.64,8.63,8.17,0,7.38-5.15,13.83-12.69,21.17-.42.42-.73.88-.73,1.3,0,.52.57.57,1.25.57h10.3c1.92,0,2.29-.31,2.91-1.66.21-.42.42-.47.62-.47s.36.05.36.62c0,.16-.05.62-.21,1.04l-1.25,3.22c-.21.52-.78.88-1.25.88h-17.94c-.31,0-.47-.16-.47-.52s.26-.73.83-1.3c9.83-10.09,14.46-13.68,14.46-21.84,0-4.47-3.17-8.06-7.12-8.06s-7.18,2.96-7.18,6.6c0,.68-.21,1.14-.68,1.14Z"/>
      </g>
    </g>
    <path class="st1" d="M42.14,67.39c1.92,0,2.29-.31,2.91-1.66.21-.42.42-.47.62-.47s.36.05.36.62c0,.16-.05.62-.21,1.04l-1.25,3.22c-.21.52-.78.88-1.25.88l-1.2-3.64h.02Z"/>
  </g>
</svg>