<?xml version="1.0" encoding="UTF-8"?>
<svg id="Layer_1" xmlns="http://www.w3.org/2000/svg" width="2in" height="1.97in" version="1.1" viewBox="0 0 144 141.7">
  <!-- Generator: Adobe Illustrator 30.1.0, SVG Export Plug-In . SVG Version: 2.1.1 Build 136)  -->
  <defs>
    <style>
      .st0 {
        fill: #ee352a;
      }

      .st1 {
        fill: #86c6ed;
      }

      .st2 {
        fill: #1a1a1a;
      }
    </style>
  </defs>
  <path class="st1" d="M50.93,92.56c-5.04-3.18-10.92-6.78-13.26-8.1-.72-.42-1.38-.66-2.28-.96-8.34-2.82-14.4-11.28-14.4-21.18,0-11.58,9.54-21,21.36-21s21.18,9.54,21.18,21.24c0,10.2-6.96,18.48-16.14,21.24-.36.12-.54.3-.54.54,0,.12.18.24.54.48,5.4,3.6,14.22,9,17.58,9,1.62,0,2.46-.36,2.94-.36.24,0,.48.24.48.6,0,.48-.96,1.86-3.24,2.88-.9.42-1.74.48-2.7.48-3.9,0-6.66-1.8-11.52-4.86ZM27.95,63.46c0,10.8,6.78,19.62,15.12,19.62,7.5,0,13.56-9.42,13.56-21s-6.6-19.38-15.42-19.38c-7.68,0-13.26,8.16-13.26,20.76Z"/>
  <path class="st0" d="M94.7,84.51c-.92.1-1.9.15-2.96.15-6.39,0-11.6-1.9-15.63-5.7s-6.05-8.85-6.05-15.16,2.05-11.03,6.14-14.75,9.21-5.58,15.37-5.58c3.79,0,7.45.83,10.99,2.48s6.21,4.09,8.03,7.32,2.72,6.81,2.72,10.74c0,4.57-1.19,8.61-3.56,12.13s-5.81,5.98-10.3,7.38l-8.76,4.83c.61-.06,1.13-.09,1.58-.09,4.34,0,9.33.98,14.97,2.93,4.34,1.5,7.77,2.26,10.31,2.26,3.52,0,5.61-1.33,6.27-3.98h1.23c-.33,2.7-1.46,4.88-3.37,6.56s-4.38,2.52-7.41,2.52c-1.99,0-3.8-.32-5.43-.97s-3.75-1.8-6.37-3.46c-4.69-2.99-8.59-4.48-11.72-4.48-1.88,0-3.69.74-5.45,2.23-1.17.98-1.98,1.46-2.43,1.46-.7,0-1.05-.32-1.05-.97,0-.49.42-.99,1.26-1.51s2.42-1.34,4.75-2.48c.49-.23.98-.49,1.46-.76l5.42-3.11h0ZM76.77,64c0,6.39,1.27,11.18,3.82,14.38s6.37,4.8,11.47,4.8c4.47,0,8.01-1.6,10.61-4.8s3.9-7.98,3.9-14.33-1.28-10.9-3.84-14.19-6.27-4.94-11.13-4.94-8.45,1.61-11,4.82-3.82,7.96-3.82,14.25h-.01Z"/>
  <path class="st2" d="M99.45,83.51l-8.76,4.83c.61-.06,1.13-.09,1.58-.09,4.34,0,9.33.98,14.97,2.93,4.34,1.5,7.77,2.26,10.31,2.26,3.52,0,5.61-1.33,6.27-3.98h1.23c-.33,2.7-1.46,4.88-3.37,6.56s-4.38,2.52-7.41,2.52c-1.99,0-3.8-.32-5.43-.97s-3.75-1.8-6.37-3.46c-4.69-2.99-8.59-4.48-11.72-4.48-1.88,0-3.69.74-5.45,2.23-1.17.98-1.98,1.46-2.43,1.46-.7,0-1.05-.32-1.05-.97,0-.49.42-.99,1.26-1.51s2.42-1.34,4.75-2.48c.49-.23.98-.49,1.46-.76l5.42-3.11h-.09"/>
  <path class="st2" d="M29.21,75.04c-.23-.13-.44-.25-.63-.36-.47-.27-.92-.47-1.42-.66M47.39,83.8c-.36.12-.54.3-.54.54,0,.12.18.24.54.48,5.4,3.6,14.22,9,17.58,9,1.62,0,2.46-.36,2.94-.36.24,0,.48.24.48.6,0,.48-.96,1.86-3.24,2.88-.9.42-1.74.48-2.7.48-3.9,0-6.66-1.8-11.52-4.86-4.64-2.92-9.98-6.2-12.63-7.74M38.3,74.02l.73-.24s-.05.02-.07.02"/>
</svg>