<?xml version="1.0" encoding="UTF-8"?>
<svg id="Layer_1" xmlns="http://www.w3.org/2000/svg" width="1.48in" height="1.48in" version="1.1" viewBox="0 0 106.57 106.8">
  <!-- Generator: Adobe Illustrator 30.1.0, SVG Export Plug-In . SVG Version: 2.1.1 Build 136)  -->
  <defs>
    <style>
      .st0 {
        fill: #ee352a;
      }

      .st1 {
        isolation: isolate;
      }

      .st2 {
        fill: none;
        stroke: #231f20;
        stroke-miterlimit: 10;
        stroke-width: .25px;
      }

      .st3 {
        fill: #86c6ed;
      }
    </style>
  </defs>
  <g id="Layer_11" data-name="Layer_1">
    <g class="st1">
      <g class="st1">
        <path class="st0" d="M67.55,49.48c0,2.62-.66,4.78-1.98,6.47-1.29,1.69-2.92,2.54-4.9,2.54s-3.72-.87-5-2.62c-1.27-1.74-1.9-3.88-1.9-6.4s.64-4.68,1.93-6.42c1.29-1.74,2.95-2.62,4.98-2.62s3.62.85,4.93,2.56c1.3,1.71,1.96,3.87,1.96,6.47ZM64.25,49.48c0-5.4-1.19-8.1-3.58-8.1s-3.61,2.7-3.61,8.1,1.2,8.1,3.61,8.1,3.58-2.7,3.58-8.1ZM66.36,75.51h-1.55l17.67-33.26h1.55l-17.67,33.26ZM94.98,67.28c0,2.56-.64,4.71-1.93,6.45-1.29,1.74-2.94,2.62-4.95,2.62s-3.7-.88-5-2.64c-1.27-1.74-1.9-3.88-1.9-6.42s.64-4.68,1.93-6.42c1.3-1.76,2.96-2.64,4.98-2.64s3.6.85,4.9,2.56c1.32,1.71,1.98,3.88,1.98,6.5ZM91.68,67.26c0-5.4-1.19-8.1-3.58-8.1s-3.61,2.7-3.61,8.1,1.2,8.1,3.61,8.1,3.58-2.7,3.58-8.1Z"/>
      </g>
    </g>
  </g>
  <g class="st1">
    <g class="st1">
      <path class="st3" d="M20.38,61.26c-4.11,0-7.33-4.78-7.33-10.87,0-5.72,3.43-10.56,7.59-10.56,3.8,0,7.12,4.89,7.12,10.4,0,6.4-3.38,11.02-7.38,11.02ZM24.7,50.71c0-6.03-.99-9.93-4.06-9.93s-4.52,3.48-4.52,10.24,1.35,9.41,4.32,9.41c2.81,0,4.26-2.91,4.26-9.72ZM42.54,40.77c.16-.21.26-.31.47-.31.16,0,.36.1.57.26.31.21.42.36.42.52,0,.1-.05.26-.16.42l-24.08,34.22c-.16.21-.31.31-.47.31s-.31-.1-.52-.21c-.31-.21-.47-.42-.47-.62,0-.1.05-.21.16-.36l24.08-34.22ZM41.81,75.82c-4.11,0-7.33-4.78-7.33-10.87,0-5.72,3.43-10.56,7.59-10.56,3.8,0,7.12,4.89,7.12,10.4,0,6.4-3.38,11.02-7.38,11.02ZM46.12,65.27c0-6.03-.99-9.93-4.06-9.93s-4.52,3.48-4.52,10.24,1.35,9.41,4.32,9.41c2.81,0,4.26-2.91,4.26-9.72Z"/>
    </g>
  </g>
  <circle class="st2" cx="43.58" cy="40.4" r="1.59"/>
  <circle class="st2" cx="83.3" cy="41.99" r="1.59"/>
  <circle class="st2" cx="38.97" cy="55.97" r="1.45"/>
  <circle class="st2" cx="57.87" cy="41.99" r="1.41"/>
</svg>