<?xml version="1.0" encoding="UTF-8"?>
<svg id="Layer_1" xmlns="http://www.w3.org/2000/svg" width="1.45in" height="1.54in" version="1.1" viewBox="0 0 104.24 110.62">
  <!-- Generator: Adobe Illustrator 30.1.0, SVG Export Plug-In . SVG Version: 2.1.1 Build 136)  -->
  <defs>
    <style>
      .st0 {
        fill: #ee352a;
      }

      .st1 {
        isolation: isolate;
      }

      .st2 {
        fill: none;
        stroke: #231f20;
        stroke-miterlimit: 10;
        stroke-width: .25px;
      }

      .st3 {
        fill: #86c6ed;
      }
    </style>
  </defs>
  <g id="Layer_11" data-name="Layer_1">
    <g class="st1">
      <g class="st1">
        <path class="st0" d="M69.68,62.41h.94c-.15,2.89-1.57,4.34-4.27,4.34-1.15,0-2.06-.3-2.73-.91-.67-.61-1.1-1.51-1.31-2.72-1.69,1.2-3.24,2.11-4.63,2.72s-2.65.91-3.75.91c-1.41,0-2.62-.41-3.63-1.22s-1.52-1.89-1.52-3.22c0-1.74.85-3.27,2.55-4.57,1.7-1.3,4.05-2.57,7.05-3.81l3.94-1.6v-1.02c0-1.44-.09-2.48-.28-3.12-.19-.64-.67-1.22-1.45-1.73-.78-.51-1.8-.76-3.07-.76-2.54,0-3.95.85-4.24,2.54-.27,1.73-.98,2.59-2.13,2.59-1.03,0-1.55-.49-1.55-1.47s.69-2,2.06-3.11c1.37-1.11,3.5-1.66,6.4-1.66,2.15,0,3.82.34,5,1.02,1.18.68,1.97,1.45,2.35,2.31s.57,2.18.57,3.96v8.4c0,1.96.1,3.22.3,3.78s.64.84,1.32.84c1.12,0,1.81-.83,2.08-2.49ZM62.32,53.52l-2.77,1.12c-4.37,1.78-6.55,4.01-6.55,6.7,0,1.07.28,1.93.84,2.58s1.29.98,2.18.98c.79,0,1.72-.26,2.77-.79,1.05-.52,2.23-1.31,3.53-2.36v-8.23Z"/>
      </g>
    </g>
  </g>
  <g id="Layer_2">
    <g class="st1">
      <g class="st1">
        <path class="st3" d="M37.9,64.24c-.1-.31-.26-.47-.36-.47s-.47.16-.83.47c-2.08,1.66-3.9,2.55-6.14,2.55s-3.9-2.08-3.9-4.52c0-2.91,1.66-4.47,6.34-6.24,1.09-.42,2.34-.83,3.74-1.25.62-.21.88-.42.94-.99.1-.88.21-2.29.21-3.69,0-2.44-1.87-4.26-3.95-4.26-2.18,0-3.38,1.46-3.64,3.85-.16,1.35-.99,2.24-2.34,2.34-.94,0-1.56-.47-1.56-1.3,0-3.38,5.25-6.4,9.93-6.4,2.6,0,4.73,2.5,4.73,5.62,0,1.98-.1,3.9-.1,10.09,0,2.55.26,3.9,2.13,3.9.68,0,1.35-.21,1.98-1.51.1-.16.36-.21.47-.21.21,0,.36.16.36.47,0,.62-.47,1.46-.83,1.92-.83,1.09-2.44,1.98-3.8,1.98s-2.91-1.04-3.38-2.34ZM33.43,64.03c1.25,0,2.08-.42,2.86-.88.88-.57,1.4-1.09,1.4-1.98,0-1.3-.05-2.29-.05-4.06,0-.88-.31-1.15-.99-1.15-.36,0-.73.1-1.4.36-2.86,1.14-4.73,2.6-4.73,4.84,0,1.72,1.3,2.86,2.91,2.86Z"/>
      </g>
    </g>
    <circle class="st2" cx="45.53" cy="62.56" r="1.25"/>
    <circle class="st2" cx="69.98" cy="62.56" r="1.25"/>
    <circle class="st2" cx="62.18" cy="53.02" r="1.25"/>
    <circle class="st2" cx="37.11" cy="55.23" r="1.25"/>
  </g>
</svg>