<?xml version="1.0" encoding="UTF-8"?>
<svg id="Layer_1" xmlns="http://www.w3.org/2000/svg" width="1.48in" height="1.48in" version="1.1" viewBox="0 0 106.57 106.8">
  <!-- Generator: Adobe Illustrator 30.1.0, SVG Export Plug-In . SVG Version: 2.1.1 Build 136)  -->
  <defs>
    <style>
      .st0 {
        fill: #ee352a;
      }

      .st1 {
        fill: #fff;
        stroke: #000;
        stroke-dasharray: 2;
        stroke-width: .5px;
      }

      .st1, .st2 {
        stroke-miterlimit: 10;
      }

      .st3 {
        isolation: isolate;
      }

      .st2 {
        fill: none;
        stroke: #231f20;
        stroke-width: .25px;
      }

      .st4 {
        fill: #86c6ed;
      }
    </style>
  </defs>
  <g id="Layer_11" data-name="Layer_1">
    <g class="st3">
      <g class="st3">
        <path class="st0" d="M71.94,56.72c2.23.19,4.21,1.08,5.92,2.68s2.56,3.66,2.56,6.18c0,2.91-1.04,5.19-3.12,6.83s-4.61,2.46-7.59,2.46-5.59-.88-7.62-2.63-3.05-3.94-3.05-6.56c0-2.27.73-4.21,2.18-5.81s3.47-2.66,6.04-3.15c-2.08-.52-3.79-1.54-5.12-3.05s-1.99-3.28-1.99-5.31c0-2.49.91-4.52,2.72-6.08s4.09-2.35,6.83-2.35c2.54,0,4.79.77,6.74,2.3s2.93,3.58,2.93,6.13c0,2.03-.62,3.78-1.87,5.26s-3.1,2.5-5.57,3.1ZM63.26,65.36c0,1.91.18,3.42.53,4.53s1.04,2.03,2.04,2.75,2.26,1.09,3.75,1.09c1.9,0,3.47-.54,4.72-1.62s1.88-3.23,1.88-6.45-.63-5.42-1.88-6.58-2.86-1.73-4.82-1.73c-2.08,0-3.64.71-4.67,2.15s-1.55,3.38-1.55,5.85ZM64.15,47.86c0,2.76.44,4.83,1.33,6.21s2.22,2.07,4,2.07c1.95,0,3.4-.66,4.37-1.97s1.45-3.27,1.45-5.88c0-2.37-.5-4.17-1.51-5.41s-2.4-1.85-4.18-1.85c-1.57,0-2.88.56-3.91,1.69s-1.55,2.84-1.55,5.14Z"/>
      </g>
    </g>
  </g>
  <g class="st3">
    <g class="st3">
      <path class="st4" d="M41.61,57.87c.21-.16.42-.26.42-.52,0-.21-.26-.26-.62-.52-3.43-2.34-5.25-5.1-5.25-8.63,0-4.63,4.11-9.05,8.89-9.05,4.42,0,8.32,3.38,8.32,7.9,0,3.02-1.51,5.67-5.04,7.96-.31.21-.52.26-.52.42.05.21.21.26.52.47,3.38,2.08,5.56,5.88,5.56,9,0,5.36-4.06,9.98-9.2,9.98s-8.89-3.59-9-8.42c0-4.11,2.65-6.24,5.93-8.58ZM50.76,66.97c0-3.9-1.4-5.77-6.6-8.63-.21-.1-.42-.16-.57-.16-.21,0-.42.05-.68.31-2.7,2.55-4.16,4.68-4.16,8.48s2.7,6.71,6.08,6.71c3.28-.05,5.93-3.07,5.93-6.71ZM39.06,46.12c0,3.8,2.81,6.4,6.6,8.37.47.21.57.31.88.31.16,0,.31-.05.42-.16,2.5-2.34,3.43-5.1,3.43-8.27s-2.65-5.98-5.88-5.98c-3.02,0-5.46,2.55-5.46,5.72Z"/>
    </g>
  </g>
  <circle class="st2" cx="48.55" cy="55.49" r="1.61"/>
  <circle class="st2" cx="66.41" cy="56.73" r="1.62"/>
  <line class="st1" x1="42.88" y1="36.94" x2="46.94" y2="57.64"/>
  <line class="st1" x1="42.88" y1="55.49" x2="46.94" y2="76.19"/>
  <line class="st1" x1="69.32" y1="36.94" x2="69.32" y2="77.85"/>
</svg>