<?xml version="1.0" encoding="UTF-8"?>
<svg xmlns="http://www.w3.org/2000/svg" width="2in" height="2in" version="1.1" viewBox="0 0 144 144">
  <!-- Generator: Adobe Illustrator 30.1.0, SVG Export Plug-In . SVG Version: 2.1.1 Build 136)  -->
  <defs>
    <style>
      .st0, .st1 {
        fill: none;
      }

      .st2 {
        fill: #ee352a;
      }

      .st3 {
        isolation: isolate;
      }

      .st4 {
        mix-blend-mode: multiply;
      }

      .st1 {
        stroke: #000;
        stroke-miterlimit: 10;
        stroke-width: .25px;
      }

      .st5 {
        fill: #86c6ed;
      }
    </style>
  </defs>
  <g class="st3">
    <g id="Layer_1">
      <g class="st4">
        <rect class="st0" x="67.45" y="37.53" width="34.74" height="72.11"/>
        <path class="st2" d="M96.2,66.81h-20.07c-.09,1.38-.14,2.41-.14,3.09,0,5.06.79,8.87,2.37,11.41s3.94,3.81,7.08,3.81c4.27,0,7.29-1.91,9.07-5.73h1.69c-.75,2.39-2.24,4.26-4.46,5.61s-4.65,2.02-7.28,2.02c-2.44,0-4.74-.62-6.91-1.85s-3.94-2.97-5.33-5.22-2.07-4.98-2.07-8.19c0-4.55,1.34-8.33,4.01-11.34,2.67-3.01,6.01-4.52,10.02-4.52,3.77,0,6.69,1.15,8.75,3.45s3.15,4.78,3.27,7.45h0ZM90.05,65.4c.07-.54.11-1.02.11-1.44,0-2.06-.6-3.66-1.81-4.8s-2.69-1.71-4.45-1.71c-4.27,0-6.81,2.65-7.63,7.95,0,0,13.78,0,13.78,0Z"/>
      </g>
      <g class="st4">
        <rect class="st0" x="31.47" y="34.5" width="34.21" height="73.38"/>
        <path class="st5" d="M40.4,66.53c-.79,0-1.01.22-1.15,1.22-.07.65-.07,1.3-.07,1.94,0,8.28,3.82,13.46,11.09,13.46,3.89,0,6.62-1.58,8.86-4.46.36-.5.5-.79.86-.79.29,0,.5.22.5.58,0,2.88-4.82,8.14-12.1,8.14-8.64,0-14.4-5.69-14.4-15.34,0-8.93,5.54-15.41,14.33-15.41,6.62,0,12.02,5.04,12.02,9.58,0,.79-.5,1.08-1.44,1.08h-18.51.01ZM40.4,63.15c-.07.29-.14.5-.14.72,0,.36.14.5.5.5h11.23c1.58,0,2.09-.22,2.09-1.44,0-2.45-2.23-5.62-6.34-5.62-3.1,0-5.83,2.38-7.34,5.83h0Z"/>
      </g>
      <circle class="st1" cx="89.17" cy="64.34" r="2.19"/>
      <circle class="st1" cx="52.74" cy="63.82" r="2.19"/>
      <circle class="st1" cx="60.01" cy="65.62" r="2.31"/>
      <circle class="st1" cx="95.57" cy="66.53" r="2.31"/>
      <circle class="st1" cx="94.93" cy="79.78" r="2.31"/>
      <circle class="st1" cx="60.01" cy="78.14" r="2.31"/>
    </g>
  </g>
</svg>