<?xml version="1.0" encoding="UTF-8"?>
<svg id="Layer_1" xmlns="http://www.w3.org/2000/svg" width="1.48in" height="1.48in" version="1.1" viewBox="0 0 106.57 106.8">
  <!-- Generator: Adobe Illustrator 30.1.0, SVG Export Plug-In . SVG Version: 2.1.1 Build 136)  -->
  <defs>
    <style>
      .st0 {
        fill: #ee352a;
      }

      .st1 {
        isolation: isolate;
      }

      .st2 {
        fill: none;
        stroke: #231f20;
        stroke-miterlimit: 10;
        stroke-width: .25px;
      }

      .st3 {
        fill: #86c6ed;
      }
    </style>
  </defs>
  <g id="Layer_11" data-name="Layer_1">
    <g class="st1">
      <g class="st1">
        <path class="st0" d="M67,68.2h-12.49v-1.52l14.5-21.13h1.62v21.13h2.34c1.44,0,2.29-.08,2.56-.25s.64-.89,1.12-2.16h1.12l-.58,3.94h-6.55v4.32c0,2.45.05,3.94.14,4.46s.37.9.83,1.14,1.3.37,2.54.37v1.17h-11.1v-1.17h.89c1.02,0,1.74-.14,2.17-.42s.69-.67.77-1.18.13-1.96.13-4.37v-4.32ZM67,66.68v-16.12l-11.07,16.12h11.07Z"/>
      </g>
    </g>
  </g>
  <g class="st1">
    <g class="st1">
      <path class="st3" d="M43.55,67.76c-.36,0-.47.16-.47.57v10.5c0,.52-.16.62-.52.62h-2.86c-.36,0-.52-.21-.52-.62v-10.5c0-.47-.16-.57-.52-.57h-10.5c-.62,0-1.09-.26-1.09-.68,0-.52.36-.88.73-1.4l13.68-20.18c.36-.36.57-.62.99-.62.36,0,.62.26.62.83v18.46c0,.31.1.47.42.47h5.98c.52,0,.62.16.62.52v2.08c0,.36-.21.52-.62.52h-5.93ZM31.13,64.64h7.59c.31,0,.47-.1.47-.42v-11.29c0-.31-.05-.68-.36-.68-.16,0-.36.1-.62.47l-7.44,10.87c-.16.21-.31.42-.31.68,0,.21.21.36.68.36Z"/>
    </g>
  </g>
  <circle class="st2" cx="77.26" cy="64.13" r="1.85"/>
  <circle class="st2" cx="50.11" cy="64.57" r="1.65"/>
  <circle class="st2" cx="54.51" cy="67.76" r="1.63"/>
  <circle class="st2" cx="26.99" cy="67.35" r="1.67"/>
  <circle class="st2" cx="38.77" cy="52.73" r="1.25"/>
  <circle class="st2" cx="67.36" cy="51.03" r="1.25"/>
</svg>