<?xml version="1.0" encoding="UTF-8"?>
<svg id="Layer_1" xmlns="http://www.w3.org/2000/svg" width="2in" height="2in" version="1.1" viewBox="0 0 144 143.78">
  <!-- Generator: Adobe Illustrator 30.1.0, SVG Export Plug-In . SVG Version: 2.1.1 Build 136)  -->
  <defs>
    <style>
      .st0 {
        fill: none;
      }

      .st1 {
        fill: #ee352a;
      }

      .st2 {
        isolation: isolate;
      }

      .st3 {
        mix-blend-mode: multiply;
      }

      .st4 {
        fill: #86c6ed;
      }
    </style>
  </defs>
  <g class="st2">
    <g id="Layer_11" data-name="Layer_1">
      <g class="st3">
        <rect class="st0" x="53.03" y="34.96" width="37.93" height="58.05"/>
        <path class="st1" d="M55.71,68.85c0-4.41,1.48-8.09,4.43-11.06s6.59-4.45,10.9-4.45,7.98,1.49,10.93,4.46,4.43,6.66,4.43,11.04c0,4.85-1.5,8.67-4.5,11.44s-6.62,4.17-10.86,4.17-7.86-1.41-10.85-4.24-4.48-6.62-4.48-11.37h0ZM61.54,69.02c0,5.11.83,8.69,2.5,10.74,1.66,2.05,4,3.08,7,3.08s5.42-1.03,7.05-3.08,2.44-5.63,2.44-10.74-.81-8.67-2.43-10.83-3.97-3.23-7.07-3.23-5.42,1.07-7.05,3.22c-1.63,2.14-2.44,5.76-2.44,10.85h0Z"/>
      </g>
      <g class="st3">
        <rect class="st0" x="53.15" y="31.9" width="35.76" height="58.85"/>
        <path class="st4" d="M71.58,53.28c8.14,0,14.76,6.84,14.76,15.26s-7.13,15.48-15.84,15.48c-8.21,0-14.83-6.91-14.83-15.48,0-9.29,6.62-15.26,15.91-15.26ZM70.64,54.72c-5.54,0-9.22,5.04-9.22,14.4,0,7.71,3.46,13.47,9.79,13.47,5.18,0,9.36-6.05,9.36-13.97,0-8.71-3.46-13.9-9.94-13.9h.01Z"/>
      </g>
    </g>
  </g>
</svg>