<?xml version="1.0" encoding="UTF-8"?>
<svg xmlns="http://www.w3.org/2000/svg" width="2in" height="2in" version="1.1" viewBox="0 0 144 144">
  <!-- Generator: Adobe Illustrator 30.1.0, SVG Export Plug-In . SVG Version: 2.1.1 Build 136)  -->
  <defs>
    <style>
      .st0, .st1 {
        fill: none;
      }

      .st2 {
        fill: #ee352a;
      }

      .st3 {
        isolation: isolate;
      }

      .st4 {
        mix-blend-mode: multiply;
      }

      .st1 {
        stroke: #000;
        stroke-miterlimit: 10;
        stroke-width: .25px;
      }

      .st5 {
        fill: #86c6ed;
      }
    </style>
  </defs>
  <g class="st3">
    <g id="Layer_1">
      <g class="st4">
        <rect class="st0" x="69.71" y="44.97" width="32.67" height="51"/>
        <path class="st2" d="M75.48,86.22h-1.14v-32.11c0-2.34-.06-3.86-.19-4.54-.13-.68-.45-1.19-.97-1.52-.52-.33-1.42-.5-2.71-.5v-1.35c1.15,0,2.54-.14,4.16-.41s2.72-.55,3.31-.82h.62v18.98c1.37-1.23,2.75-2.15,4.16-2.75,1.41-.6,2.83-.91,4.28-.91,3.46,0,6.29,1.2,8.5,3.6,2.21,2.4,3.31,5.47,3.31,9.2s-1.13,6.88-3.4,9.38c-2.27,2.5-5.21,3.75-8.82,3.75-1.78,0-3.33-.37-4.67-1.11s-2.46-1.85-3.35-3.31c-1.27,1.27-2.3,2.74-3.08,4.42h0ZM78.56,65.69v9.4c0,2.42.16,4.17.48,5.23.32,1.07,1.1,2.08,2.33,3.06,1.23.98,2.67,1.46,4.31,1.46,2.52,0,4.53-1.04,6.02-3.11s2.24-5.05,2.24-8.94c0-3.57-.7-6.29-2.09-8.16-1.4-1.86-3.26-2.8-5.58-2.8-1.33,0-2.63.32-3.91.95-1.28.63-2.54,1.6-3.79,2.89v.02Z"/>
      </g>
      <circle class="st1" cx="70.47" cy="46.93" r="2.85"/>
      <circle class="st1" cx="78.15" cy="83.37" r="2.85"/>
      <circle class="st1" cx="78.15" cy="44.97" r="2.19"/>
      <circle class="st1" cx="78.81" cy="63.65" r="2.19"/>
      <g class="st4">
        <rect class="st0" x="33.68" y="42.4" width="37.47" height="55"/>
        <path class="st5" d="M43.88,42.94v18.72c.06.3.18.42.36.42s.36-.06.54-.18c2.52-1.26,4.14-1.56,7.14-1.56,7.62,0,12.48,4.86,12.48,12.42s-5.16,13.32-14.1,13.32c-2.28,0-5.04-.72-6.54-1.92-.12-.06-.24-.12-.42-.12-.72,0-1.98,1.98-2.82,1.98-.54,0-.6-.24-.6-1.14,0-.6.06-1.26.06-2.7v-33.6c0-.9-.42-1.26-1.56-1.68-1.62-.54-2.04-.84-2.04-1.14,0-.42.36-.54,1.14-.96l4.2-2.1c.84-.42,1.2-.66,1.68-.66.3,0,.36.24.48.9ZM44.78,64.06c-.54.42-.9,1.62-.9,3.36v11.04c0,1.32.66,2.82,1.26,3.6,1.5,1.98,3.66,2.58,5.7,2.58,5.82,0,8.58-4.26,8.58-10.08,0-6.66-3.06-12.42-8.94-12.42-3,0-4.14.6-5.7,1.92Z"/>
      </g>
      <circle class="st1" cx="43.35" cy="83.37" r="2.85"/>
      <circle class="st1" cx="37.16" cy="45.85" r="2.85"/>
      <circle class="st1" cx="44.01" cy="61.46" r="2.19"/>
      <circle class="st1" cx="43.35" cy="42.04" r="2.19"/>
    </g>
  </g>
</svg>