<?xml version="1.0" encoding="UTF-8"?>
<svg id="Layer_1" xmlns="http://www.w3.org/2000/svg" width="1.98in" height="1.97in" version="1.1" viewBox="0 0 142.55 141.7">
  <!-- Generator: Adobe Illustrator 30.1.0, SVG Export Plug-In . SVG Version: 2.1.1 Build 136)  -->
  <defs>
    <style>
      .st0, .st1 {
        fill: none;
      }

      .st2 {
        fill: #ee352a;
      }

      .st1 {
        stroke: #000;
        stroke-miterlimit: 10;
        stroke-width: .25px;
      }

      .st3 {
        fill: #86c6ed;
      }
    </style>
  </defs>
  <g>
    <rect class="st0" x="19.47" y="45.77" width="55.03" height="70"/>
    <path class="st3" d="M61.65,46.61c.42,0,.6.24.6.72,0,.6-.18.78-.6.78h-1.14c-2.58,0-5.82,2.64-8.7,6.72l-6.84,9.78c-.36.48-.48.84-.48,1.2s.12.66.42,1.08l11.34,17.52c.96,1.5,2.22,2.7,3.66,2.7h1.92c.42,0,.6.18.6.78s-.18.72-.6.72h-15.84c-.42,0-.6-.24-.6-.72,0-.6.18-.78.6-.78,2.52,0,3.96-.6,3.96-1.8,0-.6-.42-1.68-.9-2.4l-7.5-11.52c-.24-.36-.48-.54-.72-.54s-.48.18-.66.48l-6.06,8.58c-1.5,2.16-2.34,3.9-2.34,4.98,0,1.32,1.02,2.22,3.72,2.22h.9c.42,0,.6.18.6.78s-.18.72-.6.72h-14.4c-.42,0-.6-.12-.6-.72s.18-.78.6-.78h2.7c3.36-.6,4.74-3.24,7.26-6.84l7.44-10.56c.24-.3.3-.54.3-.78,0-.3-.12-.54-.36-.96l-11.1-17.16c-1.08-1.68-2.46-2.7-4.26-2.7h-1.68c-.42,0-.6-.18-.6-.78s.18-.72.6-.72h17.64c.42,0,.6.24.6.72,0,.6-.18.78-.6.78h-1.56c-2.58,0-3.84.6-3.84,1.8,0,.6.42,1.68.9,2.4l6.96,10.8c.36.6.54.84.78.84s.48-.3.84-.78l5.64-7.98c1.5-2.1,2.58-3.78,2.58-4.86,0-1.5-.78-2.22-2.52-2.22h-.9c-.42,0-.6-.18-.6-.78s.18-.72.6-.72h12.84Z"/>
  </g>
  <g>
    <rect class="st0" x="66.5" y="48.36" width="55.03" height="70"/>
    <path class="st2" d="M91.37,66.61l10.28,12.51c3.67,4.45,6.01,6.93,7,7.43s2.29.75,3.9.75v1.35h-19.69v-1.35c1.97,0,3.35-.18,4.15-.54s1.19-.96,1.19-1.8c0-.51-.18-1.06-.54-1.66s-1.29-1.81-2.8-3.65l-7.09-8.73-6.24,7.56c-1.46,1.78-2.42,3.03-2.87,3.75s-.67,1.41-.67,2.05c0,1.99,1.52,3,4.57,3.02v1.35h-15.38v-1.35c1.66-.1,3.16-.46,4.5-1.1s2.57-1.52,3.71-2.65,2.74-3.03,4.83-5.68l6.65-8-10.46-12.57-3.37-4.04c-.66-.86-1.44-1.57-2.33-2.14s-2.07-.85-3.53-.85v-1.35h16.93v1.35h-.56c-2.23,0-3.34.61-3.34,1.82,0,.49.17,1.01.51,1.55s1.14,1.56,2.39,3.05l7.29,8.85,6.59-8.26c1.41-1.74,2.26-2.85,2.56-3.33s.45-.96.45-1.45c0-.82-.39-1.4-1.17-1.73s-2.11-.5-3.98-.5v-1.35h14.91v1.35c-2.54,0-4.67.75-6.4,2.24s-3.64,3.56-5.73,6.2l-6.27,7.91h0Z"/>
  </g>
  <circle class="st1" cx="95.02" cy="49.46" r="2.85"/>
  <circle class="st1" cx="61.2" cy="88.17" r="2.85"/>
  <circle class="st1" cx="111.33" cy="88.17" r="2.85"/>
  <circle class="st1" cx="48.72" cy="47.54" r="2.85"/>
</svg>