<?xml version="1.0" encoding="UTF-8"?>
<svg id="Layer_1" xmlns="http://www.w3.org/2000/svg" width="2in" height="1.97in" version="1.1" viewBox="0 0 144 141.7">
  <!-- Generator: Adobe Illustrator 30.1.0, SVG Export Plug-In . SVG Version: 2.1.1 Build 136)  -->
  <defs>
    <style>
      .st0, .st1 {
        fill: none;
      }

      .st2 {
        fill: #ee352a;
      }

      .st1 {
        stroke: #000;
        stroke-miterlimit: 10;
        stroke-width: .25px;
      }

      .st3 {
        fill: #86c6ed;
      }
    </style>
  </defs>
  <g>
    <rect class="st0" x="31.42" y="47.42" width="41.38" height="64.57"/>
    <path class="st3" d="M54.96,49.29c1.73.86,2.09.94,2.38.94,1.22,0,1.22-.79,2.09-.79.58,0,.94.29,1.08,1.08l2.02,11.38c0,.22.07.36.07.5,0,.65-.43.79-.72.79-.72,0-1.22-.79-1.8-3.02-1.44-5.69-6.48-10.3-11.16-10.3s-8.86,3.6-8.86,8.06c0,6.05,2.95,9.5,12.1,11.81,7.49,1.87,13.18,5.69,13.18,14.47s-6.41,15.34-14.33,15.34c-3.31,0-6.62-.65-9.94-2.81-1.15-.79-1.73-1.66-2.16-1.66-.36,0-1.66.58-2.52,1.01-.29.07-.58.22-.72.22-.58,0-.79-.58-.79-2.16,0-1.94,0-7.06-.22-12.17,0-.65.22-.79.86-.79.36,0,.65.14.79.79,1.66,6.34,5.9,15.77,14.26,15.77,5.54,0,10.01-4.32,10.01-9.72,0-6.55-2.45-9.43-12.17-12.46-8.14-2.52-12.38-7.2-12.38-14.33s6.34-13.18,14.11-13.18c1.51,0,3.17.36,4.82,1.22h0Z"/>
  </g>
  <g>
    <rect class="st0" x="70.37" y="50.45" width="42.56" height="63.4"/>
    <path class="st2" d="M74.52,98.3v-15.33h1.76c1.99,9.98,6.71,14.98,14.17,14.98,3.35,0,5.95-.96,7.79-2.87s2.76-4.05,2.76-6.42-.81-4.39-2.43-6.01c-1.62-1.59-4.57-3.3-8.86-5.13-3.82-1.64-6.7-3.08-8.65-4.31s-3.46-2.83-4.55-4.8-1.63-4.07-1.63-6.29c0-3.4,1.18-6.23,3.53-8.49s5.34-3.39,8.95-3.39c2.02,0,3.91.33,5.7.98s3.61,2.02,5.48,4.08c1.08-1.29,1.69-2.68,1.83-4.18h1.55v12.48h-1.55c-.89-3.63-2.47-6.49-4.73-8.58s-4.88-3.13-7.86-3.13-4.92.77-6.24,2.3-1.99,3.22-1.99,5.04c0,2.2.83,4.07,2.5,5.59,1.64,1.55,4.61,3.28,8.89,5.2,4.1,1.83,7.08,3.3,8.95,4.41s3.36,2.65,4.48,4.62,1.69,4.24,1.69,6.82c0,4.08-1.36,7.39-4.08,9.95s-6.35,3.83-10.9,3.83c-5.23,0-9.59-2-13.08-6.01-.77,1.1-1.35,2.65-1.72,4.64h-1.76v.02Z"/>
  </g>
  <circle class="st1" cx="100.98" cy="51.53" r="2.31"/>
  <circle class="st1" cx="100.98" cy="63.55" r="2.31"/>
  <circle class="st1" cx="59.63" cy="49.73" r="2.31"/>
  <circle class="st1" cx="75.36" cy="97.9" r="2.31"/>
  <circle class="st1" cx="61.42" cy="62.25" r="2.31"/>
  <circle class="st1" cx="35.62" cy="95.59" r="2.31"/>
</svg>