<?xml version="1.0" encoding="UTF-8"?>
<svg id="Layer_1" xmlns="http://www.w3.org/2000/svg" width="1.48in" height="1.48in" version="1.1" viewBox="0 0 106.57 106.8">
  <!-- Generator: Adobe Illustrator 30.1.0, SVG Export Plug-In . SVG Version: 2.1.1 Build 136)  -->
  <defs>
    <style>
      .st0 {
        fill: #ee352a;
      }

      .st1 {
        isolation: isolate;
      }

      .st2 {
        fill: none;
        stroke: #231f20;
        stroke-miterlimit: 10;
        stroke-width: .25px;
      }

      .st3 {
        fill: #86c6ed;
      }
    </style>
  </defs>
  <g id="Layer_11" data-name="Layer_1">
    <g class="st1">
      <g class="st1">
        <path class="st0" d="M88.17,35.16l-2.97,10.13c-1.57,5.38-2.36,8.58-2.36,9.6,0,.51.17.96.51,1.37s.81.61,1.42.61c1.37,0,2.92-.68,4.66-2.04,1.74-1.36,3.18-3.4,4.34-6.11s1.74-5.52,1.74-8.43c0-4.5-1.53-8.23-4.58-11.18s-7.01-4.43-11.87-4.43c-4.05,0-7.69,1.05-10.93,3.15s-5.86,5.04-7.86,8.81-3,7.89-3,12.34c0,5.92,1.87,10.77,5.6,14.54,3.73,3.77,8.44,5.65,14.13,5.65,3.4,0,6.53-.66,9.37-1.97,2.84-1.31,5.16-3.03,6.94-5.17s3.2-4.44,4.25-6.91h1.47c-1.44,4.62-4.21,8.38-8.3,11.26-4.1,2.89-8.64,4.33-13.63,4.33-6.38,0-11.68-2.14-15.89-6.41-4.21-4.27-6.32-9.6-6.32-15.98,0-7.04,2.34-12.96,7.01-17.75s10.44-7.19,17.29-7.19c5.33,0,9.64,1.64,12.92,4.93s4.93,7.46,4.93,12.52c0,4.72-1.34,8.88-4.02,12.48-2.68,3.6-6,5.4-9.94,5.4-1.3,0-2.29-.3-2.95-.89-.66-.59-.99-1.47-.99-2.64,0-.98.15-2.21.46-3.68-3.89,4.82-7.23,7.24-10,7.24-1.42,0-2.54-.61-3.36-1.84-.82-1.23-1.23-2.6-1.23-4.13,0-2.17.66-4.64,1.99-7.41s3.17-5.19,5.54-7.25,4.53-3.08,6.51-3.08c1.17,0,2.11.29,2.83.88s1.21,1.46,1.49,2.63l.84-2.79,3.99-.56ZM79.26,36.2c-2.22,0-4.48,2-6.79,6s-3.47,7.26-3.47,9.76c0,.96.27,1.82.8,2.56.53.74,1.25,1.12,2.15,1.12,1.61,0,3.36-1.03,5.27-3.09,1.9-2.06,3.25-4.33,4.04-6.82s1.18-4.43,1.18-5.81c0-1.05-.28-1.93-.84-2.65s-1.34-1.08-2.34-1.08Z"/>
      </g>
    </g>
    <circle class="st2" cx="83.46" cy="36.6" r="1.25"/>
  </g>
  <g id="Layer_2">
    <g class="st1">
      <g class="st1">
        <path class="st3" d="M25.89,70.66c-8.37,0-15.13-7.12-15.13-15.81,0-10.82,8.53-19.08,20.28-19.08,8.22,0,14.92,6.34,14.92,14.14,0,7.23-5.98,13.05-13.26,13.05-.99,0-1.51-.78-1.51-1.77,0-1.2.52-2.7.78-3.33.26-.57.36-1.09.36-1.3,0-.1-.1-.16-.21-.16-.26,0-.42.1-.78.57-1.98,2.86-4.63,5.2-7.59,5.2-2.13,0-3.59-1.46-3.59-3.85,0-2.7,2.08-6.92,4.78-9.93,2.7-3.02,6.4-5.3,9.1-5.3.99,0,1.35.36,1.72.73.21.16.47.16.57.16.16,0,.47-.16.83-.36.42-.16.99-.31,1.25-.31.31,0,.62.16.62.62,0,.21-.16.52-.42,1.4-1.46,3.69-2.86,8.06-4.11,12.38-.1.47-.26.94-.26,1.3,0,.62.42,1.51,1.2,1.51,4.78,0,8.68-4.84,8.68-10.76,0-7.12-6.45-12.95-14.25-12.95-8.94,0-15.18,8.01-15.18,18.51,0,7.8,5.62,14.2,12.53,14.2,3.02,0,6.92-.88,9.31-2.6.26-.16.47-.21.73-.21.16,0,.31.16.36.31,0,.26-.21.36-.57.62-2.5,1.98-6.08,3.02-11.18,3.02ZM26.52,49.55c-1.46,2.13-2.86,5.82-2.86,8.11,0,1.09.73,2.76,2.08,2.76s2.5-1.09,4.26-3.22c1.82-2.13,2.81-3.95,3.9-6.86.62-1.56.78-3.02.78-3.69,0-1.46-1.04-2.03-2.34-2.03-1.51,0-3.85,2.08-5.82,4.94Z"/>
      </g>
    </g>
    <circle class="st2" cx="31.75" cy="56.62" r="1.25"/>
    <circle class="st2" cx="79.51" cy="52.04" r="1.25"/>
    <circle class="st2" cx="36.49" cy="43.9" r="1.25"/>
    <circle class="st2" cx="98.16" cy="55.16" r="1.25"/>
    <circle class="st2" cx="37.17" cy="67.17" r="1.25"/>
  </g>
</svg>