<?xml version="1.0" encoding="UTF-8"?>
<svg id="Layer_1" xmlns="http://www.w3.org/2000/svg" width="2in" height="2in" version="1.1" viewBox="0 0 144 143.78">
  <!-- Generator: Adobe Illustrator 30.1.0, SVG Export Plug-In . SVG Version: 2.1.1 Build 136)  -->
  <defs>
    <style>
      .st0, .st1 {
        fill: none;
      }

      .st2 {
        fill: #ee352a;
      }

      .st1 {
        stroke: #000;
        stroke-miterlimit: 10;
        stroke-width: .25px;
      }

      .st3 {
        fill: #86c6ed;
      }
    </style>
  </defs>
  <g>
    <rect class="st0" x="27.58" y="36.54" width="47.63" height="75.24"/>
    <path class="st3" d="M43.49,101.63c.5,0,.72.22.72.94s-.22.86-.72.86h-13.1c-.5,0-.72-.29-.72-.86,0-.72.22-.94.72-.94h1.15c2.67,0,3.53-.5,3.53-1.66v-34.49c0-1.08-.5-1.94-1.8-2.52-1.87-.79-2.3-.86-2.3-1.44s.5-.86,1.51-1.37l4.39-2.09c1.08-.5,1.73-1.08,2.3-1.08.36,0,.94.29.94,1.08v2.95c.07.36.22.5.43.5s.5-.22.65-.36c3.02-2.16,4.9-3.1,8.71-3.1,6.98,0,12.67,6.41,12.67,14.26,0,8.64-6.77,15.62-15.12,15.62-2.74,0-4.61-.5-6.55-1.15-.14-.07-.29-.14-.5-.14-.29,0-.65.22-.65.94v12.39c0,1.15.5,1.66,2.88,1.66,0,0,.86,0,.86,0ZM41.26,63.11c-.79.79-1.51,2.16-1.51,5.62v10.22c0,1.8.43,3.24,1.51,4.32,1.8,1.8,4.39,2.66,6.84,2.66,5.83,0,8.5-5.83,8.5-12.38,0-7.63-4.18-12.89-10.37-12.89-1.73,0-3.46.86-4.97,2.45h0Z"/>
  </g>
  <g>
    <rect class="st0" x="70.4" y="39.62" width="47.63" height="75.24"/>
    <path class="st2" d="M79.3,58.01h.95c.4,1.31.6,2.89.6,4.75,1.5-1.59,3.11-2.78,4.83-3.57s3.54-1.18,5.47-1.18c3.98,0,7.3,1.4,9.95,4.2,2.65,2.8,3.97,6.5,3.97,11.09s-1.33,8.26-3.99,11.29-6.16,4.54-10.49,4.54c-1.78,0-3.49-.36-5.12-1.07s-3.17-1.78-4.62-3.18v10.93c0,3.33.06,5.36.19,6.08s.5,1.27,1.11,1.63,1.75.54,3.41.54v1.62h-15.05v-1.62h1.05c1.66,0,2.75-.24,3.25-.72s.8-1.05.88-1.72.12-2.61.12-5.82v-26.16c0-3.07-.04-5-.12-5.8s-.42-1.41-1-1.83-1.63-.63-3.13-.63h-1.05v-1.62c2.32-.23,5.25-.82,8.79-1.76h0ZM80.84,82.55c1.27,1.55,2.61,2.71,4.03,3.5s2.91,1.18,4.48,1.18c2.65,0,4.96-1.14,6.93-3.41s2.95-5.89,2.95-10.86c0-4.31-.95-7.54-2.85-9.67s-4.16-3.2-6.79-3.2c-1.62,0-3.15.41-4.61,1.23s-2.84,2.06-4.15,3.73v17.51h.01Z"/>
  </g>
  <circle class="st1" cx="80.07" cy="58.55" r="2.31"/>
  <circle class="st1" cx="31.51" cy="61.61" r="2.31"/>
  <circle class="st1" cx="39.07" cy="56.99" r="2.31"/>
  <circle class="st1" cx="81.11" cy="83.96" r="2.31"/>
  <circle class="st1" cx="43.14" cy="102.61" r="2.31"/>
  <circle class="st1" cx="84.69" cy="104.92" r="2.31"/>
  <circle class="st1" cx="40.83" cy="85.65" r="2.31"/>
  <circle class="st1" cx="71.25" cy="60.41" r="2.31"/>
</svg>