<?xml version="1.0" encoding="UTF-8"?>
<svg id="Layer_1" xmlns="http://www.w3.org/2000/svg" width="1.48in" height="1.48in" version="1.1" viewBox="0 0 106.57 106.8">
  <!-- Generator: Adobe Illustrator 30.1.0, SVG Export Plug-In . SVG Version: 2.1.1 Build 136)  -->
  <defs>
    <style>
      .st0 {
        fill: #ee352a;
      }

      .st1 {
        isolation: isolate;
      }

      .st2 {
        fill: none;
        stroke: #231f20;
        stroke-miterlimit: 10;
        stroke-width: .25px;
      }

      .st3 {
        fill: #86c6ed;
      }
    </style>
  </defs>
  <g id="Layer_11" data-name="Layer_1">
    <g class="st1">
      <g class="st1">
        <path class="st0" d="M63.18,66.18h-1.14v-10.66h1.14c.69,1.29,1.61,1.93,2.74,1.93,1.32,0,2.31-.65,2.96-1.94.65-1.29.98-3.23.98-5.8,0-2.4-.53-4.15-1.57-5.24-1.05-1.09-2.25-1.64-3.61-1.64-1.64,0-2.85.83-3.63,2.49-.39.86-.93,1.29-1.62,1.29-.81,0-1.22-.42-1.22-1.27,0-.93.67-1.77,2.01-2.51,1.34-.75,2.89-1.12,4.65-1.12,2.81,0,5,.92,6.56,2.77,1.57,1.84,2.35,4.08,2.35,6.7,0,2.25-.67,4.11-1.99,5.57-1.33,1.46-2.95,2.2-4.86,2.2-1.49,0-2.73-.47-3.73-1.42v8.66ZM59.9,73.9c0-.75.27-1.38.8-1.92s1.17-.8,1.92-.8,1.41.27,1.94.8.8,1.17.8,1.92-.27,1.41-.8,1.94-1.18.8-1.94.8-1.41-.28-1.93-.83c-.53-.55-.79-1.19-.79-1.92Z"/>
      </g>
    </g>
  </g>
  <g id="Layer_2">
    <g class="st1">
      <g class="st1">
        <path class="st3" d="M41.77,54.83c0-.52.57-.78,1.4-.78.47,0,.88.21,1.66.21,3.22,0,5.2-.83,5.2-4.21,0-2.13-2.24-4.32-5.88-5.25-2.81-.73-3.95-1.56-3.95-2.86,0-1.09.52-2.03,1.72-2.03,3.12,0,9.26,4.26,9.26,10.14,0,4.99-1.66,8.11-7.07,8.11-.57,0-.78.21-.83.73v8.06c0,.36-.1.52-.78.52-.78,0-.78-.16-.78-.52l.05-12.12ZM45.25,74.02c0,1.51-.99,2.6-2.39,2.6s-2.5-1.09-2.5-2.6c0-1.4.99-2.39,2.44-2.39s2.44.99,2.44,2.39Z"/>
      </g>
    </g>
    <circle class="st2" cx="42.58" cy="54.61" r="1.25"/>
    <circle class="st2" cx="62.7" cy="55.52" r="1.25"/>
    <circle class="st2" cx="58.21" cy="45.64" r="1.25"/>
    <circle class="st2" cx="41.01" cy="40.59" r="1.25"/>
  </g>
</svg>