<?xml version="1.0" encoding="UTF-8"?>
<svg id="Layer_1" xmlns="http://www.w3.org/2000/svg" width="1.48in" height="1.48in" version="1.1" viewBox="0 0 106.57 106.8">
  <!-- Generator: Adobe Illustrator 30.1.0, SVG Export Plug-In . SVG Version: 2.1.1 Build 136)  -->
  <defs>
    <style>
      .st0 {
        fill: #ee352a;
      }

      .st1 {
        isolation: isolate;
      }

      .st2 {
        fill: none;
        stroke: #231f20;
        stroke-miterlimit: 10;
        stroke-width: .25px;
      }

      .st3 {
        fill: #86c6ed;
      }
    </style>
  </defs>
  <g class="st1">
    <g id="Layer_11" data-name="Layer_1">
      <g class="st1">
        <g class="st1">
          <path class="st0" d="M71.09,50.81c.58-1.51,1.51-2.77,2.81-3.78s2.56-1.52,3.8-1.52c1.12,0,2,.35,2.64,1.04s.96,1.41.96,2.13c0,.49-.17.91-.5,1.27s-.73.53-1.21.53c-.85,0-1.49-.63-1.93-1.88-.3-.85-.76-1.27-1.37-1.27-.73,0-1.6.5-2.62,1.49s-1.67,2.02-1.96,3.08-.43,2.53-.43,4.39v3.71c0,2.22.03,3.61.09,4.19s.3,1.02.72,1.32,1.18.46,2.26.46h.71v1.17h-11.04v-1.17h.53c1.02,0,1.74-.14,2.17-.42s.69-.67.77-1.18.13-1.96.13-4.37v-5.87c0-2.23-.03-3.63-.09-4.2s-.3-1.01-.72-1.32-1.18-.47-2.26-.47h-.53v-1.14c1.59-.19,3.67-.69,6.25-1.5.49,1.34.76,3.11.81,5.31Z"/>
        </g>
      </g>
    </g>
    <g id="Layer_2">
      <g class="st1">
        <g class="st1">
          <path class="st3" d="M47.7,50.91c0-1.04-.26-1.72-1.56-2.03-1.09-.26-1.61-.57-1.61-.83,0-.36.21-.47.88-.83l3.64-1.87c.73-.36.99-.47,1.4-.47.36,0,.62.42.62.99v2.39c0,.36.1.47.21.47.16,0,.36-.21.52-.36,2.18-1.92,4.11-3.22,6.4-3.22,1.51,0,2.7.88,2.7,2.03,0,1.3-1.35,2.34-3.07,2.34-2.44,0-2.34-.94-4.16-.94-1.46,0-2.6,1.87-2.6,4.21v11.65c0,.83.36,1.2,2.08,1.2h.83c.36,0,.52.16.52.68s-.16.62-.52.62h-8.84c-.36,0-.52-.21-.52-.62,0-.52.16-.68.52-.68,1.92,0,2.55-.36,2.55-1.2v-13.52Z"/>
        </g>
      </g>
      <circle class="st2" cx="51.55" cy="48.63" r="1.25"/>
      <circle class="st2" cx="71.18" cy="50.63" r="1.25"/>
      <circle class="st2" cx="74.95" cy="66" r="1.25"/>
      <circle class="st2" cx="44.83" cy="47.97" r="1.25"/>
      <circle class="st2" cx="64.03" cy="47.6" r="1.25"/>
      <circle class="st2" cx="54.18" cy="66" r="1.25"/>
    </g>
  </g>
</svg>