<?xml version="1.0" encoding="UTF-8"?>
<svg id="Layer_1" xmlns="http://www.w3.org/2000/svg" width="68.63in" height="16.85in" version="1.1" viewBox="0 0 4941.36 1213.13">
  <!-- Generator: Adobe Illustrator 30.0.0, SVG Export Plug-In . SVG Version: 2.1.1 Build 123)  -->
  <defs>
    <style>
      .st0 {
        fill: #fff6eb;
      }

      .st1 {
        isolation: isolate;
      }
    </style>
  </defs>
  <g class="st1">
    <g class="st1">
      <path class="st0" d="M346.96,472.83c0-111.3,93.1-202.3,210.7-202.3,68.6,0,144.9,54.6,144.9,114.8,0,30.1-22.4,49.7-51.8,49.7-37.1,0-60.9-27.3-60.9-58.1,0,0,22.4-2.8,26.6-26.6,8.4-46.2-20.3-70.7-55.3-70.7-79.1,0-99.4,98.7-99.4,192.5,0,112,27.3,193.2,101.5,193.2,30.1,0,83.3-3.5,127.4-71.4h8.4c-33.6,62.3-95.2,80.5-142.8,80.5h-.7c-115.5,0-208.6-90.3-208.6-201.6Z"/>
      <path class="st0" d="M755.06,381.83h102.2v39.9c17.5-29.4,42.7-46.2,80.5-46.2,42,0,84.7,21.7,84.7,79.1,0,29.4-14.7,63.7-56,63.7-28,0-44.8-23.8-46.2-41.3,0,0,35.7-18.2,35.7-51.8,0-21.7-14-39.2-34.3-39.2-26.6,0-49,18.9-64.4,49.7v231.7h-102.2v-285.6Z"/>
      <path class="st0" d="M1067.96,612.83v-231h102.2v233.1c0,38.5,25.9,42.7,51.8,20.3,5.6-4.9,25.2-25.2,33.6-37.1v-216.3h102.2v226.1c0,12.6,2.1,23.8,11.2,23.8,4.9,0,8.4-3.5,9.8-23.8l5.6.7c0,36.4-29.4,65.8-65.8,65.8s-63-28-63-63v-1.4c-21,27.3-60.2,64.4-107.1,64.4s-80.5-30.1-80.5-61.6Z"/>
      <path class="st0" d="M1422.86,589.03c0-29.4,21.7-46.9,48.3-46.9,30.1,0,57.4,22.4,57.4,46.9-14.7,0-21.7,11.2-21.7,30.1,0,35,28,48.3,52.5,48.3,20.3,0,52.5-7,52.5-40.6,0-69.3-181.3-95.9-181.3-176.4,0-53.9,74.2-74.9,139.3-74.9s119.7,29.4,119.7,69.3c0,32.2-25.9,43.4-45.5,43.4-25.2,0-46.9-18.2-46.9-37.8,0,0,21-2.8,21-31.5,0-22.4-21-36.4-46.9-36.4-22.4,0-54.6,11.2-54.6,41.3,0,64.4,189,88.2,189,165.2,0,49-73.5,85.4-142.8,85.4s-140-35-140-85.4Z"/>
      <path class="st0" d="M1756.75,611.43v-222.6h-30.1v-7h35.7c56-1.4,89.6-41.3,89.6-99.4h7v99.4h26.6v7h-26.6v219.1c0,12.6,2.1,23.8,11.2,23.8,4.9,0,8.4-3.5,9.8-23.8l5.6.7c0,36.4-29.4,65.8-65.8,65.8s-63-28-63-63Z"/>
      <path class="st0" d="M2332.85,626.13c-33.6,37.8-79.1,47.6-121.1,47.6-58.8,0-109.2-30.8-125.3-75.6-25.9-72.1,30.1-158.2,116.9-158.2-39.2-97.3-1.4-179.2,81.2-179.2,97.3,0,95.9,96.6,14.7,154,14,28.7,35,58.1,60.9,86.8,8.4-70,53.9-134.4,107.1-134.4,37.8,0,68.6,30.1,68.6,68.6s-30.8,68.6-68.6,68.6c-33.6,0-61.6-24.5-67.2-56.7,6.3,5.6,14,9.1,23.1,9.1,17.5,0,35-14.7,35-37.1,0-17.5-6.3-32.2-20.3-32.2-22.4,0-65.1,50.4-71.4,121.1,51.8,53.9,115.5,88.9,145.6,91.7,30.1,2.8,37.1-17.5,37.1-17.5l6.3,1.4-.7,2.8c-.7.7-29.4,88.9-107.8,88.9-42,0-81.2-22.4-114.1-49.7ZM2206.15,446.23c-34.3,28.7-31.5,79.8-9.8,124.6,28,55.3,91,81.9,131.6,51.1-49-46.2-93.8-111.3-121.8-175.7ZM2316.05,289.43c-28-4.2-39.2,18.9-39.2,44.8,0,21.7,8.4,49,19.6,73.5,59.5-39.9,70-111.3,19.6-118.3Z"/>
      <path class="st0" d="M2750.04,472.83c0-111.3,93.1-202.3,210.7-202.3,68.6,0,144.9,54.6,144.9,114.8,0,30.1-22.4,49.7-51.8,49.7-37.1,0-60.9-27.3-60.9-58.1,0,0,22.4-2.8,26.6-26.6,8.4-46.2-20.3-70.7-55.3-70.7-79.1,0-99.4,98.7-99.4,192.5,0,112,27.3,193.2,101.5,193.2,30.1,0,83.3-3.5,127.4-71.4h8.4c-33.6,62.3-95.2,80.5-142.8,80.5h-.7c-115.5,0-208.6-90.3-208.6-201.6Z"/>
      <path class="st0" d="M3158.14,381.83h102.2v39.9c17.5-29.4,42.7-46.2,80.5-46.2,42,0,84.7,21.7,84.7,79.1,0,29.4-14.7,63.7-56,63.7-28,0-44.8-23.8-46.2-41.3,0,0,35.7-18.2,35.7-51.8,0-21.7-14-39.2-34.3-39.2-26.6,0-49,18.9-64.4,49.7v231.7h-102.2v-285.6Z"/>
      <path class="st0" d="M3471.04,612.83v-231h102.2v233.1c0,38.5,25.9,42.7,51.8,20.3,5.6-4.9,25.2-25.2,33.6-37.1v-216.3h102.2v226.1c0,12.6,2.1,23.8,11.2,23.8,4.9,0,8.4-3.5,9.8-23.8l5.6.7c0,36.4-29.4,65.8-65.8,65.8s-63-28-63-63v-1.4c-21,27.3-60.2,64.4-107.1,64.4s-80.5-30.1-80.5-61.6Z"/>
      <path class="st0" d="M3839.94,381.83h102.2v53.2c21-27.3,60.2-64.4,107.1-64.4s75.6,25.9,79.8,55.3c22.4-25.9,57.4-55.3,99.4-55.3,48.3,0,80.5,30.1,80.5,61.6v235.2h-102.2v-237.3c0-38.5-25.9-42.7-51.8-20.3-4.2,3.5-16.1,15.4-25.2,26.6v231h-102.2v-237.3c0-38.5-25.9-42.7-51.8-20.3-5.6,4.9-25.2,25.2-33.6,37.1v220.5h-102.2v-285.6Z"/>
      <path class="st0" d="M4431.44,659.73c-24.5-2.1-43.4,4.2-52.5,7.7V233.43h101.5v158.9c10.5-9.8,30.8-16.1,51.1-16.1,76.3,0,136.5,62.3,136.5,143.5,0,95.9-62.3,154-144.9,154-43.4,0-46.2-9.8-91.7-14ZM4563.04,519.73c0-77-12.6-133.7-49.7-133.7-11.2,0-23.8,7-32.9,18.2v219.8c0,25.9,14,42,32.9,42,34.3,0,49.7-69.3,49.7-146.3Z"/>
    </g>
  </g>
</svg>