<?xml version="1.0" encoding="UTF-8"?>
<svg id="Layer_1" xmlns="http://www.w3.org/2000/svg" width="85.56in" height="19.76in" version="1.1" viewBox="0 0 6160.1 1422.62">
  <!-- Generator: Adobe Illustrator 30.0.0, SVG Export Plug-In . SVG Version: 2.1.1 Build 123)  -->
  <defs>
    <style>
      .st0 {
        fill: #fff6eb;
      }

      .st1 {
        isolation: isolate;
      }
    </style>
  </defs>
  <g class="st1">
    <g class="st1">
      <path class="st0" d="M1452.95,765.68c0-120.24,100.58-218.55,227.62-218.55,74.11,0,156.54,58.98,156.54,124.02,0,32.52-24.2,53.69-55.96,53.69-40.08,0-65.79-29.49-65.79-62.77,0,0,24.2-3.03,28.74-28.74,9.07-49.91-21.93-76.38-59.74-76.38-85.45,0-107.38,106.63-107.38,207.96,0,120.99,29.49,208.71,109.65,208.71,32.52,0,89.99-3.78,137.63-77.13h9.07c-36.3,67.3-102.85,86.96-154.27,86.96h-.76c-124.78,0-225.35-97.55-225.35-217.79Z"/>
      <path class="st0" d="M1893.82,667.37h110.41v43.1c18.91-31.76,46.13-49.91,86.96-49.91,45.37,0,91.5,23.44,91.5,85.45,0,31.76-15.88,68.82-60.5,68.82-30.25,0-48.4-25.71-49.91-44.62,0,0,38.57-19.66,38.57-55.96,0-23.44-15.12-42.35-37.06-42.35-28.74,0-52.93,20.42-69.57,53.69v250.31h-110.41v-308.53Z"/>
      <path class="st0" d="M2231.84,916.92v-249.55h110.41v251.82c0,41.59,27.98,46.13,55.96,21.93,6.05-5.29,27.22-27.22,36.3-40.08v-233.67h110.41v244.26c0,13.61,2.27,25.71,12.1,25.71,5.29,0,9.07-3.78,10.59-25.71l6.05.76c0,39.32-31.76,71.08-71.08,71.08s-68.06-30.25-68.06-68.06v-1.51c-22.69,29.49-65.03,69.57-115.7,69.57s-86.96-32.52-86.96-66.55Z"/>
      <path class="st0" d="M2615.23,891.21c0-31.76,23.44-50.67,52.18-50.67,32.52,0,62.01,24.2,62.01,50.67-15.88,0-23.44,12.1-23.44,32.52,0,37.81,30.25,52.18,56.72,52.18,21.93,0,56.72-7.56,56.72-43.86,0-74.86-195.86-103.6-195.86-190.56,0-58.23,80.16-80.91,150.48-80.91s129.31,31.76,129.31,74.86c0,34.79-27.98,46.89-49.15,46.89-27.22,0-50.67-19.66-50.67-40.84,0,0,22.69-3.02,22.69-34.03,0-24.2-22.69-39.32-50.67-39.32-24.2,0-58.98,12.1-58.98,44.62,0,69.57,204.18,95.28,204.18,178.47,0,52.93-79.4,92.26-154.27,92.26s-151.24-37.81-151.24-92.26Z"/>
      <path class="st0" d="M2975.94,915.41v-240.47h-32.52v-7.56h38.57c60.5-1.51,96.8-44.62,96.8-107.38h7.56v107.38h28.74v7.56h-28.74v236.69c0,13.61,2.27,25.71,12.1,25.71,5.29,0,9.07-3.78,10.59-25.71l6.05.76c0,39.32-31.76,71.08-71.08,71.08s-68.06-30.25-68.06-68.06Z"/>
      <path class="st0" d="M3598.29,931.29c-36.3,40.84-85.45,51.42-130.82,51.42-63.52,0-117.97-33.27-135.36-81.67-27.98-77.89,32.52-170.9,126.29-170.9-42.35-105.11-1.51-193.59,87.72-193.59,105.11,0,103.6,104.36,15.88,166.37,15.12,31,37.81,62.77,65.79,93.77,9.07-75.62,58.23-145.19,115.7-145.19,40.84,0,74.11,32.52,74.11,74.11s-33.27,74.11-74.11,74.11c-36.3,0-66.55-26.47-72.6-61.25,6.81,6.05,15.12,9.83,24.95,9.83,18.91,0,37.81-15.88,37.81-40.08,0-18.91-6.81-34.79-21.93-34.79-24.2,0-70.33,54.45-77.13,130.82,55.96,58.23,124.78,96.04,157.29,99.06,32.52,3.02,40.08-18.91,40.08-18.91l6.81,1.51-.76,3.03c-.76.76-31.76,96.04-116.46,96.04-45.37,0-87.72-24.2-123.26-53.69ZM3461.42,736.94c-37.05,31.01-34.03,86.21-10.59,134.61,30.25,59.74,98.31,88.48,142.17,55.2-52.94-49.91-101.33-120.24-131.58-189.81ZM3580.14,567.55c-30.25-4.54-42.35,20.42-42.35,48.4,0,23.44,9.07,52.93,21.17,79.4,64.28-43.1,75.62-120.24,21.17-127.8Z"/>
      <path class="st0" d="M4048.98,765.68c0-120.24,100.58-218.55,227.62-218.55,74.11,0,156.54,58.98,156.54,124.02,0,32.52-24.2,53.69-55.96,53.69-40.08,0-65.79-29.49-65.79-62.77,0,0,24.2-3.03,28.74-28.74,9.07-49.91-21.93-76.38-59.74-76.38-85.45,0-107.38,106.63-107.38,207.96,0,120.99,29.49,208.71,109.65,208.71,32.52,0,89.99-3.78,137.63-77.13h9.07c-36.3,67.3-102.85,86.96-154.27,86.96h-.76c-124.77,0-225.35-97.55-225.35-217.79Z"/>
      <path class="st0" d="M4489.85,667.37h110.41v43.1c18.91-31.76,46.13-49.91,86.96-49.91,45.37,0,91.5,23.44,91.5,85.45,0,31.76-15.88,68.82-60.5,68.82-30.25,0-48.4-25.71-49.91-44.62,0,0,38.57-19.66,38.57-55.96,0-23.44-15.13-42.35-37.06-42.35-28.74,0-52.93,20.42-69.57,53.69v250.31h-110.41v-308.53Z"/>
      <path class="st0" d="M4827.87,916.92v-249.55h110.41v251.82c0,41.59,27.98,46.13,55.96,21.93,6.05-5.29,27.22-27.22,36.3-40.08v-233.67h110.41v244.26c0,13.61,2.27,25.71,12.1,25.71,5.29,0,9.07-3.78,10.59-25.71l6.05.76c0,39.32-31.76,71.08-71.08,71.08s-68.06-30.25-68.06-68.06v-1.51c-22.69,29.49-65.03,69.57-115.7,69.57s-86.96-32.52-86.96-66.55Z"/>
      <path class="st0" d="M5226.39,667.37h110.41v57.47c22.69-29.49,65.03-69.57,115.7-69.57s81.67,27.98,86.21,59.74c24.2-27.98,62.01-59.74,107.38-59.74,52.18,0,86.96,32.52,86.96,66.55v254.09h-110.41v-256.36c0-41.59-27.98-46.13-55.96-21.93-4.54,3.78-17.39,16.64-27.22,28.74v249.55h-110.41v-256.36c0-41.59-27.98-46.13-55.96-21.93-6.05,5.29-27.22,27.22-36.3,40.08v238.21h-110.41v-308.53Z"/>
      <path class="st0" d="M5865.38,967.59c-26.47-2.27-46.89,4.54-56.72,8.32v-468.85h109.65v171.66c11.34-10.59,33.27-17.39,55.2-17.39,82.43,0,147.46,67.3,147.46,155.02,0,103.6-67.3,166.37-156.54,166.37-46.89,0-49.91-10.59-99.06-15.12ZM6007.55,816.35c0-83.18-13.61-144.44-53.69-144.44-12.1,0-25.71,7.56-35.54,19.66v237.45c0,27.98,15.12,45.37,35.54,45.37,37.05,0,53.69-74.86,53.69-158.05Z"/>
    </g>
  </g>
  <g>
    <path class="st0" d="M542.77,404.54c180.55,131.09,226.54,394.33,89.07,573.97l120.38-12.51c17.78-6.65,53.9-123.48,59.24-147.02,29.19-128.65,13.86-260.83-77.45-360.7-57.97-63.41-106.17-73.45-191.24-53.74Z"/>
    <path class="st0" d="M512.83,962.24c60.71-105.04,63.55-236.79,16.58-348.04-14.98-35.48-64-122.54-107.2-121.65-10.91.22-86.65,20.79-87.94,27.43l39.4,27.81c92.2,86.93,132.32,219.42,100.69,343.1-6.68,26.12-20.49,49.65-27.24,75.6l65.7-4.25Z"/>
    <path class="st0" d="M766.67,466.04c20.19,33.61,48.18,62.29,66.93,96.92,54.57,100.78,57.14,214.71,17.94,321.28-5.35,14.55-20.2,36.55-22.65,47.73-2.15,9.79,16.02,5.17,22.1,4.36,73.4-9.78,87.98-66.07,99.65-130.29,26.83-147.64-5.8-326.43-183.96-339.99Z"/>
    <path class="st0" d="M166.7,648.7c43.43-.78,77.07,33.44,103.41,63.99,61.82,71.7,106.84,164.87,129.38,256.72,5.94-.21,15.28.7,19.89-2.92,4.69-3.67,10.41-70.09,10.49-80.92.68-98.59-22.29-214.54-109.87-272.41-9.42-6.23-41.51-22.82-51.3-22.85-12.37-.04-49.86,13.81-61.97,20.33-5.34,2.87-47.76,31.68-40.01,38.05Z"/>
    <path class="st0" d="M29.81,881.49c87.31-51.23,214.88,7.78,230.98,109.07l38.27-15.17c.67-67.47-28.81-146.21-83.38-187.93-18.93-14.47-71.79-42.24-95.21-34.98-23.03,7.14-101.97,116.92-90.66,129.02Z"/>
    <path class="st0" d="M958.36,585.59c28.42,108.49,25.92,223.41-22.98,325.32,99.33,5.43,152.44-161.47,131.7-237.49-10.17-37.27-69.39-85.54-108.72-87.82Z"/>
    <path class="st0" d="M508.17,458.83c124.81,91.09,218.46,357.69,121.65,489.77-28.16,38.41-43.51,31.93-86.76,17.6l18.1-29.12c2.07-13.81-15.6,6.36-12.36-7.07,2.72-11.26,12.72-28.21,16.26-42.07,27.3-107.12,18.98-193.34-25.94-293.34-4.79-10.67,13.87,2.19,7.36-8.33-10.75-17.37-63.58-83.18-78.43-94.58-11.68-8.97-29.63-17.38-44.58-15.52,5.09-32.13,43.33,11.3,60.34,6.14l-49.43-22.86c21.76-41.1,45.33-21.39,73.81-.6ZM612.36,831.85c15.08-68,10.66-136.4-7.1-203.44l26.44,66.02c15.7,55.16,7.22,109.41-3.56,164.38,5.77.21,5.86-9.82,7.08-14.36,27.82-103.59-4.78-220.8-79.17-296.85,10.34,21.94,26.57,41.09,36.22,63.47,34.38,79.78,27.78,171.02,8.26,253.52,7.46-5.97,9.77-23.45,11.83-32.74ZM599.15,823.99c9.42-55.52,2.1-117.75-18.27-170.08-4.92.37,13.14,58.41,14.14,65.17,6.58,44.19,2.19,86.45-3.49,130.1,6.23-2.53,6.51-18.69,7.61-25.19Z"/>
    <path class="st0" d="M1109.28,755.76c2.03-7.05-.52-45.05-3.36-54.01-2.11-6.67,3.11-11.89-8.7-9.17,5.37,23.24,9.17,43.78,4.39,67.67.29.34,7.54-4.07,7.67-4.49-7.41,42.52-15.87,85.82-31.84,125.98l54.96-8,12-40.18,4.63,11.58c11.17-16.83,39.69-34.2,36.52-54.3l-17.17,13.05c5.35-12.44,24.28-21.71,19.91-37.28-7.81-27.83-51.13-50.99-72.67-67.22,1.53,19.95-3.17,38.21-6.33,56.37Z"/>
    <path class="st0" d="M507.45,414.82c118.55,86.38,173.97,221.54,175.81,366.64.17,13.25-2.92,28.34-3.47,42.05-.17,4.22-4.95,13.12,2.74,11.78,3.4-23.01,9.55-48,10.97-71.13,6.75-109.79-33.79-221.62-110.99-300.14-18.91-19.23-47.68-47.11-75.05-49.2Z"/>
    <path class="st0" d="M471.68,788.94c6.91-3.19,2.97-23.95,2.17-30.28-8.84-69.29-65.45-186.6-129.07-220.74-9.43-5.06-31.12-14.6-31.29,1.37,86,50.12,144.49,151.61,158.19,249.65Z"/>
    <path class="st0" d="M667.44,724.31c7.15.21,3.34-13.69,2.73-18.08-11.67-83.57-87.1-247.73-168.71-282.5-8.84-3.76-23.99-8.31-23.17,4.95,105.73,62.01,170.82,175.62,189.15,295.63Z"/>
    <path class="st0" d="M833.46,881.52c-7.35,1.39-3.65-7.89-2.95-11.98,4.34-25.38,14.34-50.67,18.47-77.7,5.78-37.84,8.25-75.19,3.35-113.4l-15.59-57c15.05,85.41,4.82,168.12-20.78,250.31-7.06,22.66-25.81,55.89-30.16,74.93-1.25,5.47.94,7.33,6.21,5.45,14.9-5.32,22.83-35.07,26.92-49.63,13.36,3.35-7.59,21.95-.26,27.96,54.99-94.36,64.61-211.32,28.54-314.58-6.6-18.89-17.25-34.71-22.37-53.65-7.08-.56-3.49,9.39-2.21,13.19,4.89,14.45,14.89,29.89,20.02,45.64,28.79,88.46,15.74,173.2-9.18,260.45Z"/>
    <path class="st0" d="M277.79,573.52c37.46,6.11,62.32,36.95,94.09,51.08,12.43,30.16,43.79,54.18,56.69,83.02,1.61,3.6,6.04,12.67-1.33,12.2l-8.97-13.33c19.29,51.61,29.8,106.58,30.48,161.88.21,17.22-3.99,38.88-4.28,56.37-.07,4.38-1.95,15.05,4.79,13.59,6.28-24.28,19.06-49.28,19.34-75.01.28-25.96-9.38-50.07-13.17-75.21-.48-3.2-2.16-14.43,3.65-8.32l4.82,13.65c-12.86-93.23-65.19-183.79-141.37-238.75l-3.43,8.19-20.39-14.37-20.92,25.01Z"/>
    <path class="st0" d="M168.64,740.61l66.01,38.09,74.08,88.77-14.69-11.03c.68,15.85,16.73,32.84,24.25,49.34,9.78,21.47,17.86,44.04,21.5,67.46l15.1-1.4c9.4-23.41-4.69-47.01-19.49-64.19l7.76-2.38c-25.7-72.79-90.3-161.8-174.53-164.66Z"/>
    <path class="st0" d="M130.21,703.03c84.26-33.12,136.85,61.85,180.23,117.66l53.67,99.16c-20.51-63.28-70.94-170.29-127.98-206.95-26-16.71-82.76-40.13-105.91-9.88Z"/>
    <path class="st0" d="M45.06,932.45c18.39-5.56,40.21-12.3,56.12,2.43-14.21,1.13-20.99-7.05-37.9-3.41-61.2,13.17,9.59,74.56,42.39,73.06l-12.78-43.12c15.6,10.99,16.39,29.35,17.21,46.69l19.96,2.87-3.35-51.73c5.73,17.59,11.73,32.79,7.39,51.45l31.85-2.04c-.76-18.74-7.9-38.36-18.7-53.54-19.69-27.68-81.3-67.9-102.2-22.65Z"/>
    <path class="st0" d="M258.5,770.75c2.66-3.19-22.24-28.93-25.94-32.41-24.58-23.11-69.11-50.02-101.43-25.08-36.38,28.08,37.53,18.49,46.62,19.07,30.35,1.94,57.81,20.27,80.76,38.42Z"/>
    <path class="st0" d="M127.15,903.23c37.96,23.52,61.43,49.53,73.88,93.44,40.18-.87,3.83-59.08-10.51-73.7-17.63-17.97-40.3-16.66-63.37-19.74Z"/>
    <path class="st0" d="M31.57,909.33c40.16-16.78,85.03-9.52,127.42-8.23-33.84-27.74-100.74-29.64-127.42,8.23Z"/>
    <path class="st0" d="M1061,874.84c1.57-29.47,30.31-74.94,24.87-109.55l-26.6,72.35c-3.31,14.18-26.07,34.75-29.71,45.28-5.54,16.06,27.04-3.59,31.43-8.08-.36,6.79,3.39,13.1,8.41,7.44,7.5-8.45,23.65-81.62,21.72-97.34l-21.94,80.35c-.83,5.31-5.48,6.77-8.2,9.55Z"/>
    <path class="st0" d="M137.14,686.58c31.25-9.57,59.07.32,88.63,10.27-17.72-23.11-78.57-52.59-88.63-10.27Z"/>
    <path class="st0" d="M132.41,922.89c20.89,22.58,40.1,49,41.33,81.21l15.81-.98c-1.21-29.46-19.45-56.25-42.69-73.22-4.72-3.45-7.09-9.25-14.46-7.02Z"/>
    <polygon class="st0" points="319.72 974.74 331.63 973.97 330.7 960.17 311.65 911.29 319.72 974.74"/>
    <path class="st0" d="M1160.8,872.35c18.15-1.08,37.73-8.66,34.02-30.13-19.38-2.93-23.79,18.6-34.02,30.13Z"/>
    <path class="st0" d="M248.76,991.3c-1.83-21.03-10.66-48.9-27.93-62.17,11.46,19.11,12.79,46.93,27.93,62.17Z"/>
    <path class="st0" d="M24.72,922.16c-1.2,1.9,2.51,27.25,9.38,27.01-.28-15.59,9.64-25.29,17.65-37.06l-27.03,10.05Z"/>
  </g>
</svg>