<?xml version="1.0" encoding="UTF-8"?>
<svg id="Layer_1" xmlns="http://www.w3.org/2000/svg" width="1.48in" height="1.48in" version="1.1" viewBox="0 0 106.57 106.8">
  <!-- Generator: Adobe Illustrator 30.1.0, SVG Export Plug-In . SVG Version: 2.1.1 Build 136)  -->
  <defs>
    <style>
      .st0 {
        fill: #ee352a;
      }

      .st1 {
        isolation: isolate;
      }

      .st2 {
        fill: none;
        stroke: #231f20;
        stroke-miterlimit: 10;
        stroke-width: .25px;
      }

      .st3 {
        fill: #86c6ed;
      }
    </style>
  </defs>
  <g id="Layer_11" data-name="Layer_1">
    <g class="st1">
      <g class="st1">
        <path class="st0" d="M63.27,39.93h.25c.49,1.13.74,2.59.74,4.37,1.13-1.46,2.36-2.55,3.67-3.28,1.31-.73,2.72-1.09,4.23-1.09,1.71,0,3.1.39,4.16,1.17s1.81,1.95,2.23,3.5c1.29-1.56,2.61-2.73,3.96-3.5,1.35-.78,2.73-1.17,4.14-1.17,1.61,0,2.97.37,4.09,1.12s1.79,1.59,2.03,2.54c.24.95.36,2.48.36,4.6v6.25c0,2.42.05,3.89.14,4.42.09.52.36.91.81,1.17.45.25,1.28.38,2.5.38v1.17h-10.38v-1.17c1.1,0,1.87-.12,2.32-.37.45-.25.72-.62.83-1.12s.15-1.99.15-4.48v-6.93c0-1.41-.08-2.46-.24-3.17-.16-.71-.58-1.32-1.26-1.83-.68-.51-1.56-.76-2.64-.76s-2.21.37-3.31,1.12c-1.11.75-2.22,1.87-3.34,3.38v8.2c0,2.22.03,3.61.09,4.18.06.57.3,1.01.71,1.32.41.31,1.16.47,2.22.47v1.17h-10.05v-1.17c1.13,0,1.92-.12,2.37-.36.45-.24.73-.6.84-1.09.11-.49.17-2,.17-4.52v-5.76c0-1.83-.07-3.15-.22-3.97-.14-.82-.58-1.52-1.31-2.11-.73-.58-1.63-.88-2.72-.88s-2.12.34-3.21,1.02-2.21,1.69-3.34,3.05v8.66c0,2.29.03,3.71.1,4.27.07.56.32.98.76,1.27.44.29,1.23.43,2.36.43v1.17h-10.18v-1.17c1.12,0,1.9-.12,2.35-.37.45-.25.72-.61.83-1.1s.15-1.99.15-4.49v-6.22c0-2.37-.04-3.82-.11-4.35s-.34-.94-.79-1.21c-.45-.27-1.26-.41-2.42-.41v-1.17c2.4-.24,4.39-.62,5.97-1.14Z"/>
      </g>
    </g>
  </g>
  <g id="Layer_2">
    <g class="st1">
      <g class="st1">
        <path class="st3" d="M26.53,48.78c0-3.48-2.39-6.34-5.36-6.34-1.46,0-2.6.47-4.11,1.77-.99.83-1.46,1.51-1.46,2.86v12.48c0,.83.36,1.2,2.08,1.2h.42c.36,0,.52.16.52.68s-.16.62-.52.62h-8.94c-.36,0-.52-.21-.52-.62,0-.52.16-.68.52-.68h.52c1.92,0,2.55-.36,2.55-1.2v-13c0-1.4,0-1.82-1.51-2.71-1.4-.68-1.77-.78-1.77-1.2,0-.36.47-.57,1.14-.83l3.22-1.25c.73-.26,1.25-.57,1.66-.57.36,0,.62.26.62.83v2.03c0,.36.1.47.26.47s.36-.1.47-.21c2.29-1.77,4.63-2.65,6.97-2.65,2.55,0,4.89,1.66,5.98,4.06.1.26.21.36.31.36s.26-.1.36-.21c2.5-2.76,4.89-3.69,8.16-3.69,3.54,0,6.4,3.48,6.4,7.8v10.76c0,.83.36,1.2,2.08,1.2h.42c.36,0,.52.16.52.68s-.16.62-.52.62h-8.94c-.36,0-.52-.21-.52-.62,0-.52.16-.68.52-.68h.52c1.92,0,2.55-.36,2.55-1.2v-10.5c0-3.38-2.29-6.08-5.15-6.08-1.87,0-3.85.83-4.94,2.6-.73,1.09-1.14,1.98-1.14,3.33v10.66c0,.83.36,1.2,2.08,1.2h.42c.36,0,.52.16.52.68s-.16.62-.52.62h-8.94c-.36,0-.52-.21-.52-.62,0-.52.16-.68.52-.68h.52c1.92,0,2.55-.36,2.55-1.2v-10.76Z"/>
      </g>
    </g>
    <circle class="st2" cx="9.41" cy="42.46" r="1.25"/>
    <circle class="st2" cx="57.87" cy="41.69" r="1.25"/>
    <circle class="st2" cx="78.92" cy="44.85" r="1.25"/>
    <circle class="st2" cx="29.61" cy="44.63" r="1.25"/>
    <circle class="st2" cx="32.43" cy="61.22" r="1.25"/>
    <circle class="st2" cx="81.4" cy="60.9" r="1.25"/>
  </g>
</svg>