<?xml version="1.0" encoding="UTF-8"?>
<svg xmlns="http://www.w3.org/2000/svg" viewBox="0 0 731.06 420.21">
  <defs>
    <style>
      .cls-1, .cls-2 {
        fill: none;
      }

      .cls-3 {
        fill: #ee352a;
      }

      .cls-4 {
        isolation: isolate;
      }

      .cls-5 {
        mix-blend-mode: multiply;
      }

      .cls-2 {
        stroke: #000;
        stroke-miterlimit: 10;
        stroke-width: .25px;
      }

      .cls-6 {
        fill: #1a1a1a;
      }

      .cls-7 {
        fill: #86c6ed;
      }
    </style>
  </defs>
  <g class="cls-4">
    <g id="Layer_1" data-name="Layer 1">
      <g>
        <rect class="cls-1" x="613.57" y="177.91" width="54.93" height="66.87"/>
        <path class="cls-7" d="M616.81,220.75c-.42,0-.6-.12-.6-.72,0-.66.18-.78.6-.78h1.8c3,0,3.96-1.02,3.96-3.48v-32.04c0-2.46-1.08-3.48-4.08-3.48h-1.68c-.42,0-.6-.06-.6-.78,0-.6.18-.72.6-.72h19.68c14.58,0,24.48,8.58,24.48,20.16,0,12.42-9.24,21.84-26.82,21.84h-17.34ZM634.81,179.95c-5.04,0-6.3,1.92-6.3,6v29.88c0,2.88.78,3.3,3.36,3.3,15.12,0,22.38-7.68,22.38-19.02,0-12.12-6.36-20.16-19.44-20.16Z"/>
      </g>
      <g class="cls-5">
        <rect class="cls-1" x="635.42" y="232.75" width="54.93" height="66.87"/>
        <path class="cls-7" d="M638.66,275.59c-.42,0-.6-.12-.6-.72,0-.66.18-.78.6-.78h1.8c3,0,3.96-1.02,3.96-3.48v-32.04c0-2.46-1.08-3.48-4.08-3.48h-1.68c-.42,0-.6-.06-.6-.78,0-.6.18-.72.6-.72h19.68c14.58,0,24.48,8.58,24.48,20.16,0,12.42-9.24,21.84-26.82,21.84h-17.34ZM656.66,234.79c-5.04,0-6.3,1.92-6.3,6v29.88c0,2.88.78,3.3,3.36,3.3,15.12,0,22.38-7.68,22.38-19.02,0-12.12-6.36-20.16-19.44-20.16Z"/>
      </g>
      <g>
        <rect class="cls-1" x="662.5" y="180.44" width="54.93" height="66.87"/>
        <path class="cls-3" d="M663.91,181.32l6.53-.32c5.45-.27,9.12-.41,11.02-.41,5.9,0,10.5.9,13.8,2.7s5.76,4.23,7.37,7.31,2.42,6.63,2.42,10.65c0,2.91-.44,5.57-1.32,7.98s-2.08,4.41-3.62,6.01-3.31,2.8-5.33,3.63-3.94,1.35-5.76,1.55-4.38.31-7.68.31h-17.61v-1.35h1.64c1.7,0,2.88-.21,3.53-.64s1.07-1.1,1.26-2.01.28-3.02.28-6.34v-19.16c0-3.16-.09-5.21-.28-6.14s-.58-1.56-1.17-1.9-1.9-.51-3.91-.51h-1.17v-1.35ZM676.16,182.14v26.54c0,3.93.07,6.46.22,7.59s.59,1.93,1.32,2.39,2.28.69,4.64.69c3.46,0,6.3-.47,8.53-1.42s4.09-2.81,5.58-5.6,2.24-6.33,2.24-10.65c0-3.36-.43-6.36-1.3-8.99s-2.11-4.78-3.74-6.43-3.42-2.77-5.39-3.37-4.5-.89-7.59-.89c-1.48,0-2.99.05-4.51.15Z"/>
      </g>
      <g class="cls-5">
        <rect class="cls-1" x="636.56" y="235.28" width="54.93" height="66.87"/>
        <path class="cls-3" d="M637.97,236.16l6.53-.32c5.45-.27,9.12-.41,11.02-.41,5.9,0,10.5.9,13.8,2.7s5.76,4.23,7.37,7.31,2.42,6.63,2.42,10.65c0,2.91-.44,5.57-1.32,7.98s-2.08,4.41-3.62,6.01-3.31,2.8-5.33,3.63-3.94,1.35-5.76,1.55-4.38.31-7.68.31h-17.61v-1.35h1.64c1.7,0,2.88-.21,3.53-.64s1.07-1.1,1.26-2.01.28-3.02.28-6.34v-19.16c0-3.16-.09-5.21-.28-6.14s-.58-1.56-1.17-1.9-1.9-.51-3.91-.51h-1.17v-1.35ZM650.22,236.98v26.54c0,3.93.07,6.46.22,7.59s.59,1.93,1.32,2.39,2.28.69,4.64.69c3.46,0,6.3-.47,8.53-1.42s4.09-2.81,5.58-5.6,2.24-6.33,2.24-10.65c0-3.36-.43-6.36-1.3-8.99s-2.11-4.78-3.74-6.43-3.42-2.77-5.39-3.37-4.5-.89-7.59-.89c-1.48,0-2.99.05-4.51.15Z"/>
      </g>
      <g>
        <rect class="cls-1" x="459.69" y="197.45" width="55.03" height="70"/>
        <path class="cls-7" d="M501.87,198.29c.42,0,.6.24.6.72,0,.6-.18.78-.6.78h-1.14c-2.58,0-5.82,2.64-8.7,6.72l-6.84,9.78c-.36.48-.48.84-.48,1.2s.12.66.42,1.08l11.34,17.52c.96,1.5,2.22,2.7,3.66,2.7h1.92c.42,0,.6.18.6.78s-.18.72-.6.72h-15.84c-.42,0-.6-.24-.6-.72,0-.6.18-.78.6-.78,2.52,0,3.96-.6,3.96-1.8,0-.6-.42-1.68-.9-2.4l-7.5-11.52c-.24-.36-.48-.54-.72-.54s-.48.18-.66.48l-6.06,8.58c-1.5,2.16-2.34,3.9-2.34,4.98,0,1.32,1.02,2.22,3.72,2.22h.9c.42,0,.6.18.6.78s-.18.72-.6.72h-14.4c-.42,0-.6-.12-.6-.72s.18-.78.6-.78h2.7c3.36-.6,4.74-3.24,7.26-6.84l7.44-10.56c.24-.3.3-.54.3-.78,0-.3-.12-.54-.36-.96l-11.1-17.16c-1.08-1.68-2.46-2.7-4.26-2.7h-1.68c-.42,0-.6-.18-.6-.78s.18-.72.6-.72h17.64c.42,0,.6.24.6.72,0,.6-.18.78-.6.78h-1.56c-2.58,0-3.84.6-3.84,1.8,0,.6.42,1.68.9,2.4l6.96,10.8c.36.6.54.84.78.84s.48-.3.84-.78l5.64-7.98c1.5-2.1,2.58-3.78,2.58-4.86,0-1.5-.78-2.22-2.52-2.22h-.9c-.42,0-.6-.18-.6-.78s.18-.72.6-.72h12.84Z"/>
      </g>
      <g>
        <rect class="cls-1" x="506.71" y="200.04" width="55.03" height="70"/>
        <path class="cls-3" d="M531.59,218.29l10.28,12.51c3.67,4.45,6.01,6.93,7,7.43s2.29.75,3.9.75v1.35h-19.69v-1.35c1.97,0,3.35-.18,4.15-.54s1.19-.96,1.19-1.8c0-.51-.18-1.06-.54-1.66s-1.29-1.81-2.8-3.65l-7.09-8.73-6.24,7.56c-1.46,1.78-2.42,3.03-2.87,3.75s-.67,1.41-.67,2.05c0,1.99,1.52,3,4.57,3.02v1.35h-15.38v-1.35c1.66-.1,3.16-.46,4.5-1.1s2.57-1.52,3.71-2.65,2.74-3.03,4.83-5.68l6.65-8-10.46-12.57-3.37-4.04c-.66-.86-1.44-1.57-2.33-2.14s-2.07-.85-3.53-.85v-1.35h16.93v1.35h-.56c-2.23,0-3.34.61-3.34,1.82,0,.49.17,1.01.51,1.55s1.14,1.56,2.39,3.05l7.29,8.85,6.59-8.26c1.41-1.74,2.26-2.85,2.56-3.33s.45-.96.45-1.45c0-.82-.39-1.4-1.17-1.73s-2.11-.5-3.98-.5v-1.35h14.91v1.35c-2.54,0-4.67.75-6.4,2.24s-3.64,3.56-5.73,6.2l-6.27,7.91Z"/>
      </g>
      <g>
        <rect class="cls-1" x="162.48" y="199.1" width="41.38" height="64.57"/>
        <path class="cls-7" d="M186.02,200.96c1.73.86,2.09.94,2.38.94,1.22,0,1.22-.79,2.09-.79.58,0,.94.29,1.08,1.08l2.02,11.38c0,.22.07.36.07.5,0,.65-.43.79-.72.79-.72,0-1.22-.79-1.8-3.02-1.44-5.69-6.48-10.3-11.16-10.3s-8.86,3.6-8.86,8.06c0,6.05,2.95,9.5,12.1,11.81,7.49,1.87,13.18,5.69,13.18,14.47s-6.41,15.34-14.33,15.34c-3.31,0-6.62-.65-9.94-2.81-1.15-.79-1.73-1.66-2.16-1.66-.36,0-1.66.58-2.52,1.01-.29.07-.58.22-.72.22-.58,0-.79-.58-.79-2.16,0-1.94,0-7.06-.22-12.17,0-.65.22-.79.86-.79.36,0,.65.14.79.79,1.66,6.34,5.9,15.77,14.26,15.77,5.54,0,10.01-4.32,10.01-9.72,0-6.55-2.45-9.43-12.17-12.46-8.14-2.52-12.38-7.2-12.38-14.33s6.34-13.18,14.11-13.18c1.51,0,3.17.36,4.82,1.22Z"/>
      </g>
      <g>
        <rect class="cls-1" x="201.43" y="202.13" width="42.56" height="63.4"/>
        <path class="cls-3" d="M205.57,249.98v-15.33h1.76c1.99,9.98,6.71,14.98,14.17,14.98,3.35,0,5.95-.96,7.79-2.87s2.76-4.05,2.76-6.42-.81-4.39-2.43-6.01c-1.62-1.59-4.57-3.3-8.86-5.13-3.82-1.64-6.7-3.08-8.65-4.31s-3.46-2.83-4.55-4.8-1.63-4.07-1.63-6.29c0-3.4,1.18-6.23,3.53-8.49s5.34-3.39,8.95-3.39c2.02,0,3.91.33,5.7.98s3.61,2.02,5.48,4.08c1.08-1.29,1.69-2.68,1.83-4.18h1.55v12.48h-1.55c-.89-3.63-2.47-6.49-4.73-8.58s-4.88-3.13-7.86-3.13-4.92.77-6.24,2.3-1.99,3.22-1.99,5.04c0,2.2.83,4.07,2.5,5.59,1.64,1.55,4.61,3.28,8.89,5.2,4.1,1.83,7.08,3.3,8.95,4.41s3.36,2.65,4.48,4.62,1.69,4.24,1.69,6.82c0,4.08-1.36,7.39-4.08,9.95s-6.35,3.83-10.9,3.83c-5.23,0-9.59-2-13.08-6.01-.77,1.1-1.35,2.65-1.72,4.64h-1.76Z"/>
      </g>
      <g class="cls-5">
        <rect class="cls-1" x="44.1" y="33.84" width="34.74" height="72.11"/>
        <path class="cls-3" d="M72.86,63.12h-20.07c-.09,1.38-.14,2.41-.14,3.09,0,5.06.79,8.87,2.37,11.41s3.94,3.81,7.08,3.81c4.27,0,7.29-1.91,9.07-5.73h1.69c-.75,2.39-2.24,4.26-4.46,5.61s-4.65,2.02-7.28,2.02c-2.44,0-4.74-.62-6.91-1.85s-3.94-2.97-5.33-5.22-2.07-4.98-2.07-8.19c0-4.55,1.34-8.33,4.01-11.34,2.67-3.01,6.01-4.52,10.02-4.52,3.77,0,6.69,1.15,8.75,3.45,2.06,2.3,3.15,4.78,3.27,7.45ZM66.71,61.72c.07-.54.11-1.02.11-1.44,0-2.06-.6-3.66-1.81-4.8-1.21-1.14-2.69-1.71-4.45-1.71-4.27,0-6.81,2.65-7.63,7.95h13.78Z"/>
      </g>
      <g class="cls-5">
        <rect class="cls-1" x="14.85" y="30.81" width="34.21" height="73.38"/>
        <path class="cls-7" d="M23.78,62.84c-.79,0-1.01.22-1.15,1.22-.07.65-.07,1.3-.07,1.94,0,8.28,3.82,13.46,11.09,13.46,3.89,0,6.62-1.58,8.86-4.46.36-.5.5-.79.86-.79.29,0,.5.22.5.58,0,2.88-4.82,8.14-12.1,8.14-8.64,0-14.4-5.69-14.4-15.34,0-8.93,5.54-15.41,14.33-15.41,6.62,0,12.02,5.04,12.02,9.58,0,.79-.5,1.08-1.44,1.08h-18.51ZM23.78,59.46c-.07.29-.14.5-.14.72,0,.36.14.5.5.5h11.23c1.58,0,2.09-.22,2.09-1.44,0-2.45-2.23-5.62-6.34-5.62-3.1,0-5.83,2.38-7.34,5.83Z"/>
      </g>
      <g>
        <rect class="cls-1" x="320.36" y="24.49" width="35.16" height="66.06"/>
        <path class="cls-7" d="M352.33,47.81c-1.51,0-2.88.65-4.03,3.74l-11.16,29.45c-2.45,6.41-6.12,10.73-11.09,10.73-1.73,0-2.88-.86-2.88-2.52,0-2.16,1.87-3.74,4.32-3.74,1.3,0,2.23.43,3.46.43,1.58,0,2.95-2.09,4.68-6.84.22-.58.36-1.22.36-1.87,0-.94-.29-1.66-.5-2.16l-9.94-25.56c-.36-.94-1.87-1.66-3.1-1.66h-.29c-.5,0-.72-.22-.72-.94s.22-.86.72-.86h12.96c.5,0,.72.29.72.86,0,.72-.22.94-.72.94h-1.58c-1.44,0-2.23.43-2.23,1.44,0,.43.5,1.94,1.08,3.46l5.83,15.63c.22.65.36,1.08.72,1.08.43,0,.58-.58.79-1.01l5.26-14.04c.5-1.37,1.01-3.17,1.01-4.03,0-1.73-1.3-2.52-3.31-2.52h-1.58c-.5,0-.72-.22-.72-.94s.22-.86.72-.86h12.53c.5,0,.72.29.72.86,0,.72-.22.94-.72.94h-1.3Z"/>
      </g>
      <g>
        <rect class="cls-1" x="516.54" y="38.38" width="18.69" height="50.96"/>
        <path class="cls-3" d="M527.58,38.38v38.46c0,3.07.04,5,.12,5.8s.42,1.41,1,1.83,1.63.63,3.13.63h.84v1.62h-15.4v-1.62h.98c1.41,0,2.41-.19,3.01-.58s.96-.93,1.07-1.63.18-2.72.18-6.05v-28.48c0-3.02-.27-4.93-.81-5.71-.54-.79-1.85-1.18-3.94-1.18v-1.62c1.43,0,3.11-.16,5.04-.49,1.93-.33,3.26-.66,3.99-.98h.77Z"/>
      </g>
      <g>
        <rect class="cls-1" x="493.62" y="35.33" width="24.12" height="56.44"/>
        <path class="cls-7" d="M501.18,43.61c0-1.94-.72-2.81-2.81-4.03-1.94-.94-2.45-1.08-2.45-1.66,0-.5.58-.94,1.58-1.15l5.18-1.15c1.08-.22,1.73-.36,2.3-.36.5,0,.86.36.86,1.15v46.88c0,1.15.5,1.66,2.88,1.66h1.8c.5,0,.72.22.72.94s-.22.86-.72.86h-15.05c-.5,0-.72-.29-.72-.86,0-.72.22-.94.72-.94h2.16c2.66,0,3.53-.5,3.53-1.66v-39.68Z"/>
      </g>
      <g>
        <g>
          <rect class="cls-1" x="358.21" y="27.55" width="35.16" height="50.55"/>
          <path class="cls-3" d="M376.88,70.44l6.68-16c.96-2.34,1.44-3.64,1.44-3.9,0-1.17-1.3-1.78-3.9-1.83v-1.62h10.12v1.62c-1.57.07-2.72.49-3.45,1.25s-1.63,2.44-2.71,5.04l-12.83,30.97c-1.22,2.95-2.3,4.96-3.23,6.03s-1.97,1.6-3.09,1.6c-1.52,0-2.29-.69-2.29-2.07,0-1.59,1.22-2.94,3.66-4.04,1.43-.63,2.38-1.17,2.87-1.62s.96-1.25,1.42-2.43l2.74-6.86-10.83-23.2c-.96-2.04-1.76-3.33-2.39-3.87s-1.71-.81-3.23-.81v-1.62h13.22v1.62c-2.32.07-3.48.55-3.48,1.44,0,.35.46,1.5,1.37,3.45l7.91,16.84Z"/>
        </g>
        <circle class="cls-2" cx="376.93" cy="68.31" r="2.85"/>
        <circle class="cls-2" cx="368.94" cy="85.53" r="2.85"/>
      </g>
      <circle class="cls-2" cx="331.28" cy="85.53" r="2.85"/>
      <circle class="cls-2" cx="339.14" cy="68.31" r="2.85"/>
      <circle class="cls-2" cx="353.58" cy="47.09" r="2.85"/>
      <circle class="cls-2" cx="391.23" cy="47.97" r="2.85"/>
      <circle class="cls-2" cx="517.28" cy="85.53" r="2.85"/>
      <circle class="cls-2" cx="535.23" cy="201.14" r="2.85"/>
      <circle class="cls-2" cx="501.42" cy="239.85" r="2.85"/>
      <circle class="cls-2" cx="551.54" cy="239.85" r="2.85"/>
      <circle class="cls-2" cx="488.93" cy="199.22" r="2.85"/>
      <circle class="cls-2" cx="495.62" cy="85.53" r="2.85"/>
      <circle class="cls-2" cx="496.89" cy="38.11" r="2.85"/>
      <circle class="cls-2" cx="505.08" cy="35.33" r="2.19"/>
      <circle class="cls-2" cx="527.01" cy="38.38" r="2.19"/>
      <circle class="cls-2" cx="518.66" cy="40.96" r="2.85"/>
      <g class="cls-5">
        <rect class="cls-1" x="200.77" y="41.29" width="32.67" height="51"/>
        <path class="cls-3" d="M206.54,82.54h-1.14v-32.11c0-2.34-.06-3.86-.19-4.54-.13-.68-.45-1.19-.97-1.52-.52-.33-1.42-.5-2.71-.5v-1.35c1.15,0,2.54-.14,4.16-.41,1.62-.27,2.72-.55,3.31-.82h.62v18.98c1.37-1.23,2.75-2.15,4.16-2.75,1.41-.6,2.83-.91,4.28-.91,3.46,0,6.29,1.2,8.5,3.6,2.21,2.4,3.31,5.47,3.31,9.2s-1.13,6.88-3.4,9.38c-2.27,2.5-5.21,3.75-8.82,3.75-1.78,0-3.33-.37-4.67-1.11s-2.46-1.85-3.35-3.31c-1.27,1.27-2.3,2.74-3.08,4.42ZM209.62,62v9.4c0,2.42.16,4.17.48,5.23.32,1.07,1.1,2.08,2.33,3.06,1.23.98,2.67,1.46,4.31,1.46,2.52,0,4.53-1.04,6.02-3.11,1.49-2.07,2.24-5.05,2.24-8.94,0-3.57-.7-6.29-2.09-8.16-1.4-1.86-3.26-2.8-5.58-2.8-1.33,0-2.63.32-3.91.95-1.28.63-2.54,1.6-3.79,2.89Z"/>
      </g>
      <circle class="cls-2" cx="201.53" cy="43.24" r="2.85"/>
      <circle class="cls-2" cx="209.21" cy="79.68" r="2.85"/>
      <circle class="cls-2" cx="209.21" cy="41.29" r="2.19"/>
      <circle class="cls-2" cx="209.87" cy="59.96" r="2.19"/>
      <g class="cls-5">
        <rect class="cls-1" x="170.96" y="38.71" width="37.47" height="55"/>
        <path class="cls-7" d="M181.16,39.25v18.72c.06.3.18.42.36.42s.36-.06.54-.18c2.52-1.26,4.14-1.56,7.14-1.56,7.62,0,12.48,4.86,12.48,12.42s-5.16,13.32-14.1,13.32c-2.28,0-5.04-.72-6.54-1.92-.12-.06-.24-.12-.42-.12-.72,0-1.98,1.98-2.82,1.98-.54,0-.6-.24-.6-1.14,0-.6.06-1.26.06-2.7v-33.6c0-.9-.42-1.26-1.56-1.68-1.62-.54-2.04-.84-2.04-1.14,0-.42.36-.54,1.14-.96l4.2-2.1c.84-.42,1.2-.66,1.68-.66.3,0,.36.24.48.9ZM182.06,60.37c-.54.42-.9,1.62-.9,3.36v11.04c0,1.32.66,2.82,1.26,3.6,1.5,1.98,3.66,2.58,5.7,2.58,5.82,0,8.58-4.26,8.58-10.08,0-6.66-3.06-12.42-8.94-12.42-3,0-4.14.6-5.7,1.92Z"/>
      </g>
      <circle class="cls-2" cx="180.63" cy="79.68" r="2.85"/>
      <circle class="cls-2" cx="174.43" cy="42.16" r="2.85"/>
      <circle class="cls-2" cx="181.29" cy="57.77" r="2.19"/>
      <circle class="cls-2" cx="180.63" cy="38.35" r="2.19"/>
      <circle class="cls-2" cx="65.83" cy="60.65" r="2.19"/>
      <circle class="cls-2" cx="36.11" cy="60.13" r="2.19"/>
      <circle class="cls-2" cx="43.39" cy="61.93" r="2.31"/>
      <circle class="cls-2" cx="72.23" cy="62.84" r="2.31"/>
      <circle class="cls-2" cx="71.58" cy="76.09" r="2.31"/>
      <circle class="cls-2" cx="43.39" cy="74.46" r="2.31"/>
      <g>
        <rect class="cls-1" x="605.25" y="9.79" width="62.44" height="63.33"/>
        <path class="cls-7" d="M615.98,16.56c0-2.38-1.44-3.96-3.6-3.96h-2.52c-.5,0-.72-.22-.72-.94s.22-.86.72-.86h21.17c12.38,0,17.14,4.54,17.14,13.32,0,5.4-3.96,10.15-10.3,11.74-.43.14-.72.43-.72.65s.22.43.36.58l15.55,19.08c1.87,2.23,3.82,3.24,5.83,3.24h1.08c.5,0,.72.22.72.94s-.22.86-.72.86h-10.94c-.94,0-1.8-.72-2.3-1.44l-16.42-21.17c-.72-.94-1.3-1.15-2.23-1.15h-4.18c-.65,0-.72.36-.72.86v17.86c0,2.02,1.37,3.24,3.6,3.24h2.88c.5,0,.72.22.72.94s-.22.86-.72.86h-21.17c-.5,0-.72-.29-.72-.86,0-.72.22-.94.72-.94h3.17c2.74,0,4.32-1.44,4.32-3.24V16.56ZM623.18,34.12c0,.94.22,1.15.94,1.15h4.9c9.65,0,11.74-5.54,11.74-11.38,0-7.7-2.3-11.3-11.16-11.3h-2.09c-2.74,0-4.32,1.58-4.32,3.96v17.57Z"/>
      </g>
      <g class="cls-5">
        <rect class="cls-1" x="634.17" y="76.78" width="62.44" height="63.33"/>
        <path class="cls-7" d="M644.9,83.54c0-2.38-1.44-3.96-3.6-3.96h-2.52c-.5,0-.72-.22-.72-.94s.22-.86.72-.86h21.17c12.38,0,17.14,4.54,17.14,13.32,0,5.4-3.96,10.15-10.3,11.74-.43.14-.72.43-.72.65s.22.43.36.58l15.55,19.08c1.87,2.23,3.82,3.24,5.83,3.24h1.08c.5,0,.72.22.72.94s-.22.86-.72.86h-10.94c-.94,0-1.8-.72-2.3-1.44l-16.42-21.17c-.72-.94-1.3-1.15-2.23-1.15h-4.18c-.65,0-.72.36-.72.86v17.86c0,2.02,1.37,3.24,3.6,3.24h2.88c.5,0,.72.22.72.94s-.22.86-.72.86h-21.17c-.5,0-.72-.29-.72-.86,0-.72.22-.94.72-.94h3.17c2.74,0,4.32-1.44,4.32-3.24v-39.6ZM652.1,101.11c0,.94.22,1.15.94,1.15h4.9c9.65,0,11.74-5.54,11.74-11.38,0-7.7-2.3-11.3-11.16-11.3h-2.09c-2.74,0-4.32,1.58-4.32,3.96v17.57Z"/>
      </g>
      <g>
        <rect class="cls-1" x="662.17" y="12.83" width="68.89" height="61.44"/>
        <path class="cls-3" d="M714.52,61.17h-12.83c-2.27-1.59-5.75-5.77-10.44-12.52-1.5-2.16-3.06-4.22-4.68-6.21-1.62-1.98-2.73-3.19-3.34-3.62-.61-.43-1.56-.65-2.85-.65h-1.9v10.58c0,3.75.09,6.21.26,7.37s.64,2.02,1.41,2.58,2.22.84,4.38.84h2.29v1.62h-22.82v-1.62h1.55c2.04,0,3.45-.26,4.24-.77s1.28-1.32,1.49-2.41.32-3.63.32-7.61v-23.38c0-3.8-.11-6.25-.32-7.35-.21-1.1-.68-1.86-1.41-2.29s-2.3-.63-4.71-.63h-.81v-1.62l6.82-.35c4.55-.21,8.16-.32,10.83-.32,4.55,0,8.24.42,11.09,1.27s5.15,2.23,6.91,4.15c1.76,1.92,2.64,4.22,2.64,6.89,0,3.12-1.15,5.78-3.45,7.98-2.3,2.2-5.67,3.57-10.12,4.11,1.99.96,5.2,4.43,9.63,10.41,3.61,4.85,6.45,8.03,8.51,9.53s4.5,2.3,7.31,2.39v1.62ZM678.49,36.56c1.76-.05,3.57-.12,5.45-.21,1.88-.09,3.5-.35,4.89-.77s2.5-1.04,3.36-1.85,1.53-1.87,2.02-3.18c.49-1.31.74-2.93.74-4.85,0-3.35-.84-6.03-2.51-8.05-1.68-2.02-5.33-3.02-10.95-3.02-.87,0-1.86.05-2.99.14v21.8Z"/>
      </g>
      <g class="cls-5">
        <rect class="cls-1" x="635.64" y="79.82" width="68.89" height="61.44"/>
        <path class="cls-3" d="M687.99,128.16h-12.83c-2.27-1.59-5.75-5.77-10.44-12.52-1.5-2.16-3.06-4.22-4.68-6.21s-2.73-3.19-3.34-3.62-1.56-.65-2.85-.65h-1.9v10.58c0,3.75.09,6.21.26,7.37s.64,2.02,1.41,2.58,2.22.84,4.38.84h2.29v1.62h-22.82v-1.62h1.55c2.04,0,3.45-.26,4.24-.77s1.28-1.32,1.49-2.41.32-3.63.32-7.61v-23.38c0-3.8-.11-6.25-.32-7.35s-.68-1.86-1.41-2.29-2.3-.63-4.71-.63h-.81v-1.62l6.82-.35c4.55-.21,8.16-.32,10.83-.32,4.55,0,8.24.42,11.09,1.27s5.15,2.23,6.91,4.15,2.64,4.22,2.64,6.89c0,3.12-1.15,5.78-3.45,7.98s-5.67,3.57-10.12,4.11c1.99.96,5.2,4.43,9.63,10.41,3.61,4.85,6.45,8.03,8.51,9.53s4.5,2.3,7.31,2.39v1.62ZM651.95,103.55c1.76-.05,3.57-.12,5.45-.21s3.5-.35,4.89-.77,2.5-1.04,3.36-1.85,1.53-1.87,2.02-3.18.74-2.93.74-4.85c0-3.35-.84-6.04-2.51-8.05s-5.33-3.02-10.95-3.02c-.87,0-1.86.05-2.99.14v21.8Z"/>
      </g>
      <circle class="cls-2" cx="664.36" cy="14.5" r="2.85"/>
      <circle class="cls-2" cx="686.56" cy="60.3" r="2.85"/>
      <circle class="cls-2" cx="623.9" cy="36.37" r="2.85"/>
      <circle class="cls-2" cx="678.94" cy="37.72" r="2.85"/>
      <circle class="cls-2" cx="713.33" cy="60.3" r="2.85"/>
      <circle class="cls-2" cx="659.32" cy="60.3" r="2.85"/>
      <circle class="cls-2" cx="616.21" cy="180.09" r="2.85"/>
      <circle class="cls-2" cx="664.78" cy="182.04" r="2.85"/>
      <circle class="cls-2" cx="676.63" cy="182.91" r="1.95"/>
      <circle class="cls-2" cx="629.78" cy="181.66" r="1.95"/>
      <circle class="cls-2" cx="690.04" cy="37.72" r="2.16"/>
      <circle class="cls-2" cx="637.72" cy="36.37" r="2.16"/>
      <circle class="cls-2" cx="610.62" cy="11.65" r="2.85"/>
      <g>
        <rect class="cls-1" y="197.29" width="47.48" height="48.47"/>
        <path class="cls-7" d="M39.9,236.16c0,.66-.24,1.32-.9,1.62-3.72,1.56-8.82,2.82-13.56,2.82-13.68,0-23.52-7.86-23.52-21.6,0-11.88,10.56-21.54,23.52-21.54,5.04,0,9.24,1.44,12.12,3.84.36.3.78.72,1.08.72,1.02,0,1.38-1.5,2.22-1.5.66,0,.78.48.78,1.56,0,1.92,0,6.42-.12,10.2,0,.66-.24.96-.72.96-.42,0-.72-.18-.9-.96-1.86-9.24-7.08-12.9-15.18-12.9-9.18,0-15.9,8.34-15.9,19.62s6.96,20.22,17.1,20.22c3.06,0,5.04-.66,7.02-1.92.66-.42.96-.9.96-1.68v-10.5c0-1.32-1.02-2.1-3-2.1h-1.5c-.42,0-.6-.18-.6-.78s.18-.72.6-.72h14.82c.42,0,.6.24.6.72,0,.6-.18.78-.6.78h-.72c-2.28,0-3.6,1.32-3.6,3.3v9.84Z"/>
      </g>
      <g>
        <rect class="cls-1" x="43.56" y="199.85" width="46.61" height="45.88"/>
        <path class="cls-3" d="M71.24,223.18h17.14v1.41c-1.89,0-3.18.19-3.85.57s-1.12,1.02-1.33,1.9-.32,3.04-.32,6.46v4.22c-.47-.08-.89-.12-1.26-.12-1.5,0-3.48.46-5.92,1.38-3.32,1.25-6.4,1.88-9.23,1.88-5.68,0-10.41-1.87-14.18-5.61s-5.65-8.48-5.65-14.22,1.8-10.66,5.39-14.94,8.48-6.42,14.65-6.42c5.31,0,9.71,1.95,13.18,5.86.64-1.37,1.05-2.84,1.23-4.42h1.41v13.27h-1.41c-.57-4.08-2.11-7.31-4.64-9.7s-5.6-3.57-9.21-3.57-6.98,1.39-9.76,4.16-4.16,7.7-4.16,14.77,1.34,12.05,4.01,14.99,6,4.41,9.96,4.41c2.03,0,3.88-.42,5.54-1.25s2.79-1.84,3.4-3.03.91-2.7.91-4.51c0-2.13-.14-3.55-.42-4.26s-.72-1.19-1.3-1.44-1.66-.37-3.22-.37h-.94v-1.41Z"/>
      </g>
      <circle class="cls-2" cx="82.1" cy="237.51" r="2.31"/>
      <circle class="cls-2" cx="41.21" cy="200.9" r="2.31"/>
      <circle class="cls-2" cx="41.21" cy="212.76" r="2.31"/>
      <circle class="cls-2" cx="81.66" cy="201.99" r="2.31"/>
      <circle class="cls-2" cx="232.04" cy="203.21" r="2.31"/>
      <circle class="cls-2" cx="232.04" cy="215.23" r="2.31"/>
      <circle class="cls-2" cx="190.69" cy="201.4" r="2.31"/>
      <circle class="cls-2" cx="206.42" cy="249.58" r="2.31"/>
      <circle class="cls-2" cx="192.48" cy="213.92" r="2.31"/>
      <circle class="cls-2" cx="166.67" cy="247.27" r="2.31"/>
      <circle class="cls-2" cx="81.66" cy="213.98" r="2.31"/>
      <circle class="cls-2" cx="88.38" cy="223.83" r="2.31"/>
      <circle class="cls-2" cx="38.9" cy="237.83" r="2.31"/>
      <path class="cls-7" d="M335.88,244.24c-5.04-3.18-10.92-6.78-13.26-8.1-.72-.42-1.38-.66-2.28-.96-8.34-2.82-14.4-11.28-14.4-21.18,0-11.58,9.54-21,21.36-21s21.18,9.54,21.18,21.24c0,10.2-6.96,18.48-16.14,21.24-.36.12-.54.3-.54.54,0,.12.18.24.54.48,5.4,3.6,14.22,9,17.58,9,1.62,0,2.46-.36,2.94-.36.24,0,.48.24.48.6,0,.48-.96,1.86-3.24,2.88-.9.42-1.74.48-2.7.48-3.9,0-6.66-1.8-11.52-4.86ZM312.9,215.14c0,10.8,6.78,19.62,15.12,19.62,7.5,0,13.56-9.42,13.56-21s-6.6-19.38-15.42-19.38c-7.68,0-13.26,8.16-13.26,20.76Z"/>
      <path class="cls-3" d="M379.66,236.18c-.92.1-1.9.15-2.96.15-6.39,0-11.6-1.9-15.63-5.7s-6.05-8.85-6.05-15.16,2.05-11.03,6.14-14.75,9.21-5.58,15.37-5.58c3.79,0,7.45.83,10.99,2.48s6.21,4.09,8.03,7.32,2.72,6.81,2.72,10.74c0,4.57-1.19,8.61-3.56,12.13s-5.81,5.98-10.3,7.38l-8.76,4.83c.61-.06,1.13-.09,1.58-.09,4.34,0,9.33.98,14.97,2.93,4.34,1.5,7.77,2.26,10.31,2.26,3.52,0,5.61-1.33,6.27-3.98h1.23c-.33,2.7-1.46,4.88-3.37,6.56s-4.38,2.52-7.41,2.52c-1.99,0-3.8-.32-5.43-.97s-3.75-1.8-6.37-3.46c-4.69-2.99-8.59-4.48-11.72-4.48-1.88,0-3.69.74-5.45,2.23-1.17.98-1.98,1.46-2.43,1.46-.7,0-1.05-.32-1.05-.97,0-.49.42-.99,1.26-1.51s2.42-1.34,4.75-2.48c.49-.23.98-.49,1.46-.76l5.42-3.11ZM361.73,215.68c0,6.39,1.27,11.18,3.82,14.38s6.37,4.8,11.47,4.8c4.47,0,8.01-1.6,10.61-4.8s3.9-7.98,3.9-14.33-1.28-10.9-3.84-14.19-6.27-4.94-11.13-4.94-8.45,1.61-11,4.82-3.82,7.96-3.82,14.25Z"/>
      <path class="cls-6" d="M384.4,235.19l-8.76,4.83c.61-.06,1.13-.09,1.58-.09,4.34,0,9.33.98,14.97,2.93,4.34,1.5,7.77,2.26,10.31,2.26,3.52,0,5.61-1.33,6.27-3.98h1.23c-.33,2.7-1.46,4.88-3.37,6.56s-4.38,2.52-7.41,2.52c-1.99,0-3.8-.32-5.43-.97s-3.75-1.8-6.37-3.46c-4.69-2.99-8.59-4.48-11.72-4.48-1.88,0-3.69.74-5.45,2.23-1.17.98-1.98,1.46-2.43,1.46-.7,0-1.05-.32-1.05-.97,0-.49.42-.99,1.26-1.51s2.42-1.34,4.75-2.48c.49-.23.98-.49,1.46-.76l5.42-3.11s-.06,0-.09,0"/>
      <path class="cls-6" d="M314.17,226.72c-.23-.13-.44-.25-.63-.36-.47-.27-.92-.47-1.42-.66M332.34,235.48c-.36.12-.54.3-.54.54,0,.12.18.24.54.48,5.4,3.6,14.22,9,17.58,9,1.62,0,2.46-.36,2.94-.36.24,0,.48.24.48.6,0,.48-.96,1.86-3.24,2.88-.9.42-1.74.48-2.7.48-3.9,0-6.66-1.8-11.52-4.86-4.64-2.92-9.98-6.2-12.63-7.74M323.25,225.7,323.99,225.46s-.05.02-.07.02"/>
      <g class="cls-5">
        <rect class="cls-1" x="29.69" y="340.3" width="37.93" height="58.05"/>
        <path class="cls-3" d="M32.36,374.2c0-4.41,1.48-8.09,4.43-11.06s6.59-4.45,10.9-4.45,7.98,1.49,10.93,4.46,4.43,6.66,4.43,11.04c0,4.85-1.5,8.67-4.5,11.44s-6.62,4.17-10.86,4.17-7.86-1.41-10.85-4.24-4.48-6.62-4.48-11.37ZM38.2,374.37c0,5.11.83,8.69,2.5,10.74,1.66,2.05,4,3.08,7,3.08s5.42-1.03,7.05-3.08,2.44-5.63,2.44-10.74-.81-8.67-2.43-10.83-3.97-3.23-7.07-3.23-5.42,1.07-7.05,3.22c-1.63,2.14-2.44,5.76-2.44,10.85Z"/>
      </g>
      <g class="cls-5">
        <rect class="cls-1" x="29.8" y="337.24" width="35.76" height="58.85"/>
        <path class="cls-7" d="M48.24,358.62c8.14,0,14.76,6.84,14.76,15.26s-7.13,15.48-15.84,15.48c-8.21,0-14.83-6.91-14.83-15.48,0-9.29,6.62-15.26,15.91-15.26ZM47.3,360.06c-5.54,0-9.22,5.04-9.22,14.4,0,7.71,3.46,13.47,9.79,13.47,5.18,0,9.36-6.05,9.36-13.97,0-8.71-3.46-13.9-9.94-13.9Z"/>
      </g>
      <g>
        <rect class="cls-1" x="158.63" y="341.89" width="47.63" height="75.24"/>
        <path class="cls-7" d="M174.55,406.98c.5,0,.72.22.72.94s-.22.86-.72.86h-13.1c-.5,0-.72-.29-.72-.86,0-.72.22-.94.72-.94h1.15c2.67,0,3.53-.5,3.53-1.66v-34.49c0-1.08-.5-1.94-1.8-2.52-1.87-.79-2.3-.86-2.3-1.44s.5-.86,1.51-1.37l4.39-2.09c1.08-.5,1.73-1.08,2.3-1.08.36,0,.94.29.94,1.08v2.95c.07.36.22.5.43.5s.5-.22.65-.36c3.02-2.16,4.9-3.1,8.71-3.1,6.98,0,12.67,6.41,12.67,14.26,0,8.64-6.77,15.62-15.12,15.62-2.74,0-4.61-.5-6.55-1.15-.14-.07-.29-.14-.5-.14-.29,0-.65.22-.65.94v12.39c0,1.15.5,1.66,2.88,1.66h.86ZM172.32,368.45c-.79.79-1.51,2.16-1.51,5.62v10.22c0,1.8.43,3.24,1.51,4.32,1.8,1.8,4.39,2.66,6.84,2.66,5.83,0,8.5-5.83,8.5-12.38,0-7.63-4.18-12.89-10.37-12.89-1.73,0-3.46.86-4.97,2.45Z"/>
      </g>
      <g>
        <rect class="cls-1" x="201.46" y="344.97" width="47.63" height="75.24"/>
        <path class="cls-3" d="M210.35,363.35h.95c.4,1.31.6,2.89.6,4.75,1.5-1.59,3.11-2.78,4.83-3.57s3.54-1.18,5.47-1.18c3.98,0,7.3,1.4,9.95,4.2s3.97,6.5,3.97,11.09-1.33,8.26-3.99,11.29-6.16,4.54-10.49,4.54c-1.78,0-3.49-.36-5.12-1.07s-3.17-1.78-4.62-3.18v10.93c0,3.33.06,5.36.19,6.08s.5,1.27,1.11,1.63,1.75.54,3.41.54v1.62h-15.05v-1.62h1.05c1.66,0,2.75-.24,3.25-.72s.8-1.05.88-1.72.12-2.61.12-5.82v-26.16c0-3.07-.04-5-.12-5.8s-.42-1.41-1-1.83-1.63-.63-3.13-.63h-1.05v-1.62c2.32-.23,5.25-.82,8.79-1.76ZM211.9,387.89c1.27,1.55,2.61,2.71,4.03,3.5s2.91,1.18,4.48,1.18c2.65,0,4.96-1.14,6.93-3.41s2.95-5.89,2.95-10.86c0-4.31-.95-7.54-2.85-9.67s-4.16-3.2-6.79-3.2c-1.62,0-3.15.41-4.61,1.23s-2.84,2.06-4.15,3.73v17.51Z"/>
      </g>
      <circle class="cls-2" cx="211.13" cy="363.89" r="2.31"/>
      <circle class="cls-2" cx="162.57" cy="366.95" r="2.31"/>
      <circle class="cls-2" cx="170.13" cy="362.34" r="2.31"/>
      <circle class="cls-2" cx="212.17" cy="389.3" r="2.31"/>
      <circle class="cls-2" cx="174.2" cy="407.96" r="2.31"/>
      <circle class="cls-2" cx="215.75" cy="410.27" r="2.31"/>
      <circle class="cls-2" cx="171.89" cy="391" r="2.31"/>
      <circle class="cls-2" cx="202.31" cy="365.76" r="2.31"/>
    </g>
  </g>
</svg>