<?xml version="1.0" encoding="UTF-8"?>
<svg id="Layer_1" xmlns="http://www.w3.org/2000/svg" width="2in" height="2in" version="1.1" viewBox="0 0 144 144">
  <!-- Generator: Adobe Illustrator 30.1.0, SVG Export Plug-In . SVG Version: 2.1.1 Build 136)  -->
  <defs>
    <style>
      .st0, .st1 {
        fill: none;
      }

      .st2 {
        fill: #ee352a;
      }

      .st1 {
        stroke: #000;
        stroke-miterlimit: 10;
        stroke-width: .25px;
      }

      .st3 {
        fill: #86c6ed;
      }
    </style>
  </defs>
  <g>
    <rect class="st0" x="35.4" y="28.18" width="35.16" height="66.06"/>
    <path class="st3" d="M67.37,51.5c-1.51,0-2.88.65-4.03,3.74l-11.16,29.45c-2.45,6.41-6.12,10.73-11.09,10.73-1.73,0-2.88-.86-2.88-2.52,0-2.16,1.87-3.74,4.32-3.74,1.3,0,2.23.43,3.46.43,1.58,0,2.95-2.09,4.68-6.84.22-.58.36-1.22.36-1.87,0-.94-.29-1.66-.5-2.16l-9.94-25.56c-.36-.94-1.87-1.66-3.1-1.66h-.29c-.5,0-.72-.22-.72-.94s.22-.86.72-.86h12.96c.5,0,.72.29.72.86,0,.72-.22.94-.72.94h-1.58c-1.44,0-2.23.43-2.23,1.44,0,.43.5,1.94,1.08,3.46l5.83,15.63c.22.65.36,1.08.72,1.08.43,0,.58-.58.79-1.01l5.26-14.04c.5-1.37,1.01-3.17,1.01-4.03,0-1.73-1.3-2.52-3.31-2.52h-1.58c-.5,0-.72-.22-.72-.94s.22-.86.72-.86h12.53c.5,0,.72.29.72.86,0,.72-.22.94-.72.94h-1.31Z"/>
  </g>
  <g>
    <g>
      <rect class="st0" x="73.26" y="31.23" width="35.16" height="50.55"/>
      <path class="st2" d="M91.93,74.12l6.68-16c.96-2.34,1.44-3.64,1.44-3.9,0-1.17-1.3-1.78-3.9-1.83v-1.62h10.12v1.62c-1.57.07-2.72.49-3.45,1.25s-1.63,2.44-2.71,5.04l-12.83,30.97c-1.22,2.95-2.3,4.96-3.23,6.03s-1.97,1.6-3.09,1.6c-1.52,0-2.29-.69-2.29-2.07,0-1.59,1.22-2.94,3.66-4.04,1.43-.63,2.38-1.17,2.87-1.62s.96-1.25,1.42-2.43l2.74-6.86-10.83-23.2c-.96-2.04-1.76-3.33-2.39-3.87s-1.71-.81-3.23-.81v-1.62h13.22v1.62c-2.32.07-3.48.55-3.48,1.44,0,.35.46,1.5,1.37,3.45l7.91,16.84h0Z"/>
    </g>
    <circle class="st1" cx="91.97" cy="72" r="2.85"/>
    <circle class="st1" cx="83.99" cy="89.22" r="2.85"/>
  </g>
  <circle class="st1" cx="46.32" cy="89.22" r="2.85"/>
  <circle class="st1" cx="54.18" cy="72" r="2.85"/>
  <circle class="st1" cx="68.62" cy="50.78" r="2.85"/>
  <circle class="st1" cx="106.27" cy="51.66" r="2.85"/>
</svg>