<?xml version="1.0" encoding="UTF-8"?>
<svg id="Layer_1" xmlns="http://www.w3.org/2000/svg" width="1.48in" height="1.48in" version="1.1" viewBox="0 0 106.57 106.8">
  <!-- Generator: Adobe Illustrator 30.1.0, SVG Export Plug-In . SVG Version: 2.1.1 Build 136)  -->
  <defs>
    <style>
      .st0 {
        fill: #ee352a;
      }

      .st1 {
        isolation: isolate;
      }

      .st2 {
        fill: none;
        stroke: #231f20;
        stroke-miterlimit: 10;
        stroke-width: .25px;
      }

      .st3 {
        fill: #86c6ed;
      }
    </style>
  </defs>
  <g id="Layer_11" data-name="Layer_1">
    <g class="st1">
      <g class="st1">
        <path class="st0" d="M67.94,56.59c.52-.15,1.05-.23,1.57-.23,2.49,0,4.45.85,5.88,2.55s2.15,3.84,2.15,6.41c0,3.1-1.06,5.64-3.17,7.62s-4.84,2.97-8.18,2.97c-2.23,0-4.16-.51-5.76-1.52s-2.41-2.11-2.41-3.28c0-.49.15-.91.46-1.26s.7-.52,1.19-.52c.88,0,1.51.6,1.88,1.8.47,1.54,1.15,2.53,2.03,2.97.86.46,1.72.69,2.56.69,2.13,0,3.86-.78,5.19-2.34s1.99-3.97,1.99-7.24c0-2.62-.5-4.58-1.49-5.87s-2.16-1.93-3.52-1.93c-1.17,0-2.45.71-3.86,2.13-.24.25-.48.38-.74.38-.51,0-.76-.27-.76-.81,0-.24.13-.49.39-.75s1-.81,2.22-1.64c2.67-1.81,4.44-3.32,5.31-4.52s1.29-2.72,1.29-4.54-.45-3.09-1.35-4.05-2.09-1.43-3.58-1.43-2.87.49-4.05,1.46-1.76,2.21-1.76,3.72c0,1.2.52,2.33,1.55,3.38.12.12.18.22.18.3,0,.22-.28.46-.84.71s-.96.38-1.22.38c-.52,0-1.02-.4-1.47-1.19s-.69-1.66-.69-2.59c0-1.88.81-3.58,2.44-5.1s3.8-2.29,6.53-2.29,4.9.64,6.33,1.92,2.15,2.7,2.15,4.28c0,1.39-.49,2.68-1.46,3.87s-2.62,2.57-4.94,4.13l-2.06,1.42Z"/>
      </g>
    </g>
  </g>
  <g class="st1">
    <g class="st1">
      <path class="st3" d="M41.9,57.02c-.36-.26-.73-.31-.73-.62s.26-.42.73-.73c3.33-2.34,4.47-4.52,4.47-7.23,0-3.33-2.6-6.03-5.82-6.03-2.86,0-5.04,1.77-5.88,4.68-.21.78-.57.94-.88.94-.1,0-.42-.05-.42-.47,0-.31.05-.68.16-.99.94-3.9,4.42-6.45,8.89-6.45,3.74,0,6.81,2.71,6.81,6.03,0,2.96-1.77,5.15-3.54,7.38-.1.16-.21.31-.21.52,0,.26.16.47.36.68,3.9,3.59,5.1,5.98,5.1,9.78,0,6.29-5.41,11.39-12.12,11.39-4.73,0-8.53-2.44-8.53-5.41,0-1.14.73-1.87,1.82-1.87.73,0,1.3.42,1.72,1.09l.88,1.77c1.25,2.39,2.29,3.12,4.73,3.12,4.47,0,8.06-3.8,8.06-8.53,0-3.33-1.82-6.92-5.62-9.05Z"/>
    </g>
  </g>
  <circle class="st2" cx="34.13" cy="47.65" r="1.58"/>
  <circle class="st2" cx="62.57" cy="50.85" r="1.62"/>
  <circle class="st2" cx="41.24" cy="56.04" r="1.6"/>
  <circle class="st2" cx="63.21" cy="59.19" r="1.55"/>
</svg>