<?xml version="1.0" encoding="UTF-8"?>
<svg id="Layer_1" xmlns="http://www.w3.org/2000/svg" width="1.48in" height="1.48in" version="1.1" viewBox="0 0 106.57 106.8">
  <!-- Generator: Adobe Illustrator 30.1.0, SVG Export Plug-In . SVG Version: 2.1.1 Build 136)  -->
  <defs>
    <style>
      .st0, .st1 {
        fill: none;
      }

      .st2 {
        fill: #ee352a;
      }

      .st3 {
        isolation: isolate;
      }

      .st1 {
        stroke: #231f20;
        stroke-miterlimit: 10;
        stroke-width: .25px;
      }

      .st4 {
        fill: #86c6ed;
      }
    </style>
  </defs>
  <g id="Layer_11" data-name="Layer_1">
    <g class="st3">
      <g class="st3">
        <path class="st2" d="M70.16,44.59c1.44-1.62,2.89-2.44,4.37-2.44.81,0,1.44.22,1.89.66s.67.92.67,1.45c0,1.12-.51,1.68-1.52,1.68-.56,0-1.04-.35-1.45-1.04-.37-.64-.76-.96-1.17-.96-.64,0-1.35.44-2.13,1.32.88,1.39,1.32,2.86,1.32,4.42,0,2.03-.73,3.83-2.18,5.38-1.46,1.57-3.91,2.42-7.36,2.54-3.59.12-5.38.85-5.38,2.18,0,.63.41,1.07,1.22,1.32.8.27,2.47.47,5.03.61,2.79.14,4.94.39,6.45.77s2.71,1.15,3.61,2.3,1.35,2.52,1.35,4.11c0,2.23-.91,4.04-2.74,5.41s-4.46,2.06-7.9,2.06c-3.15,0-5.67-.61-7.57-1.83s-2.84-2.76-2.84-4.62c0-1.03.27-1.88.81-2.54s1.31-.99,2.31-.99c.27,0,.52.04.74.13-1.05,1.15-1.57,2.37-1.57,3.66,0,1.49.7,2.72,2.09,3.69s3.48,1.46,6.26,1.46c2.47,0,4.4-.5,5.78-1.49s2.07-2.26,2.07-3.8c0-1.69-.62-2.89-1.85-3.58-1.24-.68-3.44-1.08-6.6-1.22-3.64-.15-6-.6-7.08-1.35-1.08-.73-1.62-1.67-1.62-2.82,0-2.22,1.55-3.61,4.65-4.19-1.61-.95-2.82-2.03-3.63-3.25-.81-1.22-1.22-2.58-1.22-4.09,0-2.12.83-3.91,2.5-5.4s3.64-2.22,5.93-2.22c2.83,0,5.09.89,6.8,2.67ZM58.74,50.13c0,2.18.45,3.78,1.35,4.8.9,1.02,2.04,1.52,3.43,1.52,1.29,0,2.39-.5,3.31-1.51.92-1.01,1.38-2.75,1.38-5.24s-.49-4.23-1.47-5.18-2.09-1.42-3.33-1.42c-1.56,0-2.73.58-3.5,1.75s-1.17,2.93-1.17,5.28Z"/>
      </g>
    </g>
    <line class="st1" x1="63.79" y1="39.15" x2="63.46" y2="59.66"/>
    <line class="st0" x1="28.51" y1="42.46" x2="28.3" y2="55.96"/>
  </g>
  <g class="st3">
    <g class="st3">
      <path class="st4" d="M44.75,44.08c.57.42.68.68.94.68.68,0,1.35-.47,2.08-.88.88-.52,1.61-.68,2.34-.68,1.25,0,2.24.83,2.24,1.82s-.78,1.82-1.77,1.82c-.68,0-1.04-.36-1.3-.57-.36-.26-.88-.62-1.77-.62-.52,0-.99.21-.99.47,0,.42.42,1.98.42,3.02,0,4.79-3.64,7.85-8.42,7.85-.88,0-1.66-.1-1.92-.1-.16,0-.31.05-.57.26-.78.62-1.4,1.35-1.4,2.29,0,1.2.73,2.03,1.92,2.39.62.21,1.2.26,1.98.26,1.2,0,2.24-.16,4.99-.16,5.2,0,7.64,2.39,7.64,5.98,0,4.58-5.82,7.8-12.95,7.8-4.84,0-8.74-1.3-8.74-5.04,0-2.76,1.56-4.26,4.58-5.56.16-.05.21-.1.21-.16s-.16-.16-.21-.16c-1.66-.88-2.76-1.92-2.76-3.85,0-1.56.78-2.81,3.28-3.9.16-.05.26-.16.26-.31s-.1-.26-.26-.36c-2.24-1.04-4.32-3.12-4.32-6.5,0-4.63,3.8-7.7,8.42-7.7,2.86,0,4.47.73,6.08,1.92ZM39.65,74.19c4.94,0,8.94-2.44,8.94-4.89,0-2.65-1.3-4.32-7.02-4.32-1.04,0-2.55.16-3.95.31-.83.1-1.51.26-2.13.57-2.29,1.2-3.02,2.24-3.02,3.8,0,3.43,3.22,4.52,7.18,4.52ZM33.98,50.32c0,3.64,1.66,5.62,4.32,5.62,2.5,0,4.89-2.03,4.89-7.18,0-3.07-1.25-5.56-4.26-5.56s-4.94,2.44-4.94,7.12Z"/>
    </g>
  </g>
  <circle class="st1" cx="46.78" cy="45.01" r="1.25"/>
  <circle class="st1" cx="71.06" cy="44.57" r="1.25"/>
  <circle class="st1" cx="60.04" cy="57.27" r="1.25"/>
  <circle class="st1" cx="35.32" cy="56.96" r="1.25"/>
  <circle class="st1" cx="57.12" cy="66.41" r="1.25"/>
  <line class="st1" x1="39.95" y1="39.63" x2="37.12" y2="59.12"/>
</svg>