<?xml version="1.0" encoding="UTF-8"?>
<svg id="Layer_1" xmlns="http://www.w3.org/2000/svg" width="2in" height="2in" version="1.1" viewBox="0 0 144 143.71">
  <!-- Generator: Adobe Illustrator 30.1.0, SVG Export Plug-In . SVG Version: 2.1.1 Build 136)  -->
  <defs>
    <style>
      .st0, .st1 {
        fill: none;
      }

      .st2 {
        fill: #ee352a;
      }

      .st1 {
        stroke: #000;
        stroke-miterlimit: 10;
        stroke-width: .25px;
      }

      .st3 {
        fill: #86c6ed;
      }
    </style>
  </defs>
  <g>
    <rect class="st0" x="23.34" y="47.62" width="47.48" height="48.47"/>
    <path class="st3" d="M63.24,86.5c0,.66-.24,1.32-.9,1.62-3.72,1.56-8.82,2.82-13.56,2.82-13.68,0-23.52-7.86-23.52-21.6,0-11.88,10.56-21.54,23.52-21.54,5.04,0,9.24,1.44,12.12,3.84.36.3.78.72,1.08.72,1.02,0,1.38-1.5,2.22-1.5.66,0,.78.48.78,1.56,0,1.92,0,6.42-.12,10.2,0,.66-.24.96-.72.96-.42,0-.72-.18-.9-.96-1.86-9.24-7.08-12.9-15.18-12.9-9.18,0-15.9,8.34-15.9,19.62s6.96,20.22,17.1,20.22c3.06,0,5.04-.66,7.02-1.92.66-.42.96-.9.96-1.68v-10.5c0-1.32-1.02-2.1-3-2.1h-1.5c-.42,0-.6-.18-.6-.78s.18-.72.6-.72h14.82c.42,0,.6.24.6.72,0,.6-.18.78-.6.78h-.72c-2.28,0-3.6,1.32-3.6,3.3v9.84h0Z"/>
  </g>
  <g>
    <rect class="st0" x="66.9" y="50.19" width="46.61" height="45.88"/>
    <path class="st2" d="M94.58,73.51h17.14v1.41c-1.89,0-3.18.19-3.85.57s-1.12,1.02-1.33,1.9-.32,3.04-.32,6.46v4.22c-.47-.08-.89-.12-1.26-.12-1.5,0-3.48.46-5.92,1.38-3.32,1.25-6.4,1.88-9.23,1.88-5.68,0-10.41-1.87-14.18-5.61s-5.65-8.48-5.65-14.22,1.8-10.66,5.39-14.94,8.48-6.42,14.65-6.42c5.31,0,9.71,1.95,13.18,5.86.64-1.37,1.05-2.84,1.23-4.42h1.41v13.27h-1.41c-.57-4.08-2.11-7.31-4.64-9.7s-5.6-3.57-9.21-3.57-6.98,1.39-9.76,4.16-4.16,7.7-4.16,14.77,1.34,12.05,4.01,14.99,6,4.41,9.96,4.41c2.03,0,3.88-.42,5.54-1.25s2.79-1.84,3.4-3.03.91-2.7.91-4.51c0-2.13-.14-3.55-.42-4.26s-.72-1.19-1.3-1.44-1.66-.37-3.22-.37h-.94v-1.41h-.02Z"/>
  </g>
  <circle class="st1" cx="105.44" cy="87.85" r="2.31"/>
  <circle class="st1" cx="64.55" cy="51.23" r="2.31"/>
  <circle class="st1" cx="64.55" cy="63.09" r="2.31"/>
  <circle class="st1" cx="105" cy="52.32" r="2.31"/>
  <circle class="st1" cx="105" cy="64.31" r="2.31"/>
  <circle class="st1" cx="111.72" cy="74.16" r="2.31"/>
  <circle class="st1" cx="62.24" cy="88.16" r="2.31"/>
</svg>