<?xml version="1.0" encoding="UTF-8"?>
<svg id="Layer_1" xmlns="http://www.w3.org/2000/svg" width="2in" height="2in" version="1.1" viewBox="0 0 144 144">
  <!-- Generator: Adobe Illustrator 30.1.0, SVG Export Plug-In . SVG Version: 2.1.1 Build 136)  -->
  <defs>
    <style>
      .st0, .st1 {
        fill: none;
      }

      .st2 {
        fill: #ee352a;
      }

      .st3 {
        isolation: isolate;
      }

      .st4 {
        mix-blend-mode: multiply;
      }

      .st1 {
        stroke: #000;
        stroke-miterlimit: 10;
        stroke-width: .25px;
      }

      .st5 {
        fill: #86c6ed;
      }
    </style>
  </defs>
  <g class="st3">
    <g id="Layer_11" data-name="Layer_1">
      <g>
        <rect class="st0" x="13.8" y="13.48" width="62.44" height="63.33"/>
        <path class="st5" d="M24.53,20.24c0-2.38-1.44-3.96-3.6-3.96h-2.52c-.5,0-.72-.22-.72-.94s.22-.86.72-.86h21.17c12.38,0,17.14,4.54,17.14,13.32,0,5.4-3.96,10.15-10.3,11.74-.43.14-.72.43-.72.65s.22.43.36.58l15.55,19.08c1.87,2.23,3.82,3.24,5.83,3.24h1.08c.5,0,.72.22.72.94s-.22.86-.72.86h-10.94c-.94,0-1.8-.72-2.3-1.44l-16.42-21.17c-.72-.94-1.3-1.15-2.23-1.15h-4.18c-.65,0-.72.36-.72.86v17.86c0,2.02,1.37,3.24,3.6,3.24h2.88c.5,0,.72.22.72.94s-.22.86-.72.86h-21.17c-.5,0-.72-.29-.72-.86,0-.72.22-.94.72-.94h3.17c2.74,0,4.32-1.44,4.32-3.24,0,0,0-39.61,0-39.61ZM31.73,37.81c0,.94.22,1.15.94,1.15h4.9c9.65,0,11.74-5.54,11.74-11.38,0-7.7-2.3-11.3-11.16-11.3h-2.09c-2.74,0-4.32,1.58-4.32,3.96v17.57h0Z"/>
      </g>
      <g class="st4">
        <rect class="st0" x="42.72" y="80.47" width="62.44" height="63.33"/>
        <path class="st5" d="M53.45,87.23c0-2.38-1.44-3.96-3.6-3.96h-2.52c-.5,0-.72-.22-.72-.94s.22-.86.72-.86h21.17c12.38,0,17.14,4.54,17.14,13.32,0,5.4-3.96,10.15-10.3,11.74-.43.14-.72.43-.72.65s.22.43.36.58l15.55,19.08c1.87,2.23,3.82,3.24,5.83,3.24h1.08c.5,0,.72.22.72.94s-.22.86-.72.86h-10.94c-.94,0-1.8-.72-2.3-1.44l-16.42-21.17c-.72-.94-1.3-1.15-2.23-1.15h-4.18c-.65,0-.72.36-.72.86v17.86c0,2.02,1.37,3.24,3.6,3.24h2.88c.5,0,.72.22.72.94s-.22.86-.72.86h-21.17c-.5,0-.72-.29-.72-.86,0-.72.22-.94.72-.94h3.17c2.74,0,4.32-1.44,4.32-3.24v-39.6h0ZM60.65,104.8c0,.94.22,1.15.94,1.15h4.9c9.65,0,11.74-5.54,11.74-11.38,0-7.7-2.3-11.3-11.16-11.3h-2.09c-2.74,0-4.32,1.58-4.32,3.96v17.57h0Z"/>
      </g>
      <g>
        <rect class="st0" x="70.72" y="16.52" width="68.89" height="61.44"/>
        <path class="st2" d="M123.07,64.86h-12.83c-2.27-1.59-5.75-5.77-10.44-12.52-1.5-2.16-3.06-4.22-4.68-6.21-1.62-1.98-2.73-3.19-3.34-3.62-.61-.43-1.56-.65-2.85-.65h-1.9v10.58c0,3.75.09,6.21.26,7.37s.64,2.02,1.41,2.58,2.22.84,4.38.84h2.29v1.62h-22.82v-1.62h1.55c2.04,0,3.45-.26,4.24-.77s1.28-1.32,1.49-2.41.32-3.63.32-7.61v-23.38c0-3.8-.11-6.25-.32-7.35s-.68-1.86-1.41-2.29-2.3-.63-4.71-.63h-.81v-1.62l6.82-.35c4.55-.21,8.16-.32,10.83-.32,4.55,0,8.24.42,11.09,1.27s5.15,2.23,6.91,4.15,2.64,4.22,2.64,6.89c0,3.12-1.15,5.78-3.45,7.98-2.3,2.2-5.67,3.57-10.12,4.11,1.99.96,5.2,4.43,9.63,10.41,3.61,4.85,6.45,8.03,8.51,9.53s4.5,2.3,7.31,2.39v1.62h0ZM87.03,40.25c1.76-.05,3.57-.12,5.45-.21s3.5-.35,4.89-.77,2.5-1.04,3.36-1.85,1.53-1.87,2.02-3.18.74-2.93.74-4.85c0-3.35-.84-6.03-2.51-8.05-1.68-2.02-5.33-3.02-10.95-3.02-.87,0-1.86.05-2.99.14v21.8h0Z"/>
      </g>
      <g class="st4">
        <rect class="st0" x="44.19" y="83.51" width="68.89" height="61.44"/>
        <path class="st2" d="M96.53,131.85h-12.83c-2.27-1.59-5.75-5.77-10.44-12.52-1.5-2.16-3.06-4.22-4.68-6.21s-2.73-3.19-3.34-3.62-1.56-.65-2.85-.65h-1.9v10.58c0,3.75.09,6.21.26,7.37s.64,2.02,1.41,2.58,2.22.84,4.38.84h2.29v1.62h-22.82v-1.62h1.55c2.04,0,3.45-.26,4.24-.77s1.28-1.32,1.49-2.41.32-3.63.32-7.61v-23.38c0-3.8-.11-6.25-.32-7.35s-.68-1.86-1.41-2.29-2.3-.63-4.71-.63h-.81v-1.62l6.82-.35c4.55-.21,8.16-.32,10.83-.32,4.55,0,8.24.42,11.09,1.27s5.15,2.23,6.91,4.15,2.64,4.22,2.64,6.89c0,3.12-1.15,5.78-3.45,7.98s-5.67,3.57-10.12,4.11c1.99.96,5.2,4.43,9.63,10.41,3.61,4.85,6.45,8.03,8.51,9.53s4.5,2.3,7.31,2.39v1.62h0ZM60.5,107.24c1.76-.05,3.57-.12,5.45-.21s3.5-.35,4.89-.77,2.5-1.04,3.36-1.85,1.53-1.87,2.02-3.18.74-2.93.74-4.85c0-3.35-.84-6.04-2.51-8.05s-5.33-3.02-10.95-3.02c-.87,0-1.86.05-2.99.14v21.8h0Z"/>
      </g>
      <circle class="st1" cx="72.9" cy="18.19" r="2.85"/>
      <circle class="st1" cx="95.11" cy="63.99" r="2.85"/>
      <circle class="st1" cx="32.45" cy="40.06" r="2.85"/>
      <circle class="st1" cx="87.48" cy="41.4" r="2.85"/>
      <circle class="st1" cx="121.87" cy="63.99" r="2.85"/>
      <circle class="st1" cx="67.87" cy="63.99" r="2.85"/>
      <circle class="st1" cx="98.58" cy="41.4" r="2.16"/>
      <circle class="st1" cx="46.27" cy="40.06" r="2.16"/>
      <circle class="st1" cx="19.17" cy="15.34" r="2.85"/>
    </g>
  </g>
</svg>