<?xml version="1.0" encoding="UTF-8"?>
<svg id="Layer_1" xmlns="http://www.w3.org/2000/svg" width="1.48in" height="1.48in" version="1.1" viewBox="0 0 106.57 106.8">
  <!-- Generator: Adobe Illustrator 30.1.0, SVG Export Plug-In . SVG Version: 2.1.1 Build 136)  -->
  <defs>
    <style>
      .st0 {
        fill: #ee352a;
      }

      .st1 {
        isolation: isolate;
      }

      .st2 {
        fill: none;
        stroke: #231f20;
        stroke-miterlimit: 10;
        stroke-width: .25px;
      }

      .st3 {
        fill: #86c6ed;
      }
    </style>
  </defs>
  <g id="Layer_11" data-name="Layer_1">
    <g class="st1">
      <g class="st1">
        <path class="st0" d="M68.28,49.29h8.38v1.17c-1.54.03-3.61,1.18-6.2,3.45-.83.71-2.12,1.75-3.86,3.12l7.41,8.68c1.12,1.3,2,2.15,2.64,2.55.64.4,1.3.61,1.98.65v1.17h-10.36v-1.17c1.73-.03,2.59-.41,2.59-1.12,0-.32-.57-1.14-1.7-2.46l-5.33-6.2-1.09.81v3c0,2.22.03,3.61.09,4.18.06.57.3,1.01.72,1.32.42.31,1.16.47,2.21.47v1.17h-10.54v-1.17h.79c1.22,0,2.01-.17,2.37-.52.36-.35.57-.76.62-1.24s.08-1.88.08-4.2v-20.85c0-2.01-.19-3.3-.57-3.86s-1.3-.84-2.75-.84v-1.17c1,0,2.2-.12,3.59-.36s2.35-.47,2.86-.71h.53v23.38l2.18-1.52c3.54-2.5,5.31-4.31,5.31-5.41,0-.75-.65-1.13-1.96-1.17v-1.17Z"/>
      </g>
    </g>
  </g>
  <g id="Layer_2">
    <g class="st1">
      <g class="st1">
        <path class="st3" d="M30.8,38.87c0-1.56-.21-2.13-.99-2.6-1.4-.68-1.77-.78-1.77-1.2,0-.36.42-.57,1.14-.83l3.02-1.04c.73-.26.94-.36,1.35-.36.36,0,.62.26.62.83v24.34c0,.36.05.42.42.42,1.56-.1,3.69-1.25,4.89-2.7l2.24-2.65c.57-.73,1.66-1.98,1.66-2.6,0-.68-.57-.78-2.13-.78h-.94c-.36,0-.52-.16-.52-.68s.16-.62.52-.62h8.84c.36,0,.52.21.52.62,0,.52-.16.68-.52.68h-1.04c-1.4,0-3.33,1.92-5.51,4.52l-2.5,2.91c-.1.1-.16.26-.16.36,0,.16.1.31.16.36l9.52,9.62c.68.68,1.87,1.2,2.76,1.2.36,0,.52.16.52.68s-.16.62-.52.62h-10.35c-.36,0-.52-.21-.52-.62,0-.52.16-.68.52-.68h.52c1.04,0,1.87-.31,1.87-1.04,0-.52-.42-1.09-1.3-1.98l-6.03-6.08c-.16-.16-.26-.21-.42-.21-.21,0-.36.05-.47.1-.57.21-1.09.26-1.61.26-.31,0-.42.16-.42.52v7.23c0,.83.36,1.2,2.08,1.2h.47c.36,0,.52.16.52.68s-.16.62-.52.62h-8.84c-.36,0-.52-.21-.52-.62,0-.52.16-.68.52-.68h.36c1.92,0,2.55-.36,2.55-1.2v-28.6Z"/>
      </g>
    </g>
    <circle class="st2" cx="63.18" cy="59.07" r="1.25"/>
    <circle class="st2" cx="34.78" cy="59.03" r="1.25"/>
    <circle class="st2" cx="49.35" cy="49.06" r="1.25"/>
    <circle class="st2" cx="76.26" cy="49.95" r="1.25"/>
    <circle class="st2" cx="55.81" cy="36.94" r="1.25"/>
    <circle class="st2" cx="28.08" cy="35.24" r="1.25"/>
  </g>
</svg>