<?xml version="1.0" encoding="UTF-8"?>
<svg id="Layer_1" xmlns="http://www.w3.org/2000/svg" width="1.48in" height="1.48in" version="1.1" viewBox="0 0 106.56 106.56">
  <!-- Generator: Adobe Illustrator 30.1.0, SVG Export Plug-In . SVG Version: 2.1.1 Build 136)  -->
  <defs>
    <style>
      .st0 {
        fill: #ee352a;
      }

      .st1 {
        isolation: isolate;
      }

      .st2 {
        fill: none;
        stroke: #231f20;
        stroke-miterlimit: 9.98;
        stroke-width: .25px;
      }

      .st3 {
        fill: #86c6ed;
      }
    </style>
  </defs>
  <g id="Layer_11">
    <g class="st1">
      <g class="st1">
        <path class="st0" d="M63.15,66.03h-1.14v-10.64h1.14c.69,1.29,1.61,1.93,2.73,1.93,1.32,0,2.3-.65,2.95-1.94.65-1.29.98-3.22.98-5.79,0-2.39-.53-4.14-1.57-5.23-1.05-1.09-2.24-1.64-3.6-1.64-1.64,0-2.84.83-3.62,2.48-.39.86-.93,1.29-1.62,1.29-.81,0-1.22-.42-1.22-1.27,0-.93.67-1.77,2.01-2.5,1.34-.75,2.88-1.12,4.64-1.12,2.8,0,4.99.92,6.55,2.76,1.57,1.84,2.34,4.07,2.34,6.68,0,2.24-.67,4.1-1.99,5.56-1.33,1.46-2.94,2.2-4.85,2.2-1.49,0-2.72-.47-3.72-1.42v8.64h-.02ZM59.88,73.73c0-.75.27-1.38.8-1.92s1.17-.8,1.92-.8,1.41.27,1.94.8.8,1.17.8,1.92-.27,1.41-.8,1.94-1.18.8-1.94.8-1.41-.28-1.93-.83c-.53-.55-.79-1.19-.79-1.92h0Z"/>
      </g>
    </g>
  </g>
  <g id="Layer_2">
    <g class="st1">
      <g class="st1">
        <path class="st3" d="M41.79,54.71c0-.52.57-.78,1.4-.78.47,0,.88.21,1.66.21,3.21,0,5.19-.83,5.19-4.2,0-2.13-2.23-4.31-5.87-5.24-2.8-.73-3.94-1.56-3.94-2.85,0-1.09.52-2.03,1.72-2.03,3.11,0,9.24,4.25,9.24,10.12,0,4.98-1.66,8.09-7.05,8.09-.57,0-.78.21-.83.73v8.04c0,.36-.1.52-.78.52-.78,0-.78-.16-.78-.52,0,0,.05-12.09.05-12.09ZM45.26,73.85c0,1.51-.99,2.59-2.38,2.59s-2.49-1.09-2.49-2.59c0-1.4.99-2.38,2.43-2.38s2.43.99,2.43,2.38h0Z"/>
      </g>
    </g>
    <circle class="st2" cx="42.6" cy="54.49" r="1.25"/>
    <circle class="st2" cx="62.67" cy="55.4" r="1.25"/>
    <circle class="st2" cx="58.19" cy="45.54" r="1.25"/>
    <circle class="st2" cx="41.03" cy="40.5" r="1.25"/>
  </g>
</svg>