<?xml version="1.0" encoding="UTF-8"?>
<svg id="Layer_1" xmlns="http://www.w3.org/2000/svg" width="2in" height="2in" version="1.1" viewBox="0 0 144 144">
  <!-- Generator: Adobe Illustrator 30.1.0, SVG Export Plug-In . SVG Version: 2.1.1 Build 136)  -->
  <defs>
    <style>
      .st0, .st1 {
        fill: none;
      }

      .st2 {
        fill: #ee352a;
      }

      .st1 {
        stroke: #000;
        stroke-miterlimit: 10;
        stroke-width: .25px;
      }

      .st3 {
        fill: #86c6ed;
      }
    </style>
  </defs>
  <g>
    <rect class="st0" x="76.32" y="42.07" width="18.69" height="50.96"/>
    <path class="st2" d="M87.36,42.07v38.46c0,3.07.04,5,.12,5.8s.42,1.41,1,1.83,1.63.63,3.13.63h.84v1.62h-15.4v-1.62h.98c1.41,0,2.41-.19,3.01-.58s.96-.93,1.07-1.63.18-2.72.18-6.05v-28.48c0-3.02-.27-4.93-.81-5.71-.54-.79-1.85-1.18-3.94-1.18v-1.62c1.43,0,3.11-.16,5.04-.49s3.26-.66,3.99-.98h.79Z"/>
  </g>
  <g>
    <rect class="st0" x="53.41" y="39.02" width="24.12" height="56.44"/>
    <path class="st3" d="M60.97,47.3c0-1.94-.72-2.81-2.81-4.03-1.94-.94-2.45-1.08-2.45-1.66,0-.5.58-.94,1.58-1.15l5.18-1.15c1.08-.22,1.73-.36,2.3-.36.5,0,.86.36.86,1.15v46.88c0,1.15.5,1.66,2.88,1.66h1.8c.5,0,.72.22.72.94s-.22.86-.72.86h-15.05c-.5,0-.72-.29-.72-.86,0-.72.22-.94.72-.94h2.16c2.66,0,3.53-.5,3.53-1.66v-39.68h.02Z"/>
  </g>
  <circle class="st1" cx="77.06" cy="89.22" r="2.85"/>
  <circle class="st1" cx="55.41" cy="89.22" r="2.85"/>
  <circle class="st1" cx="56.67" cy="41.8" r="2.85"/>
  <circle class="st1" cx="64.86" cy="39.02" r="2.19"/>
  <circle class="st1" cx="86.8" cy="42.07" r="2.19"/>
  <circle class="st1" cx="78.45" cy="44.65" r="2.85"/>
</svg>